<svg xmlns="http://www.w3.org/2000/svg" xmlns:xlink="http://www.w3.org/1999/xlink" viewBox="0 0 1200 1000" id="entrepreneur-managing-a-business">
  <defs>
    <symbol id="a" viewBox="0 0 654.291 559.725">
      <path fill="#f5f8fc" d="m.36904,214.54009C-5.04943,121.57472,49.83422,37.51331,123.18783,10.17656c47.11567-17.55864,107.71023-12.00123,150.81425,13.62424,65.16568,38.7412,41.45252,94.27771,102.04796,129.02952,60.75248,34.84189,107.03717-8.10864,177.90663,25.64562,75.5436,35.98051,94.30774,118.76918,96.62949,129.83095,17.84238,85.00815-30.16822,175.19348-113.788,220.39204-118.21531,63.89828-274.08783,19.77125-319.69008-48.08554-25.30433-37.65321-11.01849-74.22446-51.47552-104.18533-37.84037-28.02309-73.39338-13.10339-106.56336-38.46843C37.36032,321.35891,6.6906,289.8741.36904,214.54009Z"></path>
    </symbol>
    <symbol id="c" viewBox="0 0 177.374 242.907">
      <path fill="#f2f2f2" d="m177.37435,89.12378C177.37435,40.38448,137.86334.87347,89.12403.87347S.87371,40.38448.87371,89.12378c0,23.97053,9.57089,45.69542,25.08225,61.5993l-.00981-.00149s.05109.0496.12511.12234c.33993.34718.67772.69607,1.0233,1.0377,4.04938,4.20084,17.46742,19.12706,17.46742,32.4826h88.88132c0-11.68373,10.26856-24.56794,15.55168-30.42458,17.44545-16.12242,28.37935-39.18826,28.37935-64.81587Z"></path>
      <path fill="#f90065" d="m70.82812,190.78174c-5.54395-15.09229-12.57422-29.74072-20.89746-43.53809-3.55078-5.88623-6.53809-10.42627-9.17383-14.43213-6.05078-9.19482-9.70312-14.74512-11.90039-24.26855-5.28418-22.90137,2.66602-44.0835,18.10059-48.22363,6.54395-1.75537,15.0166.53857,22.39648,5.99512,5.79004-6.63232,13.56152-10.72314,21.45801-11.26514,7.5918-.52393,15.87207,2.24268,22.76758,7.49658,5.68164-5.00342,12.43359-7.92334,17.55664-7.49561,6.95898.57275,14.50879,5.80469,19.23438,13.3291,5.5752,8.87793,6.45605,19.45947,2.48047,29.79541-6.25293,16.2583-10.33008,23.18018-19.26367,38.34521-1.58887,2.6958-3.3291,5.65088-5.2627,8.96533-12.60645,21.61133-14.625,34.1167-15.6123,45.07373l-1.74023-.15723c1.00488-11.15234,3.05566-23.87549,15.84277-45.79736,1.93457-3.31641,3.67676-6.27393,5.2666-8.97168,8.88281-15.07959,12.9375-21.96191,19.13867-38.08496,3.77246-9.81006,2.94531-19.83887-2.33008-28.23926-4.37402-6.96533-11.56641-11.99561-17.89648-12.51709-4.61035-.37744-10.74414,2.28271-16.02539,6.86133.57227.47803,1.13379.97363,1.68359,1.48682,5.27246,4.92285,8.29688,10.47998,8.29688,15.24658,0,7.14355-3.6748,14.85352-9.61133,14.85352-7.67871,0-11.18848-10.45801-11.3584-14.81934-.20605-5.2998,2.81543-11.36719,8.29688-16.67041-6.51074-4.88135-14.24219-7.4375-21.34473-6.95752-7.40527.5083-14.71289,4.35449-20.19238,10.59326,6.81055,5.51074,10.73828,12.32471,10.52148,18.2749-.21582,5.90186-4.67383,13.07471-9.5791,13.07471-.0127,0-.02637,0-.03906-.00049-4.61621-.03613-8.875-6.89502-9.59863-13.00342-.66406-5.61133,1.64355-12.31494,6.19238-18.07129-6.94043-5.10596-14.81348-7.26611-20.8252-5.65332-14.52051,3.89551-21.92285,24.16357-16.85059,46.14355,2.12695,9.21777,5.71387,14.66895,11.65723,23.70068,2.64355,4.01904,5.6416,8.57422,9.20996,14.49023,8.38086,13.89209,15.45996,28.64111,21.04199,43.83789l-1.64062.60254Zm-1.20898-122.0542c-4.27539,5.40137-6.45215,11.63379-5.83984,16.79883.61133,5.16797,4.26172,11.43262,7.87598,11.46143h.02441c3.54102,0,7.63477-5.94629,7.83398-11.39062.19434-5.32812-3.59082-11.77246-9.89453-16.86963Zm44.04297-3.88672c-.01074.01074-.02246.021-.0332.03174-5.13477,4.91748-8.08984,10.7041-7.9043,15.47949.14551,3.74023,3.21875,13.14062,9.6123,13.14062,4.7041,0,7.86328-6.77686,7.86328-13.10645,0-4.22119-2.89355-9.44336-7.74121-13.96924-.58496-.54639-1.18457-1.07178-1.79688-1.57617Z"></path>
      <path fill="#ffcc83" d="m133.68811,184.36792v13.09998c0,.28998,0,.59003-.01001.88-.46997,24.20001-20.22998,43.67999-44.54993,43.67999-24.33008,0-44.09009-19.47998-44.56006-43.67999-.01001-.28998-.01001-.59003-.01001-.88v-13.09998h89.13Z"></path>
      <path fill="#112e5b" d="m133.68811,196.5979v.87c0,.28998,0,.59003-.01001.88H44.56812c-.01001-.28998-.01001-.59003-.01001-.88v-.87h89.13Z"></path>
      <path d="m89.12402,242.90674c-15.11719,0-29.20117-7.48877-37.6748-20.03174l1.44727-.97852c8.14844,12.06152,21.69141,19.26221,36.22754,19.26221,9.30176,0,18.18262-2.88379,25.68164-8.34082l1.02734,1.41309c-7.79883,5.67578-17.03516,8.67578-26.70898,8.67578Z"></path>
      <rect width="70.668" height="1.747" x="62.775" y="183.491"></rect>
      <path d="M26.48047 152.50342c-.27832-.27539-.55176-.55566-.8252-.83545l-.31738-.31934-1.95117-1.89453.18848.02832C8.35352 132.9751 0 111.64111 0 89.12402c0-6.99219.8125-13.95557 2.41602-20.69775l1.69922.4043c-1.57031 6.60986-2.36719 13.4375-2.36719 20.29346 0 22.91016 8.81934 44.56982 24.83398 60.98926l.75293.77197c.12402.12598.24805.25098.37402.375l-.00391.00439.69043.70801-1.21094-.18164-.7041.7124ZM161.5791 40.27148C145.28125 16.14893 118.19531 1.74707 89.12402 1.74707V0c29.65332 0 57.28027 14.68896 73.90234 39.29297l-1.44727.97852Z"></path>
      <path fill="#fff" d="M165.6416 81.62598c-.51172-5.3374-1.55566-10.62842-3.10449-15.72656l1.67188-.50781c1.58203 5.20898 2.64941 10.61475 3.17285 16.06738l-1.74023.16699ZM163.1377 116.7832l-1.64844-.57812c3.00391-8.56543 4.52637-17.56494 4.52637-26.74854h1.74805c0 9.38135-1.55664 18.5752-4.62598 27.32666ZM19.35449 56.21826l-1.5918-.7207c2.34863-5.19092 5.25-10.14307 8.625-14.71826l1.40625 1.03711c-3.30176 4.47656-6.1416 9.32227-8.43945 14.40186ZM34.33789 34.0459l-1.26172-1.20996c8.23828-8.59082 18.40234-15.27979 29.39355-19.34326l.60547 1.63867c-10.74414 3.97266-20.68164 10.51318-28.7373 18.91455Z"></path>
    </symbol>
    <symbol id="e" viewBox="0 0 189.607 245.722">
      <path fill="#ffcc83" d="m170.37695,98.05734c0,17.03843-5.0329,32.90615-13.70069,46.20462-.41939.64679-.83878,1.27566-1.27566,1.90496-11.8657,17.19565-29.91772,29.778-50.92308,34.54872-1.01349.22697-2.02709.43688-3.05818.61159-5.12025.97851-10.39772,1.48536-15.79764,1.48536-7.37453,0-14.53947-.94374-21.35478-2.72625-.55922-.13973-1.11845-.27945-1.67767-.43688-8.21342-2.32414-15.93747-5.85397-22.94509-10.39772h-.01749c-.71644-.47187-1.45048-.96123-2.14943-1.45037h-.01749C15.35343,152.51047.86644,126.96158.86644,98.05734c0-.5941,0-1.1882.03498-1.78252,0-.82129.03488-1.66007.06986-2.48136,1.45048-29.28864,17.77236-54.66282,41.57373-68.74803.55922-.33193,1.11845-.64658,1.67767-.96123h.01749c12.23272-6.86768,26.3528-10.78213,41.38152-10.78213,6.27368,0,12.39004.68156,18.27921,1.97472,1.08346.24468,2.14943.48936,3.19791.76902h.01749c1.92235.50664,3.79211,1.06576,5.66198,1.69505l1.64268.57661c4.07178,1.46787,8.00372,3.25038,11.76096,5.29507l3.79211,2.21919s.03498.01749.03498.03498c12.59963,7.72416,22.97997,18.64623,30.07494,31.66547l.89126,1.69505c6.01151,11.6384,9.40173,24.83235,9.40173,38.83009Z"></path>
      <path fill="#ffcc83" d="m107.38965,230.86768h-1.74805v-32.53711l.69824-.14355c47.23535-9.71826,81.51953-51.82959,81.51953-100.13135,0-42.61328-26.73145-81.02832-66.60547-95.85254l-7.07617,16.04395-55.40137,178.79346c2.62109.63086,10.7666,2.43945,20.33594,3.04102l.81934.05176v30.73438h-1.74805v-29.09668c-11.41602-.8042-20.64648-3.2373-20.74023-3.26221l-.87891-.23389.26855-.86914L112.55859,17.58789,120.31543,0l.76758.27881c40.98633,14.86475,68.52441,54.1582,68.52441,97.77686,0,48.89014-34.53223,91.54443-82.21777,101.69727v31.11475Z"></path>
      <path fill="#f2f2f2" d="M107.09882 16.04583c-15.90249 5.20761-29.34101 12.58214-40.2106 22.07111-.50685.43688-.99611.87377-1.48547 1.32814-8.40562 7.63692-15.18605 16.60155-20.32379 26.82477-8.82501 17.54507-11.69099 36.85537-11.74336 54.47041-.01749.69906 0 1.38062.01749 2.06218.17471 19.11789 3.6173 36.08656 6.27358 46.4493-.71644-.47187-1.45048-.96123-2.14943-1.45037h-.01749c-2.65628-10.79984-5.80182-27.48884-5.87168-46.09988 0-.68156 0-1.36313.01749-2.04469.13973-17.58005 3.12804-36.71564 11.90068-54.17346 5.13775-10.22301 11.90068-19.20535 20.23633-26.89453.48936-.45438.97861-.89126 1.46797-1.32814 10.52017-9.31426 23.45184-16.67151 38.69036-21.98386 1.08346.24468 2.14943.48936 3.19791.76902ZM149.91333 93.44384c-1.69505 19.58997-9.26189 37.57192-18.41894 52.6881-.34953.5941-.71644 1.1882-1.08346 1.76502-8.56294 13.77055-18.34908 25.02476-25.93341 32.81868-1.01349.22697-2.02709.43688-3.05818.61159 7.54935-7.54924 17.87732-19.08312 26.91202-33.41279.36702-.57682.73393-1.15343 1.10095-1.74753 9.29688-15.11619 17.03843-33.16811 18.73348-52.88031.99611-11.51638-.12234-22.82286-3.35523-33.84967-.17471-.57661-.34953-1.17092-.54173-1.76502-3.65239-11.69109-9.69878-23.06754-18.0869-34.05936l3.79211 2.21919s.03498.01749.03498.03498c7.39202 10.31069 12.77445 20.93539 16.11219 31.85746h.01749c.17471.57682.34953 1.17114.50675 1.76502 3.18052 11.04452 4.26398 22.38598 3.26787 33.95462ZM114.42097 18.31749l-10.46769 33.7797-.52424 1.71255-26.61486 85.82144-.52434 1.67756-12.02292 38.77761c-.55922-.13973-1.11845-.27945-1.67767-.43688l12.04051-38.8126.50675-1.67756 26.59737-85.78645.52434-1.71255h.01749l10.50257-33.91942 1.64268.57661Z"></path>
      <path fill="#f2f2f2" d="M160.08397 57.53213c-4.77076.24465-9.41919.29708-13.9453.19223h-.01748c-.62911 0-1.24075-.01748-1.85238-.05243-14.85401-.41941-28.31-2.53392-40.31554-5.57462-.55921-.1398-1.11842-.2796-1.67763-.43688h-.01748c-13.8055-3.65234-25.61881-8.52795-35.37003-13.54337-.57669-.2796-1.1359-.57669-1.67763-.85629-8.80756-4.64843-15.83263-9.33182-20.97037-13.17638h-.01748c-.55921.31456-1.11842.62911-1.67763.96114 5.15522 3.93194 12.25019 8.75513 21.19755 13.54337.54173.2796 1.10094.57669 1.66015.85629.59416.31456 1.2058.62911 1.81743.94367 9.03474 4.56106 20.60339 9.33182 34.51374 12.98416.55921.15728 1.11842.29708 1.69511.43688 12.12787 3.05818 25.95084 5.22512 41.38154 5.62705.61164.03495 1.22327.05243 1.83491.05243 1.15337.01748 2.32422.03495 3.51254.03495 3.53001 0 7.12993-.08738 10.81722-.29708l-.89124-1.69511ZM156.67626 144.26196c-.41939.64679-.83878 1.27566-1.27566 1.90496-8.72016 1.06597-17.05592 1.62508-24.98967 1.73004-.69906.01749-1.398.03498-2.07957.01749-.34953.01749-.69906.01749-1.04848.01749-19.27532 0-36.24388-2.56882-50.99305-6.62321-.55912-.15722-1.11834-.31444-1.66007-.47187-16.54917-4.70076-30.24976-11.254-41.27667-18.03443-.59421-.36713-1.18841-.73404-1.76502-1.10095-1.88736-1.18841-3.70476-2.39411-5.4349-3.60002-10.50257-7.26958-18.85582-14.97625-25.25174-21.82665 0-.82129.03488-1.66007.06986-2.48136 6.46589 7.09487 15.15106 15.23842 26.24795 22.92739 1.398.97872 2.86587 1.95744 4.38632 2.93595.55912.34963 1.13583.71655 1.73004 1.08346 11.06179 6.90266 24.9372 13.63083 41.80091 18.41905.55922.17471 1.11845.33193 1.67767.47187 15.13357 4.15892 32.64387 6.74544 52.61813 6.53575.68156 0 1.36302-.01749 2.06207-.03498 8.00372-.13994 16.39185-.73383 25.18188-1.86998Z"></path>
      <path fill="#112e5b" d="m63.01195,216.01381h59.21406c5.36043,0,9.71242,4.35199,9.71242,9.71242v7.76289H53.29953v-7.76289c0-5.36043,4.35199-9.71242,9.71242-9.71242Z"></path>
      <rect width="124.075" height="10.485" x="30.582" y="233.489" fill="#f90065"></rect>
      <path d="M171.25781 98.05566h-1.74805c0-23.88818-10.23242-46.71387-28.07422-62.62402l1.16406-1.30469c18.21191 16.24219 28.6582 39.54297 28.6582 63.92871ZM78.96875 183.4292c-21.44434-1.64941-41.34961-11.26221-56.05176-27.06738C8.13867 140.47412 0 119.76709 0 98.05566h1.74805c0 21.26807 7.97266 41.55273 22.44922 57.11621 14.40137 15.48242 33.90039 24.89941 54.90625 26.51514l-.13477 1.74219Z"></path>
      <rect width="76.892" height="1.748" x="32.329" y="243.974"></rect>
    </symbol>
    <symbol id="d" viewBox="0 0 213.199 235.043">
      <path fill="#112e5b" d="m54.7842,43.48712l-7.99668,4.6754c-1.95767,1.14459-4.47255.48545-5.61713-1.47222L22.38248,14.55595c-1.14459-1.95767-.48545-4.47255,1.47222-5.61713l7.99668-4.6754c1.95767-1.14459,4.47255-.48545,5.61713,1.47222l18.7879,32.13435c1.14459,1.95767.48545,4.47255-1.47222,5.61713Z"></path>
      <path fill="#ffcc83" d="m20.13927,28.91618c-.90107,0-1.77825-.46419-2.26548-1.29785-.73041-1.25006-.30974-2.85595.93947-3.58636L47.47687,7.27342c1.25262-.73212,2.8568-.3106,3.58636.93947.73041,1.25006.30974,2.85595-.93947,3.58636l-28.66361,16.75855c-.4164.24319-.87206.35838-1.32089.35838Z"></path>
      <rect width="8.738" height="27.96" x="86.503" y="6.99" fill="#b8c2d8"></rect>
      <rect width="33.203" height="12.233" x="74.27" fill="#112e5b" rx="3.349" ry="3.349"></rect>
      <circle cx="106.599" cy="128.444" r="102.231" fill="#f2f2f2"></circle>
      <path fill="#b8c2d8" d="m106.59939,235.04293C47.81989,235.04293,0,187.22304,0,128.44353S47.81989,21.84414,106.59939,21.84414s106.59939,47.81989,106.59939,106.59939-47.81989,106.59939-106.59939,106.59939Zm0-204.46113c-53.96099,0-97.86174,43.90074-97.86174,97.86174s43.90074,97.86174,97.86174,97.86174,97.86174-43.90074,97.86174-97.86174S160.56124,30.58179,106.59939,30.58179Z"></path>
      <polygon fill="#ffcc83" points="110.919 142.985 109.37 142.177 145.968 71.962 147.516 72.77 110.919 142.985"></polygon>
      <path fill="#f90065" d="m113.7055,123.64768c5.84106,4.90658,6.59861,13.61925,1.69203,19.46031-4.90658,5.84106-13.61925,6.59861-19.46031,1.69203-5.84106-4.90658-41.40771-47.77116-38.92015-50.73249s50.84738,24.67357,56.68843,29.58014Z"></path>
      <path fill="#112e5b" d="m34.88357,76.34814l-1.35938-1.09766c13.58203-16.81689,32.66602-28.73682,53.7373-33.56348,21.07129-4.82617,43.44043-2.40381,62.98926,6.82471l-.74609,1.58008c-19.19531-9.06152-41.16309-11.44043-61.85254-6.70166-20.69141,4.73975-39.43164,16.44482-52.76855,32.95801Z"></path>
      <path fill="#112e5b" d="m44.52322,81.03515l-1.3457-1.11621c11.63281-14.02002,27.74805-24.26416,45.37891-28.84521,17.63086-4.58203,36.69629-3.479,53.68066,3.104l-.63086,1.62988c-16.64746-6.45215-35.33203-7.5332-52.61035-3.04248-17.27832,4.48975-33.07324,14.5293-44.47266,28.27002Z"></path>
      <path fill="#112e5b" d="m51.72732,84.00879l-1.18945-1.28027c22.12207-20.53662,54.97461-27.82031,83.70508-18.55811l-.53711,1.66309c-28.12988-9.06934-60.31348-1.93652-81.97852,18.17529Z"></path>
      <path d="m66.63943,228.21435c-18.07617-7.26514-33.88477-19.35254-45.71777-34.95508l1.39258-1.05566c11.6416,15.35059,27.19434,27.24219,44.97754,34.38965l-.65234,1.62109Zm39.95996-1.03564v-1.74707c53.47949,0,96.9873-43.50879,96.9873-96.98828h1.74805c0,54.44287-44.29297,98.73535-98.73535,98.73535ZM185.86306,58.5498c-20.10352-22.77148-48.99414-35.83203-79.26367-35.83203v-1.74707c30.77051,0,60.13867,13.27539,80.57422,36.42285l-1.31055,1.15625Z"></path>
    </symbol>
    <symbol id="b" viewBox="0 0 576.962 909.982">
      <path fill="#ff9996" d="m405.51453,218.95349s-10.95001,21.70001-46.16998,27.52997c-35.21002,5.83002-18.28003-16.67999-18.28003-16.67999l5.42999-10.82001,5.06-10.07996,31.12006-22.11005c-.02002.19-.02002.37-.02002.56-.13,11.92004,22.85999,31.60004,22.85999,31.60004Z"></path>
      <path d="m382.67456,186.79346c-.02002.19-.02002.37-.02002.56-2.88,11.98004-10.20001,28.11005-28.84003,31.70001-3.07001.59003-5.47998.53003-7.32001-.07001l5.06-10.07996,31.12006-22.11005Z"></path>
      <path fill="#112e5b" d="m281.5182,440.52852s-124.17682,119.24945-128.63251,125.58044l-.05396.05267.01038.00861c-7.12708,10.15259-11.32391,22.51178-11.32391,35.85828,0,34.51776,27.98218,62.5,62.5,62.5,17.4162,0,33.16217-7.12988,44.49597-18.62238l.00403.00336,163-154.38098c17-135-130-51-130-51Z"></path>
      <polygon fill="#f2f2f2" points="329.518 227.529 318.2 441.452 389.034 440.529 402.335 213.785 359.111 235.377 329.518 227.529"></polygon>
      <polygon fill="#f90065" points="351.548 441.378 334.518 420.87 354.72 253.529 361.267 253.529 377.874 421.87 351.548 441.378"></polygon>
      <path fill="#ff9996" d="m100.5182 246.52852-16.35201-19.62241c-13.82553-16.59064-14.30501-40.54811-1.15437-57.67865l3.29742-4.29535c3.45683-4.503 3.66442-10.70676.51635-15.43078l-19.30739-28.97282 63-22 20.57788 61.0423c1.65577 4.91168.86783 10.31866-2.12083 14.55352l-16.2166 22.97856c-3.00284 4.25495-2.40343 10.07351 1.40379 13.62691l8.35575 7.7987c17 16-25 48-42 28ZM400.4621 177.18527c-1.82743-3.23498-5.14478-5.15573-8.82865-5.53524-1.34938-15.97567-11.60968-25.97152-25.46739-26.10162-15.00131-.14085-28.52866 11.32704-28.7008 29.66203s1.53763 33.21573 16.53898 33.35658c8.40044.07887 19.18549-4.48295 27.08225-11.7307 4.82246.15287 10.32341-1.10498 13.7406-3.03533 6.28905-3.5527 8.81198-10.99181 5.63501-16.61573Z"></path>
      <path d="m396.78711,186.89697c-1.4873-3.23828-3.9668-6.06885-6.98145-7.9707l.57031-.90332c3.18652,2.01123,5.80859,5.00439,7.38184,8.42871l-.9707.44531Z"></path>
      <path fill="#fff" d="m394.90745,182.80533l-2.06323,4.63054"></path>
      <polygon points="393.331 187.653 392.356 187.219 394.42 182.588 395.395 183.022 393.331 187.653"></polygon>
      <ellipse cx="364.086" cy="174.059" rx="2.368" ry="1.698" transform="rotate(-89.462 364.086 174.059)"></ellipse>
      <ellipse cx="346.455" cy="173.325" rx="2.368" ry="1.698" transform="rotate(-89.462 346.455 173.325)"></ellipse>
      <path d="m346.78809 185.50781-.37109-1.00098c2.8623-1.06201 5.2334-3.26416 6.50391-6.04102 1.27148-2.77734 1.3877-6.01025.31934-8.87061l1-.37402c1.16699 3.12451 1.04004 6.65576-.34863 9.68896-1.3877 3.03271-3.97656 5.4375-7.10352 6.59766ZM353.73437 193.63379l-.02736-1.06738c4.33889-.1123 8.57619-2.97168 10.30471-6.95264l.97852.4248c-1.91699 4.41797-6.44043 7.47021-11.25586 7.59521Z"></path>
      <path d="m354.22656,209.10156c-.07617,0-.15137,0-.22754-.00098l.00977-1.06738c.06934.00049.13867.00098.20898.00098,8.31055,0,18.93164-4.63818,26.50781-11.59131l.16113-.14697.2168.00684c4.64062.14795,10.05859-1.04443,13.46094-2.9668,2.92773-1.65332,5.10254-4.22363,6.12402-7.23779,1.01465-2.99219.76953-6.06445-.69141-8.65039-1.67676-2.96875-4.74512-4.88867-8.41797-5.2666l-.44043-.04541-.03711-.44092c-1.30273-15.42871-11.09277-25.48242-24.94043-25.61279l.00977-1.06738c14.30762.13428,24.45703,10.38428,25.95605,26.15625,3.82715.51855,7.01855,2.59717,8.7998,5.75146,1.6123,2.85449,1.88672,6.23486.77344,9.51904-1.10645,3.2627-3.4541,6.0415-6.61035,7.82422-3.50293,1.97949-9.00879,3.21777-13.80176,3.11035-7.8623,7.146-18.43457,11.72559-27.06152,11.72559Z"></path>
      <path fill="#112e5b" d="m532.5182,440.52852l-132.79846-1.9389-65.20154,166.9389c-3,10-5,17.20801-5,26.5,0,26.23352,21.26648,47.5,47.5,47.5,19.034,0,35.44476-11.2002,43.02332-27.36542l93.14078-114.04226c20.41408-24.99516,28.21386-57.98297,21.15557-89.47381l-1.81967-8.11851Z"></path>
      <polygon fill="#f90065" points="347.208 244.192 354.975 253.64 361.522 253.64 371.614 240.595 359.111 235.377 347.208 244.192"></polygon>
      <polygon fill="#f2f2f2" points="345.518 214.529 359.111 235.377 343.518 263.529 331.518 224.529 345.518 214.529"></polygon>
      <polygon fill="#f2f2f2" points="374.319 263.529 359.111 235.377 394.518 206.529 402.335 213.785 374.319 263.529"></polygon>
      <path fill="#b8c2d8" d="m400.05591,213.89444c-8.17423,34.88437-40.48979,185.06605-11.02141,263.97412,0,0,2.61168,20.13916,30.4837.65995,27.87201-19.47921,93-39,117-27l-73-236-42.08942-1.71297-12.52938-4.65982c-3.77554-1.40416-7.92448.81675-8.84348,4.73871Z"></path>
      <path d="m401.70996,457.61328c-8.39453-52.09961,7.32324-163.59082,8.57227-172.26953l-16.87891-2.45801,20.88379-9.54639c-2.54785-30.69824.59082-46.63574,1.77539-52.65088.10449-.53516.19434-.98975.2627-1.36768l1.05078.18945c-.06934.38232-.15918.84277-.2666,1.38428-1.18066,5.99951-4.31934,21.93604-1.72656,52.72949l.03125.37451-18.27246,8.35303,14.35156,2.08984-.07812.5293c-.1748,1.18018-17.31836,118.67773-8.65039,172.47266l-1.05469.16992Z"></path>
      <path fill="#ff9996" d="m418.5182,361.52852s-36-5-51,9c0,0-31,9.65431-43,21s-40.65857,32.91209-40.65857,32.91209l49.65857,3.08791,35-6,54.20795-9.11392c34.79205-2.88608,31.79205-55.88608-4.20795-50.88608Z"></path>
      <path fill="#112e5b" d="m460.13038,639.4471c-30.60974-11.83313-182.48584-70.65155-216.61218-85.91858l-.03217.04565c-10.76202-8.77667-24.49786-14.04565-39.46783-14.04565-34.51782,0-62.5,27.98218-62.5,62.5,0,30.84656,22.35284,56.45575,51.74023,61.55811,40.91888,13.9917,132.06287,41.91724,259.25977,38.94189,17.6731,0,32-14.3269,32-32,0-15.04907-10.39099-27.66486-24.38782-31.08142Z"></path>
      <path fill="#112e5b" d="m424.44761,631.96374c-.01889-26.23351-21.30068-47.48467-47.53419-47.46578-18.51355.01333-34.53399,10.62344-42.35989,26.08343l-.12138-.05283-.81959,2.02458c-.50889,1.13232-.98066,2.2844-1.40138,3.4617l-83.55451,205.48869c-2.59967,5.00358-4.06498,10.63318-4.06069,16.58978.01491,20.71069,17.71175,37.48726,39.52699,37.47155,14.74768-.01062,27.5931-7.69828,34.36958-19.0734l.11673.04856,98.43339-199.08796c1.79265-2.81776,3.3044-5.83093,4.47777-9.01025l.00256-.00507-.00043-.00018c1.89377-5.13314,2.9292-10.68156,2.92503-16.47281Z"></path>
      <path fill="#b8c2d8" d="m336.25302,223.00404c-2.07693,19.77827-15.33093,153.41314-2.97702,231.82271,1.09097,6.92434-5.79418,12.38979-12.30409,9.79023-17.25258-6.88935-44.38116-15.23065-57.45371-6.08846l49-231,14-4,7.6101-2.28303c1.13388-.34016,2.24836.58121,2.12473,1.75855Z"></path>
      <polygon points="317.704 452.8 306.788 297.005 317.573 293.998 307.634 285.748 328.628 234.825 329.614 235.232 308.921 285.429 319.825 294.479 307.914 297.8 318.769 452.726 317.704 452.8"></polygon>
      <path fill="#ff9996" d="m263.01684 440.56383-9.97387.7949c-7.84777.62545-15.62074-1.90619-21.59488-7.03342l-8.09253-6.94532 31.60366-.85147 9.96071 6.15206c3.50825 2.16681 2.20733 7.55567-1.90309 7.88326ZM392.68053 417.46613l-66.20301 24.48817c-4.51722 1.6709-9.45471 1.83064-14.07049.45522l-24.88884-9.881 29.79571-1.53119 56.70937-18.45326 18.65725 4.92206Z"></path>
      <path fill="#ff9996" d="m304.01684,442.56383l-9.97387.7949c-7.84777.62545-15.62074-1.90619-21.59488-7.03342l-8.09253-6.94532,31.60366-.85147,9.96071,6.15206c3.50825,2.16681,2.20733,7.55567-1.90309,7.88326Z"></path>
      <path fill="#ff9996" d="m283.01684 440.56383-9.97387.7949c-7.84777.62545-15.62074-1.90619-21.59488-7.03342l-8.09253-6.94532 31.60366-.85147 9.96071 6.15206c3.50825 2.16681 2.20733 7.55567-1.90309 7.88326ZM402.23736 394.91127"></path>
      <path d="m250.74072,441.98438c-7.14795,0-14.1958-2.58154-19.64014-7.25391l-9.14307-7.84717,21.36914-.57568.02832,1.06738-18.60156.50146,7.04248,6.04346c5.82471,4.99951,13.55176,7.51758,21.20459,6.90674l9.97363-.79492.08496,1.06445-9.97363.79492c-.78125.06201-1.56396.09326-2.34473.09326Z"></path>
      <polygon fill="#b7b7b7" points="337.653 428.546 221.218 435.861 282.362 384.499 398.797 377.183 337.653 428.546"></polygon>
      <path d="m318.74902,443.8623c-2.19287,0-4.38623-.3125-6.49414-.94092l-24.93359-9.89697.39355-.99219,24.88916,9.88135c4.43213,1.31787,9.30713,1.15967,13.68799-.45996l42.25781-15.63086.37109,1.00098-42.25781,15.63086c-2.5332.93701-5.22363,1.40771-7.91406,1.40771Z"></path>
      <path d="m291.74072,443.98438c-7.14795,0-14.1958-2.58154-19.64014-7.25391l-8.09277-6.94531.69531-.81055,8.09277,6.94531c5.8252,4.99951,13.55957,7.52002,21.20459,6.90674l9.97363-.79492c1.26123-.10059,2.29639-.74121,2.91504-1.80322l.92285.53711c-.78809,1.35352-2.15625,2.20312-3.75293,2.33057l-9.97363.79492c-.78125.06201-1.56396.09326-2.34473.09326Z"></path>
      <path d="m270.74072,441.98438c-7.14795,0-14.1958-2.58154-19.64014-7.25391l-8.09277-6.94531.69531-.81055,8.09277,6.94531c5.82422,4.99902,13.54736,7.51709,21.20459,6.90674l6.5083-.51904.08496,1.06445-6.5083.51904c-.78125.06201-1.56396.09326-2.34473.09326Z"></path>
      <polygon fill="#b8c2d8" points="335.747 424.85 230.722 431.99 268.494 401.069 373.518 393.93 335.747 424.85"></polygon>
      <polygon fill="#b8c2d8" points="332.489 395.041 293.781 396.815 307.272 385.524 345.98 383.75 332.489 395.041"></polygon>
      <polygon points="314.046 385.562 313.99 384.495 332.99 383.495 333.047 384.562 314.046 385.562"></polygon>
      <polygon points="336.358 425.44 335.679 424.616 369.679 396.616 370.358 397.44 336.358 425.44"></polygon>
      <polygon fill="#e5e5e5" points="337.953 428.415 221.094 435.876 169.518 356.529 170.518 354.529 284.943 346.913 337.953 428.415"></polygon>
      <polygon fill="#4f4f4f" points="339.518 431.529 221.59 439.442 221.18 435.838 337.952 428.38 339.518 431.529"></polygon>
      <polygon fill="#4f4f4f" points="337.952 428.38 398.797 377.183 399.518 381.529 339.518 431.529 337.952 428.38"></polygon>
      <path d="M381.26733 181.29061c-.41919.57388-1.34921.23496-1.28174-.4725.31102-3.26084-.27378-6.55594 1.53261-9.28959 1.44108-2.18082 3.22699-6.62143 1-9-1.68378-1.79837-5.37836-1.10474-9-1-10.76526.31133-30.79906.55387-39-10-2.51157-3.23217-5.02598-10.84147-5.03306-14.93474s.97525-8.11612 1.95157-12.09126c8.37249 6.29932 18.25835 10.57269 28.58313 12.35564 6.6698 1.15179 13.64654 1.319 19.8093 4.1178 6.16276 2.7988 11.38565 9.35536 9.81735 15.93968 4.67819-1.23589 10.06081 1.21118 12.20516 5.54877 2.10197 4.25184-3.33345 12.06411-3.33345 12.06411-2.81193-1.87462-6.46299-3.06933-10-1-2.99855 1.7543-5.13479 4.86511-7.25088 7.76209ZM477.5182 811.52852s15 3 20-6l37-145c0-7-.10496-9.84767-8.45897-11.60898-1.03813-.21887-2.14997-.43088-3.34069-.63355 0 0-21.20034 115.32852-45.20034 163.24253Z"></path>
      <path fill="#ff9996" d="m381.5182,363.52852s-28.30642,9.79792-42.39394,14.65431c-12.60606,4.34569-.73503,9.97371,9.39394,12.34569,10.39394,2.43403,37.5163-11.73232,37.5163-11.73232l-4.5163-15.26768Z"></path>
      <path fill="#56576b" d="m142.42232,816.88802s6.09589-19.3595,65.09589-.3595c13.70491,4.41344,38.92221,8.74109,39,9,9.72239,32.35965,45.65521,34.01624,64,28,5.4458-1.78595,8,3,8,3l-10,41c-60.68137-10.59198-117.88556-34.28741-166.09589-80.6405Z"></path>
      <path d="m140.60972,834.84287c-5.09152-14.31435,6.90848-35.31435,26.4791-16.78185,13.24405,12.54152,26.83847,24.57694,41.29697,35.67023,23.52766,18.0516,53.48552,25.83028,82.98591,29.916,4.78039.66207,9.85731,1.35674,13.56876,4.40618,3.71145,3.04943,4.59945,8.7424,1.57774,12.47509-17,21-60,1-66.82542-2.76326-25.02408-13.79725-34.17458-17.23674-60.02369-27.48101-15.4081-6.10639-33.02936-18.48856-39.05937-35.44138Z"></path>
      <path fill="#56576b" d="m446.5182,702.52852s20,78,21,93c.77859,11.67878,6,19.24865,17,15,9.33204-3.60442,33.77837-117.30342,40.97751-151.70144,1.1201-5.35193,2.60286-9.56484-2.77717-10.54109l-63.20034-8.75747s32,33-13,63Z"></path>
      <path fill="#b8c2d8" d="m312.5182,227.52852s-130,50-147.59546,67.80396c-16.08298,16.27355,3.87701,45.10785,25.19269,52.39581,12.56543,4.2962,25.81073,2.00934,36.08649-5.02313l79.31628-39.17664,7-76Z"></path>
      <polygon fill="#f2f2f2" points="80.518 235.529 134.338 204.764 147.629 220.146 98.518 256.529 80.518 235.529"></polygon>
      <path fill="#b8c2d8" d="m216.92097,269.32869c-1.94305-.66431-69.29211-55.54333-69.29211-55.54333l-59.11066,39.74316,83.33832,81.44427c4.62482,5.7074,10.82977,10.21545,18.25891,12.75549,21.31567,7.28796,44.59607-4.35431,51.99823-26.00378,7.4021-21.64941-3.87701-45.10785-25.19269-52.39581Z"></path>
      <path d="m216.74854,269.83398c-.35596-.12158-1.4375-.49121-42.86963-34.04199l.67188-.83008c35.56201,28.79736,41.93018,33.58057,42.56104,33.86865l-.36328,1.00342Z"></path>
      <path fill="#b8c2d8" d="m434.5182,273.52852c1,1-22-45,11-55,33-10,44,1,58,23s68.61625,110.51612,68.61625,110.51612c0,0,20.38375,37.48388-22.61625,49.48388-39.03025,10.89216-54-30-54-30l-61-98Z"></path>
      <polygon points="486.985 358.831 434.065 273.811 434.972 273.246 487.892 358.266 486.985 358.831"></polygon>
      <polygon fill="#f2f2f2" points="399.518 357.529 413.518 417.529 441.518 411.529 420.76 353.811 399.518 357.529"></polygon>
      <path fill="#b8c2d8" d="m412.88669,355.14594l12.63151,62.38258,119.41712-15.40866c3.6473-.47062,7.17364-1.60973,10.38611-3.39979,9.23537-5.14614,25.52243-17.41228,18.19677-37.19155-10-27-27.50682-27.71128-42.25341-25.85564s-118.3781,19.47306-118.3781,19.47306Z"></path>
      <polygon points="343.377 264.885 334.477 235.959 335.497 235.645 343.66 262.172 358.487 235.399 348.257 219.707 349.151 219.124 359.733 235.354 343.377 264.885"></polygon>
      <polygon points="374.309 264.633 358.641 235.631 359.58 235.123 374.328 262.423 388.569 237.138 389.499 237.663 374.309 264.633"></polygon>
      <path d="m412.97656 355.67236-.08594-.50586-.51758.13232-.11621-.54492.54004-.13428 7.86914-1.33447c18.84473-3.19238 65.57031-11.08008 92.49316-15.39453l.16895 1.05469c-26.91895 4.31299-73.64062 12.20068-92.47949 15.3916l-7.87207 1.33545ZM195.64258 277.70654l-.46973-.95898c43.50342-21.3374 116.42187-49.43604 117.15381-49.71729l.38281.99609c-.73096.28125-73.60596 28.36377-117.06689 49.68018ZM351.27832 391.34229c-1.05273 0-2.02051-.09229-2.88184-.29395-6.91797-1.62012-15.06348-4.81299-15.25098-8.47998-.09766-1.91064 1.80176-3.51025 5.80469-4.89062 5.17676-1.78418 12.27246-4.23535 19.17773-6.62256l.34961 1.00879c-6.90723 2.38721-14.00293 4.83936-19.17969 6.62354-3.39551 1.17041-5.15332 2.49365-5.08594 3.82617.13965 2.73535 7.36426 5.84082 14.42871 7.49463 10.08594 2.37061 36.87695-11.54395 37.14648-11.68506l.49414.94629c-1.02246.53418-23.26074 12.07227-35.00293 12.07275Z"></path>
      <polygon points="288.98 341.067 287.936 340.845 307.755 247.409 308.8 247.631 288.98 341.067"></polygon>
      <polygon points="450.587 415.058 450.45 413.999 549.857 401.172 549.994 402.231 450.587 415.058"></polygon>
      <polygon points="319.517 648.221 318.521 647.836 377.521 494.836 378.517 495.221 319.517 648.221"></polygon>
      <polygon points="333.821 590.525 255.821 559.525 256.215 558.533 334.216 589.533 333.821 590.525"></polygon>
      <ellipse cx="250.005" cy="395.004" fill="#fff" rx="8.969" ry="11.636" transform="rotate(-41.213 250.005 395.004)"></ellipse>
      <polygon points="324.572 408.321 284.572 347.321 285.464 346.735 325.465 407.735 324.572 408.321"></polygon>
      <polygon fill="#ffcc83" points="76.328 175.732 .603 100.338 108.586 .578 184.311 75.972 76.328 175.732"></polygon>
      <path d="m76.31689,176.31055L0,100.32715,108.59717,0l76.31689,75.98291-108.59717,100.32764ZM1.20605,100.34961l75.13232,74.80469,107.36963-99.19385L108.57568,1.15625,1.20605,100.34961Z"></path>
      <path d="m161.29595,59.42544l-34.3793-34.22917c-1.75145-1.7438-1.7912-5.3422-.07652-6.92631l1.40736-1.30019c1.00091-.92469,2.33176-.86338,3.35413.15453l34.3793,34.22917c1.75145,1.7438,1.7912,5.3422.07652,6.92631l-1.40736,1.30019c-1.00091.92469-2.33176.86338-3.35413-.15453Z"></path>
      <polygon fill="#fff" points="77.992 166.695 10.082 99.081 106.922 9.615 174.832 77.229 77.992 166.695"></polygon>
      <path d="m77.98242,167.21338L9.5415,99.0708,106.93164,9.09668l68.44141,68.14258-97.39062,89.97412ZM10.62256,99.09131l67.37939,67.08496,96.29004-88.95752L106.91211,10.13379,10.62256,99.09131Z"></path>
      <polygon fill="#f90065" points="96.539 100.504 94.288 87.983 68.369 99.818 65.561 81.088 44.041 89.818 43.303 87.999 67.132 78.333 69.923 96.95 95.772 85.147 98.079 97.98 133.648 87.083 138.888 96.79 137.16 97.722 132.685 89.43 96.539 100.504"></polygon>
      <polygon points="91.453 147.466 33.982 90.246 34.235 90.013 92.671 36.026 93.119 36.51 34.935 90.264 91.918 146.998 91.453 147.466"></polygon>
      <path fill="#ff9996" d="m91.5182,161.52852l-8.46443-32.31874c-1.58891-6.06673-.11436-12.52709,3.94947-17.30361h.00001c2.06767-2.4303,5.96478-1.88343,7.27448,1.02625,5.67034,12.59743,18.80674,39.5961,27.24047,39.5961l-30,9Z"></path>
      <path d="m121.51807,153.06201c-8.49365,0-21.01758-25.00488-27.72705-39.91016-.53857-1.19678-1.63623-2.021-2.93652-2.20557-1.30371-.18604-2.59131.30322-3.44434,1.30566-3.94824,4.64014-5.3833,10.9292-3.83984,16.82275l4.73975,18.09766-1.0332.27051-4.73975-18.09766c-1.63184-6.23096-.11426-12.87939,4.05957-17.78516,1.09229-1.28271,2.74268-1.90723,4.40771-1.6709s3.0708,1.29199,3.76025,2.82422c15.95898,35.45361,24.02588,39.28125,26.75342,39.28125v1.06738Z"></path>
    </symbol>
  </defs>
  <use xlink:href="#a" width="654.291" height="559.725" transform="translate(175 141.55)scale(1.37095)"></use>
  <use xlink:href="#b" width="576.962" height="909.982" transform="translate(291 45)"></use>
  <use xlink:href="#c" width="177.374" height="242.907" transform="rotate(-19.542 968.324 -2446.86)scale(.78365)"></use>
  <use xlink:href="#d" width="213.199" height="235.043" transform="rotate(35.637 -372.907 1861.595)scale(.86626)"></use>
  <use xlink:href="#e" width="189.607" height="245.722" transform="rotate(-14.339 1763.437 -381.785)scale(.90403)"></use>
</svg>
