<svg xmlns="http://www.w3.org/2000/svg" width="3000" height="3000" fill="none" viewBox="0 0 3000 3000" id="employee-have-many-new-ideas">
  <path fill="#FFC5A6" d="M1280.68 1553.55C1264.86 1576.93 1230.7 1575.41 1202.87 1571.01C1146.8 1562.28 1090.9 1552.44 1035.23 1541.66C1022.11 1539.08 1007.7 1535.68 999.785 1524.84C993.398 1516.17 992.812 1504.63 992.402 1493.9C990.41 1435.72 988.418 1377.48 986.426 1319.29C985.723 1299.49 985.02 1279.69 984.375 1259.88C1061.72 1225.84 1151.78 1209.9 1242.48 1204.33C1247.34 1204.04 1252.73 1203.92 1256.6 1206.97C1260.82 1210.31 1261.58 1216.35 1262.05 1221.68C1267.27 1279.39 1272.48 1337.05 1277.75 1394.82C1281.04 1431.09 1284.32 1467.3 1287.6 1503.57C1289.12 1520.62 1290.23 1539.31 1280.68 1553.55Z"></path>
  <path fill="#FF9F6B" d="M1277.75 1394.71C1276.46 1394.94 1275.23 1395.12 1274 1395.29 1194.14 1406.72 1067.64 1403.26 985.84 1301.72 985.137 1281.91 985.078 1279.57 984.375 1259.77 1061.72 1225.72 1151.78 1209.78 1242.48 1204.22 1247.34 1203.93 1252.73 1203.81 1256.6 1206.86 1260.82 1210.2 1261.58 1216.23 1262.05 1221.56 1267.27 1279.34 1272.48 1336.99 1277.75 1394.71ZM917.284 1039.39C898.241 1044.78 885.116 1062.07 875.565 1079.41 871.288 1087.2 867.362 1095.35 865.78 1104.08 860.565 1132.91 882.303 1161.21 909.022 1173.1 935.741 1185.06 966.21 1184.35 995.448 1182.95 1093.59 1178.26 1191.44 1167.71 1288.36 1151.36 1301.13 1149.2 1314.08 1146.91 1325.68 1141.17 1359.49 1124.47 1373.49 1077.71 1355.98 1044.31 1343.49 1020.52 1318.65 1005.17 1292.75 998.2 1266.85 991.227 1239.55 991.637 1212.71 992.399 1113.05 995.387 1014.78 1011.68 917.284 1039.39Z"></path>
  <path fill="#FFC5A6" d="M920.8 1012.55C917.812 1063.76 919.394 1115.27 925.487 1166.24C931.112 1213.12 942.363 1262.98 977.343 1294.8C987.714 1304.23 999.784 1311.62 1012.32 1317.94C1088.2 1355.85 1183.94 1350.35 1255.02 1304C1262.64 1299.02 1269.96 1293.63 1276.46 1287.3C1296.33 1267.9 1306.99 1240.66 1311.27 1213.24C1315.55 1185.81 1313.85 1157.87 1312.21 1130.15C1309.57 1086.38 1306.93 1042.55 1301.72 999.018C1300.37 987.709 1298.73 976.049 1293.22 966.088C1284.32 950.034 1266.85 940.834 1249.92 933.686C1203.69 914.116 1153.07 902.807 1103.2 908.373C1078.65 911.127 1054.69 917.924 1030.9 924.721C1014.49 929.409 997.909 934.155 983.32 942.944C966.913 952.788 953.905 967.202 941.132 981.44C932.812 990.581 921.503 1000.31 920.8 1012.55Z"></path>
  <path fill="#203752" d="M1310.21 1099.57C1306.17 1094.88 1304 1088.9 1302.07 1082.99C1288.83 1043.38 1280.39 1002.18 1277.11 960.524C1249.75 980.973 1216.11 994.802 1181.43 1001.66C1146.74 1008.51 1110.94 1008.51 1075.78 1004.7C1063.94 1003.41 1052.11 1001.66 1040.86 997.848C1020.94 991.11 1003.59 978.278 987.773 964.391C983.261 1022.87 958.71 1080.64 919.921 1126.58C888.105 1108.12 871.171 1071.56 863.671 1035.58C855.292 995.446 856.464 952.966 869.765 914.177C883.066 875.387 908.847 840.524 943.535 818.727C957.656 809.88 973.828 803.083 990.703 806.95C1009.86 772.848 1049.71 756.618 1087.26 745.895C1130.98 733.415 1272.3 722.223 1344.2 820.134C1378.65 867.126 1371.85 935.915 1364.18 973.942C1355.27 1019.12 1339.45 1064.18 1310.21 1099.57Z"></path>
  <path fill="#203752" d="M994.278 1036.11C1023.81 1023.93 1057.15 1022.99 1087.5 1032.71 1094.71 1035 1097.7 1023.69 1090.55 1021.41 1057.03 1010.68 1020.88 1012.62 988.419 1025.98 985.489 1027.21 984.844 1031.48 986.251 1034 988.008 1037.05 991.348 1037.34 994.278 1036.11ZM1152.66 1033.83C1184.3 1023.05 1218.46 1023.4 1249.86 1034.71 1256.95 1037.29 1259.94 1025.92 1252.91 1023.4 1219.8 1011.45 1183.01 1011.15 1149.73 1022.52 1142.58 1024.92 1145.51 1036.23 1152.66 1033.83ZM1036.81 1067.93C1036.46 1067.99 1036.17 1068.05 1035.88 1068.16 1035.12 1068.46 1034.29 1068.75 1033.59 1069.16 1032.13 1070.1 1031.13 1071.09 1030.19 1072.5 1030.02 1072.79 1029.84 1073.03 1029.72 1073.32 1029.43 1074.02 1029.02 1074.79 1028.9 1075.55 1028.55 1077.19 1028.55 1078.65 1028.9 1080.23 1029.55 1082.93 1031.37 1085.27 1033.71 1086.74 1035.12 1087.62 1036.64 1087.91 1038.28 1088.09 1038.69 1088.14 1039.04 1088.14 1039.45 1088.09 1040.33 1088.03 1041.21 1087.91 1042.03 1087.68 1047.01 1086.21 1051.05 1081.76 1051.11 1076.43 1051.17 1073.67 1049.94 1070.92 1048.01 1068.98 1046.19 1067.17 1043.44 1065.88 1040.8 1066.11 1039.22 1066.23 1038.51 1066.41 1037.11 1067.11 1036.58 1067.34 1036.17 1067.7 1035.76 1068.05 1034.71 1068.87 1033.77 1069.86 1033.18 1071.09 1032.83 1071.74 1032.54 1072.5 1032.36 1073.26 1032.19 1073.97 1032.07 1074.79 1032.07 1075.55 1032.07 1076.31 1032.19 1077.13 1032.42 1077.83 1032.65 1078.54 1032.95 1079.41 1033.42 1080.06 1033.77 1080.76 1034.29 1081.35 1035 1081.76 1035.58 1082.29 1036.23 1082.64 1036.99 1082.81 1038.4 1083.16 1040.21 1082.99 1041.44 1082.23 1042.73 1081.41 1043.85 1080.18 1044.2 1078.65 1044.49 1077.25 1044.55 1075.43 1043.61 1074.2 1043.44 1074.02 1043.32 1073.79 1043.26 1073.55 1043.44 1074.02 1043.67 1074.55 1043.85 1075.02 1043.79 1074.84 1043.73 1074.61 1043.67 1074.43 1043.73 1074.96 1043.79 1075.43 1043.85 1075.96 1043.79 1075.66 1043.85 1075.37 1043.85 1075.14 1043.79 1075.61 1043.73 1076.13 1043.67 1076.6 1043.73 1076.31 1043.79 1076.02 1043.9 1075.78 1043.73 1076.25 1043.55 1076.72 1043.32 1077.19 1043.44 1076.89 1043.61 1076.6 1043.85 1076.31 1043.55 1076.72 1043.26 1077.13 1042.91 1077.54 1043.08 1077.3 1043.32 1077.07 1043.55 1076.89 1043.14 1077.19 1042.73 1077.54 1042.32 1077.83 1042.56 1077.66 1042.79 1077.48 1043.08 1077.36 1042.62 1077.54 1042.09 1077.77 1041.62 1077.95 1041.85 1077.83 1042.09 1077.77 1042.32 1077.77 1041.79 1077.83 1041.33 1077.89 1040.8 1077.95 1041.09 1077.89 1041.38 1077.95 1041.68 1077.95 1041.21 1077.89 1040.68 1077.83 1040.21 1077.77 1040.51 1077.83 1040.8 1077.89 1041.03 1078.01 1040.56 1077.83 1040.1 1077.66 1039.63 1077.42 1039.92 1077.54 1040.21 1077.72 1040.51 1077.95 1040.1 1077.66 1039.69 1077.36 1039.28 1077.01 1039.63 1077.3 1039.92 1077.6 1040.21 1077.95 1039.92 1077.54 1039.57 1077.13 1039.28 1076.72 1039.51 1077.07 1039.69 1077.36 1039.86 1077.77 1039.69 1077.3 1039.45 1076.78 1039.28 1076.31 1039.45 1076.66 1039.51 1077.07 1039.57 1077.48 1039.51 1076.95 1039.45 1076.48 1039.39 1075.96 1039.45 1076.31 1039.39 1076.66 1039.39 1077.01 1039.45 1076.54 1039.51 1076.02 1039.57 1075.55 1039.51 1076.02 1039.39 1076.43 1039.22 1076.89 1039.39 1076.43 1039.57 1075.96 1039.8 1075.49 1039.57 1075.96 1039.33 1076.43 1039.04 1076.84 1039.33 1076.43 1039.63 1076.02 1039.98 1075.61 1039.63 1076.07 1039.22 1076.48 1038.75 1076.84 1039.16 1076.54 1039.57 1076.19 1039.98 1075.9 1039.45 1076.31 1038.92 1076.6 1038.28 1076.89 1038.75 1076.72 1039.28 1076.48 1039.74 1076.31 1039.22 1076.48 1038.69 1076.66 1038.16 1076.72 1038.69 1076.66 1039.16 1076.6 1039.69 1076.54 1039.28 1076.6 1038.87 1076.6 1038.4 1076.54 1038.87 1076.6 1039.39 1076.66 1039.86 1076.72 1039.45 1076.66 1039.1 1076.54 1038.69 1076.43 1039.16 1076.6 1039.63 1076.78 1040.1 1077.01 1039.74 1076.89 1039.45 1076.72 1039.16 1076.48 1039.57 1076.78 1039.98 1077.07 1040.39 1077.42 1040.1 1077.19 1039.8 1076.89 1039.51 1076.6 1039.8 1077.01 1040.15 1077.42 1040.45 1077.83 1040.21 1077.48 1039.98 1077.19 1039.86 1076.78 1040.04 1077.25 1040.27 1077.77 1040.45 1078.24 1040.27 1077.89 1040.21 1077.48 1040.15 1077.07 1040.21 1077.6 1040.27 1078.07 1040.33 1078.59 1040.27 1078.24 1040.27 1077.89 1040.33 1077.54 1040.27 1078.01 1040.21 1078.54 1040.15 1079 1040.21 1078.65 1040.33 1078.3 1040.45 1078.01 1040.27 1078.48 1040.1 1078.95 1039.86 1079.41 1039.98 1079.06 1040.15 1078.77 1040.39 1078.48 1040.1 1078.89 1039.8 1079.3 1039.45 1079.71 1039.74 1079.36 1040.04 1079 1040.39 1078.77 1039.98 1079.06 1039.57 1079.41 1039.16 1079.71 1039.51 1079.47 1039.8 1079.3 1040.21 1079.12 1039.74 1079.3 1039.22 1079.53 1038.75 1079.71 1039.1 1079.59 1039.39 1079.47 1039.74 1079.47 1040.56 1079.3 1041.21 1078.95 1041.79 1078.42 1042.44 1078.01 1042.97 1077.42 1043.32 1076.72 1044.02 1075.49 1044.31 1073.73 1043.9 1072.32 1043.44 1070.86 1042.56 1069.45 1041.15 1068.69 1040.68 1068.52 1040.21 1068.34 1039.74 1068.11 1038.81 1067.7 1037.81 1067.7 1036.81 1067.93ZM1201.46 1063.01C1200.76 1063.12 1200.06 1063.3 1199.41 1063.59 1198.65 1063.89 1197.83 1064.18 1197.13 1064.59 1196.42 1065 1195.78 1065.53 1195.14 1066.05 1194.26 1066.76 1193.5 1067.69 1193.03 1068.69 1192.32 1070.1 1191.85 1071.68 1191.97 1073.26 1192.03 1073.96 1192.09 1074.9 1192.38 1075.61 1192.67 1076.37 1192.91 1077.19 1193.38 1077.83 1194.32 1079.36 1195.31 1080.29 1196.78 1081.29 1197.07 1081.46 1197.36 1081.64 1197.66 1081.76 1198.36 1082.05 1199.12 1082.4 1199.88 1082.58 1201.52 1082.87 1203.05 1082.93 1204.69 1082.46 1205.51 1082.23 1206.27 1081.87 1207.03 1081.52 1207.32 1081.35 1207.67 1081.17 1207.91 1080.94 1208.55 1080.47 1209.26 1080 1209.78 1079.41 1210.37 1078.83 1210.9 1078.07 1211.37 1077.42 1212.07 1076.48 1212.48 1075.31 1212.89 1074.2 1213.01 1073.91 1213.07 1073.55 1213.12 1073.2 1213.24 1072.38 1213.42 1071.56 1213.42 1070.68 1213.36 1069.04 1213.01 1067.4 1212.19 1065.94 1211.78 1065.23 1211.31 1064.59 1210.72 1064.06 1210.14 1063.53 1209.49 1063.01 1208.73 1062.66 1207.44 1062.07 1206.68 1061.84 1205.27 1061.72 1204.51 1061.66 1203.69 1061.78 1202.93 1061.95 1202.4 1062.07 1201.93 1062.3 1201.41 1062.48 1200.82 1062.71 1200.29 1062.89 1199.82 1063.24 1198.42 1064.24 1197.19 1065.35 1196.31 1066.87 1195.49 1068.4 1195.14 1069.92 1195.02 1071.62 1194.96 1072.44 1195.14 1073.26 1195.25 1074.02 1195.37 1074.61 1195.55 1075.14 1195.78 1075.72 1196.25 1076.84 1196.6 1077.48 1197.48 1078.42 1197.6 1078.53 1197.71 1078.65 1197.83 1078.77 1198.3 1079.18 1198.89 1079.65 1199.41 1079.94 1200.7 1080.64 1202.34 1080.88 1203.81 1080.53 1205.21 1080.18 1206.74 1079.06 1207.44 1077.77 1208.14 1076.43 1208.5 1074.84 1208.03 1073.38 1207.56 1071.86 1206.68 1070.57 1205.27 1069.75 1205.16 1069.69 1204.98 1069.57 1204.86 1069.51 1205.27 1069.8 1205.68 1070.1 1206.09 1070.45 1205.92 1070.33 1205.8 1070.21 1205.68 1070.04 1205.98 1070.45 1206.33 1070.86 1206.62 1071.27 1206.44 1071.03 1206.33 1070.86 1206.21 1070.57 1206.39 1071.03 1206.62 1071.56 1206.8 1072.03 1206.68 1071.68 1206.56 1071.39 1206.5 1071.03 1206.56 1071.56 1206.62 1072.03 1206.68 1072.56 1206.62 1072.21 1206.62 1071.86 1206.68 1071.44 1206.62 1071.91 1206.56 1072.44 1206.5 1072.91 1206.56 1072.5 1206.68 1072.09 1206.8 1071.74 1206.62 1072.21 1206.44 1072.68 1206.21 1073.14 1206.39 1072.79 1206.56 1072.5 1206.74 1072.21 1206.44 1072.62 1206.15 1073.03 1205.8 1073.44 1206.03 1073.09 1206.33 1072.79 1206.68 1072.56 1206.27 1072.85 1205.86 1073.2 1205.45 1073.5 1205.74 1073.26 1206.09 1073.09 1206.39 1072.97 1205.92 1073.14 1205.39 1073.38 1204.92 1073.55 1205.21 1073.44 1205.51 1073.32 1205.86 1073.32 1205.33 1073.38 1204.86 1073.44 1204.33 1073.5 1204.63 1073.44 1204.86 1073.44 1205.16 1073.5 1204.69 1073.44 1204.16 1073.38 1203.69 1073.32 1203.87 1073.38 1204.04 1073.38 1204.22 1073.44 1203.75 1073.26 1203.28 1073.09 1202.81 1072.85 1203.05 1072.97 1203.22 1073.09 1203.4 1073.2 1202.99 1072.91 1202.58 1072.62 1202.17 1072.27 1202.34 1072.38 1202.46 1072.56 1202.64 1072.73 1202.34 1072.32 1201.99 1071.91 1201.7 1071.5 1201.87 1071.74 1201.99 1071.91 1202.05 1072.15 1201.87 1071.68 1201.64 1071.15 1201.46 1070.68 1201.58 1071.03 1201.7 1071.33 1201.7 1071.68 1201.64 1071.15 1201.58 1070.68 1201.52 1070.16 1201.58 1070.57 1201.58 1070.98 1201.52 1071.39 1201.58 1070.92 1201.64 1070.39 1201.7 1069.92 1201.64 1070.45 1201.46 1070.98 1201.29 1071.5 1201.46 1071.03 1201.64 1070.57 1201.87 1070.1 1201.64 1070.62 1201.35 1071.15 1201 1071.62 1201.29 1071.21 1201.58 1070.8 1201.93 1070.39 1201.58 1070.86 1201.17 1071.27 1200.7 1071.62 1201.11 1071.33 1201.52 1070.98 1201.93 1070.68 1201.52 1070.98 1201.11 1071.21 1200.64 1071.39 1201.11 1071.21 1201.64 1070.98 1202.11 1070.8 1201.76 1070.92 1201.35 1071.03 1200.94 1071.09 1201.46 1071.03 1201.93 1070.98 1202.46 1070.92 1202.11 1070.98 1201.76 1070.98 1201.41 1070.92 1201.87 1070.98 1202.4 1071.03 1202.87 1071.09 1202.52 1071.03 1202.23 1070.98 1201.87 1070.86 1202.34 1071.03 1202.81 1071.21 1203.28 1071.44 1202.93 1071.27 1202.58 1071.09 1202.28 1070.86 1202.69 1071.15 1203.1 1071.44 1203.51 1071.8 1203.16 1071.56 1202.87 1071.27 1202.58 1070.92 1202.87 1071.33 1203.22 1071.74 1203.51 1072.15 1203.28 1071.86 1203.1 1071.5 1202.93 1071.15 1203.1 1071.62 1203.34 1072.15 1203.51 1072.62 1203.4 1072.32 1203.34 1071.97 1203.28 1071.68 1203.34 1072.21 1203.4 1072.68 1203.46 1073.2 1203.46 1072.97 1203.46 1072.73 1203.46 1072.44 1203.4 1072.91 1203.34 1073.44 1203.28 1073.91 1203.34 1073.61 1203.4 1073.32 1203.51 1073.03 1203.34 1073.5 1203.16 1073.96 1202.93 1074.43 1203.05 1074.14 1203.22 1073.91 1203.4 1073.67 1203.1 1074.08 1202.81 1074.49 1202.46 1074.9 1202.69 1074.61 1202.99 1074.32 1203.28 1074.08 1202.87 1074.37 1202.46 1074.73 1202.05 1075.02 1202.52 1074.67 1202.99 1074.43 1203.51 1074.2 1203.05 1074.37 1202.52 1074.61 1202.05 1074.78 1202.75 1074.49 1203.46 1074.32 1204.22 1074.14 1205.04 1073.96 1205.68 1073.61 1206.27 1073.09 1206.91 1072.68 1207.44 1072.09 1207.79 1071.39 1208.5 1070.16 1208.79 1068.4 1208.38 1066.99 1207.91 1065.53 1207.03 1064.12 1205.62 1063.36 1205.16 1063.18 1204.69 1063.01 1204.22 1062.77 1203.46 1062.77 1202.46 1062.77 1201.46 1063.01ZM1073.14 1228.88C1116.03 1245.46 1165.02 1227.48 1187.58 1187.69 1191.27 1181.13 1181.13 1175.33 1177.38 1181.89 1157.17 1217.51 1114.22 1232.28 1076.13 1217.57 1069.16 1214.88 1066.17 1226.19 1073.14 1228.88Z"></path>
  <path fill="#FFC5A6" d="M2304.61 1461.03C2315.51 1458.22 2327.46 1465.42 2331.79 1475.8C2336.13 1486.17 2333.55 1498.59 2326.93 1507.67C2359.1 1526.42 2392.03 1554.96 2396.54 1593.74C2401.81 1639.1 2366.72 1677.94 2335.13 1710.87C2273.14 1775.56 2214.96 1844 2159.35 1914.14C2141.48 1895.09 2124.84 1874.94 2109.55 1853.73C2102.99 1844.64 2096.6 1835.21 2093.02 1824.55C2086.81 1806.03 2089.68 1785.81 2092.73 1766.54C2094.67 1754.29 2096.66 1742.05 2100.7 1730.33C2106.85 1712.51 2117.58 1696.75 2127.48 1680.76C2155.08 1636.17 2177.46 1588.3 2193.86 1538.49C2198.26 1525.19 2202.3 1511.54 2210.39 1500.11C2219.47 1487.16 2233.47 1477.79 2250.52 1473.22C2252.81 1435.66 2259.31 1398.39 2269.8 1362.3C2272.61 1352.63 2276.77 1341.85 2286.15 1338.16C2288.49 1337.22 2291.25 1336.81 2293.59 1337.81C2296.52 1339.04 2298.22 1342.08 2299.39 1345.01C2302.5 1352.75 2303.43 1361.13 2304.2 1369.45C2306.89 1399.39 2307.48 1429.45 2304.61 1461.03Z"></path>
  <path fill="#31DECD" d="M1510.6 2483.5C1412.23 2495.45 1267.32 2495.68 1168.36 2489.94C1164.14 2516.72 1180.66 2535.29 1199.82 2570.22C1060.37 2580.35 920.156 2588.15 780.468 2590.72C718.476 2591.9 656.308 2592.31 594.785 2584.98C540.468 2578.54 484.277 2564.65 443.964 2527.68C397.324 2484.79 380.39 2418.69 373.535 2355.7C368.027 2304.79 367.617 2253.4 367.792 2202.19C368.203 2107.27 370.781 2011.82 388.769 1918.59C406.757 1825.37 440.8 1733.85 498.925 1658.79C528.808 1620.18 564.785 1586.31 605.097 1558.83C728.027 1474.98 884.003 1454.53 1041.39 1461.86C1113.98 1498.89 1205.51 1495.84 1272.71 1454.53C1395.53 1440.29 1523.67 1481.78 1614.84 1565.27C1692.01 1635.94 1741 1731.86 1809.73 1810.78C1827.77 1831.47 1849.04 1851.97 1876.05 1856.54C1915.9 1863.22 1952.05 1833.46 1979.47 1803.69C2013.52 1766.78 2043.98 1726.58 2068.77 1687.79C2150.57 1712.75 2230.31 1760.57 2293.07 1827.95C2230.78 1930.72 2151.97 2023.42 2060.68 2101.52C2000.92 2152.62 1930.37 2199.26 1851.74 2199.61C1790.98 2199.84 1733.96 2172.36 1679.71 2145C1628.5 2119.16 1577.34 2092.85 1532.05 2058.69C1532.81 2183.5 1537.27 2308.3 1546.99 2439.26C1548.63 2461.23 1532.58 2480.8 1510.6 2483.5Z"></path>
  <path fill="#1B81A6" d="M1242.07 2431.88C1226.89 2220.41 1174.34 1741.53 1165.37 1617.31C1177.38 1587.48 1195.25 1564.34 1216.76 1545.3C1212.25 1526.49 1200 1510.02 1185.29 1496.08C1165.31 1492.74 1147.97 1491.51 1130.62 1491.33C1115.86 1491.16 1099.86 1492.15 1088.44 1501.47C1081.17 1507.44 1076.66 1516.06 1072.91 1524.73C1067.64 1536.98 1063.53 1549.75 1060.6 1562.76C1071.5 1580.86 1083.93 1598.09 1099.45 1614.38C1083.81 1874.12 1061.95 2133.46 1037.87 2390.51C1112.99 2408.32 1159.98 2418.28 1242.07 2431.88Z"></path>
  <path fill="#FFC5A6" d="M1330.49 2376.97C1465.31 2376.97 1557.24 2436.97 1594.39 2530.37C1609.86 2569.28 1468.71 2553.63 1396.93 2563.3C1366.99 2567.34 1336.52 2564.18 1306.46 2561.01C1256.72 2555.8 1206.91 2550.53 1157.17 2545.31C1153.53 2544.96 1149.9 2544.55 1146.44 2543.44C1126.93 2537.23 1121.19 2512.67 1120.19 2492.23C1119.43 2477.46 1119.43 2462.64 1120.19 2447.87C1120.72 2437.44 1121.72 2426.66 1126.87 2417.58C1139.18 2395.84 1227.83 2376.97 1330.49 2376.97Z"></path>
  <path fill="#31DECD" d="M1320.64 1446.92C1298.32 1506.63 1254.78 1568.62 1215.06 1618.48 1191.97 1573.31 1170.17 1528.54 1131.79 1500.65 1098.69 1526.49 1071.68 1566.33 1058.38 1610.46 1000.49 1570.03 953.787 1520.87 917.107 1465.03 933.455 1435.55 954.958 1410.3 979.158 1386.98 1026.56 1427.64 1075.08 1458.64 1133.08 1480.03 1183.12 1454.07 1238.26 1428.11 1286.07 1398.58 1302.48 1414.87 1314.49 1428.23 1320.64 1446.92ZM831.386 2311.18C831.386 2311.18 1096.64 2308.31 1222.26 2337.72 1222.26 2337.72 1232.23 2467.74 1199.88 2570.22L784.218 2511.51 831.386 2311.18Z"></path>
  <path fill="#203752" d="M599.002 2307.48C761.306 2295.76 924.783 2300.56 1086.09 2322.13 1131.79 2328.22 1177.32 2335.78 1222.61 2344.57 1221.15 2342.69 1219.74 2340.76 1218.28 2338.88 1221.21 2416.52 1213.36 2493.45 1194.2 2568.75 1192.32 2576.07 1203.63 2579.12 1205.51 2571.79 1224.96 2495.62 1232.99 2417.58 1230 2339 1229.88 2336.54 1228.24 2333.79 1225.66 2333.32 1065.41 2302.26 901.99 2287.56 738.748 2289.78 692.107 2290.43 645.525 2292.48 599.002 2295.82 591.56 2296.29 591.443 2308 599.002 2307.48ZM920.861 1475.86C964.806 1520.75 1008.81 1565.63 1052.76 1610.51 1055.39 1613.21 1060.14 1612.5 1061.95 1609.22 1082.17 1572.37 1105.96 1537.68 1133.2 1505.63 1130.86 1505.98 1128.46 1506.27 1126.11 1506.62 1165.49 1526.25 1186.35 1567.62 1200.41 1607.35 1201.88 1611.45 1206.92 1613.38 1210.26 1609.98 1253.38 1566.51 1295.45 1520.39 1320.24 1463.62 1323.22 1456.76 1313.09 1450.9 1310.04 1457.82 1285.67 1513.77 1244.36 1558.95 1201.94 1601.78 1205.22 1602.66 1208.5 1603.54 1211.78 1604.42 1196.66 1561.82 1174.16 1517.52 1131.92 1496.49 1129.75 1495.37 1126.58 1495.43 1124.83 1497.48 1096.99 1530.3 1072.44 1565.75 1051.76 1603.48 1054.81 1603.07 1057.91 1602.66 1060.96 1602.19 1017.01 1557.31 973.009 1512.42 929.064 1467.54 923.791 1462.09 915.588 1470.47 920.861 1475.86Z"></path>
  <path fill="#203752" d="M1075.61 1592.88C1080.35 1597.8 1085.1 1602.72 1089.79 1607.64C1093.48 1611.45 1097.11 1616.37 1102.27 1618.36C1108.01 1620.59 1114.92 1619.54 1120.9 1619.42C1127.7 1619.3 1134.49 1619.18 1141.29 1619.07C1147.74 1618.95 1154.18 1619.01 1160.57 1618.77C1166.49 1618.54 1170.41 1616.72 1174.04 1611.98C1181.54 1602.31 1187.75 1591.82 1192.85 1580.69C1195.96 1573.89 1185.82 1567.97 1182.66 1574.89C1178.44 1584.09 1173.46 1592.88 1167.6 1601.14C1166.31 1602.95 1164.73 1605.94 1162.56 1606.94C1160.98 1607.64 1157.93 1607.06 1156.29 1607.11C1150.55 1607.23 1144.86 1607.29 1139.12 1607.41C1133.38 1607.52 1127.7 1607.58 1121.95 1607.7C1117.38 1607.76 1111.35 1608.99 1107.01 1607.64C1102.74 1606.35 1098.69 1600.02 1095.7 1596.92C1091.72 1592.76 1087.74 1588.6 1083.75 1584.5C1078.59 1579.11 1070.39 1587.43 1075.61 1592.88Z"></path>
  <path fill="#203752" d="M1096.17 1619.23C1089.49 1794.55 1077.19 1969.68 1059.2 2144.17 1054.1 2193.34 1048.59 2242.5 1042.62 2291.54 1041.68 2299.04 1053.46 2298.98 1054.33 2291.6 1075.49 2117.4 1091.01 1942.61 1100.86 1767.42 1103.61 1718.08 1105.96 1668.69 1107.83 1619.29 1108.18 1611.73 1096.4 1611.67 1096.17 1619.23ZM1161.62 1620.36C1172.52 1743.87 1184.89 1867.21 1198.77 1990.44 1199.59 1997.88 1211.31 1997.99 1210.49 1990.49 1196.6 1867.27 1184.24 1743.93 1173.34 1620.42 1172.7 1612.92 1160.98 1612.86 1161.62 1620.36ZM1201.41 2039.36C1211.31 2144.24 1221.21 2249.19 1231.06 2354.07 1231.76 2361.51 1243.48 2361.63 1242.78 2354.13 1232.87 2249.24 1222.97 2144.3 1213.13 2039.42 1212.42 2031.98 1200.71 2031.86 1201.41 2039.36ZM728.206 1822.67C715.725 1945.78 709.632 2069.47 709.983 2193.22 710.1 2228.03 710.686 2262.83 711.8 2297.58 712.034 2305.13 723.753 2305.19 723.518 2297.63 719.593 2173.94 721.995 2050.13 730.901 1926.68 733.421 1891.99 736.409 1857.3 739.925 1822.67 740.686 1815.23 728.968 1815.23 728.206 1822.67ZM1498.65 1783.42C1517.4 1948.66 1529.18 2114.65 1535.56 2280.82 1537.38 2327.82 1538.79 2374.87 1539.9 2421.86 1540.08 2429.42 1551.79 2429.48 1551.62 2421.92 1547.75 2255.69 1539.72 2089.46 1524.72 1923.81 1520.51 1877 1515.7 1830.18 1510.43 1783.42 1509.55 1776.1 1497.83 1775.92 1498.65 1783.42Z"></path>
  <path fill="#203752" d="M2422.03 2591.37C2490.41 2410.14 2563.83 2200.2 2632.21 2018.97C2424.49 2018.97 2184.2 2016.33 1973.79 2018.62C1913.03 2188.19 1853.32 2338.83 1788.28 2503.19C1563.69 2503.19 1341.21 2524.46 1123.18 2524.46C1116.45 2552.7 1107.95 2580 1102.03 2619.38C1211.72 2619.32 2153.67 2591.37 2422.03 2591.37Z"></path>
  <path fill="#1B81A6" d="M2265.41 2316.77C2283.07 2271.45 2276.93 2226.74 2251.69 2216.91C2226.46 2207.07 2191.69 2235.84 2174.02 2281.15C2156.36 2326.47 2162.51 2371.18 2187.74 2381.01C2212.98 2390.85 2247.75 2362.08 2265.41 2316.77Z"></path>
  <path fill="#FF9F6B" d="M2198.44 1538.96C2202.36 1516.05 2215.66 1495.49 2235.82 1483.65C2247.19 1476.97 2259.9 1473.22 2272.74 1470.41C2284.1 1467.95 2296.29 1464.9 2308.01 1465.14C2321.72 1465.43 2329.45 1475.62 2324.47 1488.92C2320.08 1500.53 2308.95 1509.67 2300.22 1517.99C2295.35 1522.62 2290.37 1527.07 2285.27 1531.4C2280.82 1535.21 2275.72 1538.67 2272.15 1543.36C2264.36 1553.49 2268.98 1564.8 2273.79 1575.17C2285.92 1601.48 2290.43 1632.6 2279 1659.96C2276.13 1666.81 2286.27 1672.73 2289.2 1665.76C2300.27 1639.33 2299.34 1610.1 2289.73 1583.38C2287.44 1576.99 2284.4 1570.96 2281.76 1564.69C2280.06 1560.64 2278.36 1555.84 2280.65 1551.62C2282.52 1548.16 2286.62 1545.58 2289.55 1543.12C2301.33 1533.34 2312.81 1522.97 2323.13 1511.66C2331.5 1502.46 2338.65 1491.33 2337.72 1478.38C2336.84 1466.31 2328.52 1457.05 2316.8 1454.41C2304.67 1451.72 2291.66 1454.88 2279.71 1457.11C2265.7 1459.74 2251.82 1463.08 2238.87 1469C2211.8 1481.37 2192.29 1506.68 2187.25 1535.98C2185.84 1543.3 2197.15 1546.4 2198.44 1538.96Z"></path>
  <path fill="#FF9F6B" d="M2293.59 1612.91C2315.45 1623.28 2341.29 1631.71 2364.14 1619C2370.7 1615.31 2364.9 1605.17 2358.28 1608.86C2339.41 1619.35 2317.32 1611.26 2299.39 1602.71C2296.52 1601.36 2293.07 1602.01 2291.43 1604.88C2289.9 1607.51 2290.72 1611.56 2293.59 1612.91Z"></path>
  <path fill="#203752" d="M1922.35 1136.49C1922.23 1153.78 1926.74 1171.76 1938.28 1184.65C1949.83 1197.54 1969.46 1201 1985.28 1193.97C1997.17 1188.7 2005.2 1179.79 2008.71 1167.25C2012.23 1154.71 2011.76 1141.41 2010.71 1128.46C2010.53 1126.47 2010.35 1124.42 2009.48 1122.6C2008.01 1119.56 2004.85 1117.74 2001.86 1116.1C1993.71 1111.65 1985.28 1107.31 1976.19 1105.61C1954.93 1101.69 1922.46 1112.53 1922.35 1136.49Z"></path>
  <path fill="#FFC5A6" d="M2032.03 1101.62C2032.03 989.357 2159.47 957.424 2159.47 792.951C2159.47 694.338 2085.12 611.721 1966.46 611.721C1847.81 611.721 1773.46 694.338 1773.46 792.951C1773.46 957.424 1900.9 989.357 1900.9 1101.62H2032.03Z"></path>
  <path fill="#203752" d="M1953.05 1088.79C1951.64 1030.43 1951.23 971.95 1948.65 913.649 1948.07 900.348 1947.07 887.106 1945.14 873.922 1943.5 863.024 1942.44 847.555 1935.12 838.766 1928.97 831.383 1917.95 831.442 1911.27 838.18 1904.06 845.446 1903.95 856.989 1907.35 866.071 1915.43 887.575 1939.16 895.778 1960.43 894.957 1982.4 894.079 2011.23 888.043 2026.17 870.465 2032.74 862.789 2036.19 851.774 2029.69 842.926 2024.47 835.778 2014.45 833.258 2006.13 835.778 1981.82 843.161 1984.22 875.797 1983.58 895.485 1981.41 962.047 1980.18 1028.61 1979.77 1095.17 1979.71 1102.73 1991.43 1102.79 1991.49 1095.23 1991.78 1049.53 1992.42 1003.88 1993.54 958.18 1994.06 935.328 1994.71 912.536 1995.47 889.684 1995.82 879.664 1995 868.414 1998.63 858.864 2001.45 851.598 2011.17 841.227 2019.2 848.668 2027.64 856.461 2012.7 867.477 2006.95 870.817 1998.28 875.914 1988.62 878.844 1978.77 880.836 1960.2 884.645 1936.76 886.051 1923.11 870.172 1918.65 864.957 1911.86 850.25 1920.7 845.504 1929.49 840.817 1932.07 866.891 1932.83 871.52 1936.47 892.672 1936.99 914.176 1937.52 935.563 1938.81 986.598 1939.98 1037.69 1941.21 1088.73 1941.51 1096.23 1953.22 1096.29 1953.05 1088.79ZM1634.41 1111.17C1652.99 1096.29 1671.5 1081.35 1690.08 1066.46 1692.54 1064.47 1692.07 1060.19 1690.02 1058.2 1687.56 1055.74 1684.22 1056.27 1681.76 1058.26 1663.18 1073.14 1644.67 1088.08 1626.09 1102.97 1623.63 1104.96 1624.1 1109.24 1626.15 1111.23 1628.61 1113.69 1631.95 1113.16 1634.41 1111.17ZM1471.82 828.98C1516.82 827.749 1561.76 825.288 1606.58 821.597 1614.08 820.952 1614.14 809.234 1606.64 809.878 1561.82 813.57 1516.88 816.03 1471.88 817.261 1464.32 817.437 1464.26 829.155 1471.82 828.98ZM1596.56 574.219C1623.52 582.188 1649.59 592.91 1674.38 606.152 1681 609.727 1686.86 599.531 1680.18 595.957 1654.51 582.246 1627.5 571.172 1599.61 562.91 1592.35 560.742 1589.3 572.109 1596.56 574.219Z"></path>
  <path fill="#1B81A6" d="M1899.08 1078.48C1899.08 1078.48 1885.37 1122.25 1913.73 1150.61C1942.09 1178.97 1999.28 1178.21 2021.9 1153.25C2047.21 1125.36 2035.08 1077.48 2035.08 1077.48L1899.08 1078.48Z"></path>
  <path fill="#203752" d="M2272.8 1103.97C2254.22 1089.08 2235.71 1074.14 2217.13 1059.26 2214.67 1057.27 2211.21 1056.92 2208.87 1059.32 2206.82 1061.37 2206.47 1065.59 2208.93 1067.58 2227.5 1082.46 2246.02 1097.4 2264.59 1112.29 2267.05 1114.28 2270.51 1114.63 2272.85 1112.23 2274.9 1110.18 2275.26 1105.96 2272.8 1103.97ZM2427.13 818.256C2382.13 817.026 2337.19 814.565 2292.37 810.873 2284.81 810.229 2284.81 821.948 2292.31 822.592 2337.13 826.283 2382.07 828.744 2427.07 829.975 2434.63 830.209 2434.63 818.49 2427.13 818.256ZM2299.39 563.905C2271.44 572.167 2244.43 583.3 2218.77 597.011 2212.09 600.585 2218.01 610.722 2224.63 607.148 2249.41 593.905 2275.43 583.241 2302.38 575.273 2309.59 573.105 2306.6 561.796 2299.39 563.905ZM1960.25 380.63C1960.49 422.642 1960.72 464.595 1961.01 506.607 1961.07 514.165 1972.79 514.224 1972.73 506.665 1972.5 464.653 1972.26 422.7 1971.97 380.689 1971.91 373.189 1960.19 373.13 1960.25 380.63ZM1904.53 1106.71C1930.25 1111.11 1956.33 1112.34 1982.34 1110.11 1989.84 1109.47 1989.9 1097.75 1982.4 1098.39 1957.44 1100.5 1932.25 1099.62 1907.58 1095.4 1900.2 1094.12 1897.09 1105.42 1904.53 1106.71ZM1950.76 1140.46C1965.3 1141.4 1979.83 1141.64 1994.42 1141.05 2001.57 1140.76 2008.71 1140.35 2015.8 1139.64 2022.07 1139.06 2028.11 1138.18 2033.73 1135.19 2040.41 1131.62 2034.49 1121.48 2027.87 1125.05 2022.78 1127.75 2016.74 1127.92 2011.12 1128.33 2004.49 1128.86 1997.93 1129.21 1991.31 1129.45 1977.83 1129.86 1964.3 1129.62 1950.82 1128.75 1943.26 1128.28 1943.26 1140 1950.76 1140.46Z"></path>
</svg>
