<svg xmlns="http://www.w3.org/2000/svg" viewBox="0 0 2742 1828" id="employees-are-busy-doing-work">
  <g>
    <path fill="#fffcfa" fill-rule="evenodd" d="m1320.28 1594.28-304 150.65-81.45-161.32L924 1537.28l58.37-422.42 54.82-27.27-3.83-59.17 400.37-30.81 8.73 99.88 33.87-85.77 350.3 132L1643.07 1630.1l-148.81-54.39ZM1743.26 889.66l-295.07-17.1 29.23-527.76 377.44 20.65L1852 420.53s68.66 23 125.15 38.79S2078 483.87 2078 483.87l8.12 212s-6.05 47.46-10.37 118.16-7 164.63-7 164.63-93.09-21.1-176.06-31.14a1274.28 1274.28 0 0 0-154.6-8.9Z"></path>
    <path fill="#96d2f6" fill-rule="evenodd" d="M771.83,961.42,727.39,852l1.25-10.33s1.45,12.33,4.23,17.5,5.26,10.21,10.6,12.53,204.11,52.78,204.11,52.78L904,945.62Z"></path>
    <path fill="#fffcfa" fill-rule="evenodd" d="m1225.72 757.07 57.84-229.4 32.12 216.26ZM865.67 223.44l367.83-54.33 20.31 150.79L907.5 233.15s-6.1-.49-11.06 1.8-7.3 3-11.29 7a97.44 97.44 0 0 0-7.66 8.93s2.35-11.53 2.18-15.68-1.65-7.51-5.4-8.39A48.07 48.07 0 0 1 865.67 223.44Z"></path>
    <path fill="#f7bd7a" fill-rule="evenodd" d="M684.73,1125.51l-65.05,26.75L555.82,990.77l157.43-61.89L729,965.68l-43.26,6.14s-6.6,1.76-9.75,6.66-6.26,11.42-5.66,16S684.73,1125.51,684.73,1125.51Z"></path>
    <path fill="#f8ada9" fill-rule="evenodd" d="M1905.45,1326.18l-44.74-62.94,141.76-99.6,97.61,137.3-75.79,53.93Z"></path>
    <path fill="#96d2f6" fill-rule="evenodd" d="M1892.09,1240.92l-38.33-85.5,156.52-70.86,70.85,152-19.36,9.79-60.27-82.14Z"></path>
    <path fill="#fffcfa" fill-rule="evenodd" d="M2133,1053.49c0-54.49,44.51-98.66,99.4-98.66s99.39,44.17,99.39,98.66-44.5,98.65-99.39,98.65S2133,1108,2133,1053.49Z"></path>
    <path fill="#864f44" fill-rule="evenodd" d="M2154.24,1053.49c0-42.85,35-77.59,78.16-77.59s78.15,34.74,78.15,77.59-35,77.57-78.15,77.57S2154.24,1096.33,2154.24,1053.49Z"></path>
    <path fill="#fffcfa" fill-rule="evenodd" d="m2323.64 1012.92 47.19-17.64c9.91-3.66 20.54.41 23.73 9.09h0c3.2 8.67-2.24 18.67-12.15 22.32l-50.33 18.3ZM1852.82 1381.38c19.56-50.85 77-76.09 128.19-56.38s76.9 76.91 57.33 127.77-76.95 76.09-128.19 56.38S1833.26 1432.24 1852.82 1381.38Z"></path>
    <path fill="#864f44" fill-rule="evenodd" d="M1872.64,1389c15.39-40,60.51-59.84,100.8-44.33s60.47,60.47,45.09,100.46S1958,1505,1917.72,1489.48,1857.25,1429,1872.64,1389Z"></path>
    <path fill="#fffcfa" fill-rule="evenodd" d="M2045.27,1411.65l50.41.81c10.56.16,19,7.77,18.9,17h0c-.14,9.25-8.8,16.62-19.37,16.47l-53.39-1.32Z"></path>
    <path fill="#ce9388" fill-rule="evenodd" d="M2225.43,1116.27c-2.72-5.07-7.28-3-8.94-6.63-2-4.44,2.7-11.64-.89-16.16-5.16-6.46-18.2-9.77-25-15-7.66-5.86-1-10.21-2-16.6-.63-3.76-5.07-5.25-5.67-8.83-1.79-10.73-2.65-26.54,3.48-36,2.57-4,19.15-13.77,24.57-10.85,4.81,2.59,3,12.57,10.38,15.43,3.69,1.42,15.27,1.69,19.21,1.57,13-.37,19.5-14.92,31.13-15.25,5.63-.17,14.76,7.29,16.8,12.21.85,2,1.84,4,2.65,6.06.36.92.78,3.81.89,2.83,2-17.83-16.56-27.67-28.78-34.79-27-15.73-72.21-9.55-88.42,20.57-9.29,17.27-11.52,49.32-1.82,66.78,4.63,8.32,11.64,4.68,17.47,9,2.31,1.7,1.69,7.88,3.33,10.68,3,5.13,18.06,14.83,24.8,16.46,1.12.27,8.34,2.43,9.25,1.35C2229.11,1117.61,2225.81,1117,2225.43,1116.27Z"></path>
    <path fill="#ce9388" fill-rule="evenodd" d="M2276.07 1026.05c-13-5.18-13.16 17.44-3.9 21.69C2282.56 1052.51 2286.56 1030.25 2276.07 1026.05ZM1910.87 1366.33c-12.68 18.14 16.9 13.54 25.77 18.43s11.91 14.32 23.94 13.66c9.77-.54 11.82-7.66 20.1-10.06 4.84-1.4 13.23 4.15 15.69 8.17 10.61 17.39 4.84 40.31-5.39 56.67-3.36 5.35-14.83 13-15.84 18.51 0 0 9.95-6.29 11.16-7.47 19.6-19.23 33.62-56 14.85-81.5S1931.33 1337.08 1910.87 1366.33ZM1889.36 1388.76c0-8.76 13.87-15.72 11.77-4.31C1900.2 1389.52 1889.37 1398 1889.36 1388.76Z"></path>
    <path fill="#abacb1" fill-rule="evenodd" d="M710.13,1342l-40-344.17,2.78-16,9.36-9.68,261.1-31.39,12.7,6.26,8.16,13.64,30.06,255.81-22.07,107.65-162,28.62-77.15,9.58-15.64-5.21Z"></path>
    <path fill="#e16553" fill-rule="evenodd" d="M732.09,1107.55,710,1110.09l-3.58-3.89-2.1-17.17,3.59-4.93,21.65-2.68,3.88,4.78,1.94,16.42Z"></path>
    <path fill="#4e5159" fill-rule="evenodd" d="M698,1058.57l-5.92-57.2,4.94-8.28L937.8,965.48l6.9,6.7,7.69,57.59-6.9,8.29-239,27.81Z"></path>
    <path fill="#6c6e79" fill-rule="evenodd" d="M755.86 1100.88 753 1082.07l5.26-4.78 20.87-1.43 3.83 5.57 1.76 15.31L779 1102l-17.86 1.6ZM805.59 1095.62l-2.87-18.81L808 1072l20.88-1.44 3.82 5.59 1.75 15.3-5.73 5.26-17.86 1.59ZM855.31 1089.4l-2.86-18.81 5.26-4.78 20.88-1.43 3.82 5.58 1.75 15.3-5.73 5.26-17.86 1.59Z"></path>
    <path fill="#d1d1d1" fill-rule="evenodd" d="M730.23 839.6 876.45 256.21a29.34 29.34 0 0 1 35.63-21.27l390.1 97.77a29.35 29.35 0 0 1 21.38 35.56L1177.34 951.66a29.36 29.36 0 0 1-35.63 21.28l-390.1-97.78A29.34 29.34 0 0 1 730.23 839.6ZM433.86 814.1 604.13 134.75c1.56-6.2 6.93-10.2 12-8.92L873 227.33c5.08 1.28 7.94 7.34 6.38 13.54L725.67 854.79c-1.55 6.2-6.93 10.2-12 8.92L440.25 827.64C435.17 826.37 432.31 820.31 433.86 814.1Z"></path>
    <path fill="#4e5159" fill-rule="evenodd" d="M449.91,811.93,617.25,144.26,866.07,242.5,714.73,847Z"></path>
    <path fill="#989aa3" fill-rule="evenodd" d="M984.13 729.45 1037.9 514.9c.9-3.62 4.18-5.92 7.31-5.13l22 5.51c3.13.79 4.94 4.36 4 8L1017.46 737.8c-.91 3.63-4.18 5.93-7.32 5.14l-22-5.51C985 736.64 983.22 733.07 984.13 729.45ZM973.33 772.51 978 754a5.85 5.85 0 0 1 7.09-4.25l22 5.51a5.86 5.86 0 0 1 4.25 7.1l-4.65 18.53a5.84 5.84 0 0 1-7.08 4.25l-22-5.51A5.85 5.85 0 0 1 973.33 772.51ZM963.39 812.19 968 793.65a5.84 5.84 0 0 1 7.09-4.24l22 5.51a5.85 5.85 0 0 1 4.25 7.09l-4.65 18.54a5.83 5.83 0 0 1-7.09 4.24l-22-5.51A5.83 5.83 0 0 1 963.39 812.19ZM953.44 851.87l4.65-18.53a5.84 5.84 0 0 1 7.09-4.25l22 5.51a5.85 5.85 0 0 1 4.25 7.09l-4.65 18.54a5.84 5.84 0 0 1-7.08 4.25l-22-5.52A5.85 5.85 0 0 1 953.44 851.87ZM943.5 891.56 948.14 873a5.83 5.83 0 0 1 7.09-4.24l22 5.51a5.84 5.84 0 0 1 4.25 7.08l-4.65 18.54a5.84 5.84 0 0 1-7.09 4.25l-22-5.51A5.84 5.84 0 0 1 943.5 891.56ZM904.12 880.38l15.06-60.1a5.86 5.86 0 0 1 7.1-4.25l22 5.51a5.86 5.86 0 0 1 4.25 7.1l-15.07 60.09a5.83 5.83 0 0 1-7.08 4.25l-22-5.51A5.84 5.84 0 0 1 904.12 880.38ZM933.65 762.56 938.29 744a5.84 5.84 0 0 1 7.1-4.24l22 5.51a5.85 5.85 0 0 1 4.25 7.09L967 770.92a5.85 5.85 0 0 1-7.1 4.24l-22-5.51A5.84 5.84 0 0 1 933.65 762.56ZM923.7 802.24l4.65-18.53a5.85 5.85 0 0 1 7.09-4.25l22 5.52a5.83 5.83 0 0 1 4.25 7.08L957 810.6a5.85 5.85 0 0 1-7.09 4.25l-22-5.51A5.86 5.86 0 0 1 923.7 802.24ZM953.54 683.19l4.65-18.53a5.84 5.84 0 0 1 7.09-4.25l22 5.51a5.85 5.85 0 0 1 4.25 7.09l-4.65 18.54a5.84 5.84 0 0 1-7.08 4.25l-22-5.52A5.84 5.84 0 0 1 953.54 683.19ZM943.6 722.88l4.64-18.54a5.85 5.85 0 0 1 7.09-4.25l22 5.51a5.86 5.86 0 0 1 4.25 7.1l-4.65 18.53a5.85 5.85 0 0 1-7.09 4.25l-22-5.51A5.83 5.83 0 0 1 943.6 722.88ZM973.43 603.82l4.65-18.53a5.85 5.85 0 0 1 7.09-4.25l22 5.52a5.84 5.84 0 0 1 4.25 7.08l-4.64 18.54a5.85 5.85 0 0 1-7.09 4.25l-22-5.51A5.86 5.86 0 0 1 973.43 603.82ZM963.49 643.51 968.13 625a5.84 5.84 0 0 1 7.09-4.24l22 5.51a5.85 5.85 0 0 1 4.25 7.09l-4.65 18.54a5.83 5.83 0 0 1-7.09 4.24l-22-5.51A5.83 5.83 0 0 1 963.49 643.51ZM864.44 870.45l12.72-50.75a5.85 5.85 0 0 1 7.09-4.25l22 5.51a5.85 5.85 0 0 1 4.25 7.09L897.77 878.8a5.85 5.85 0 0 1-7.09 4.25l-22-5.51A5.84 5.84 0 0 1 864.44 870.45ZM884 792.3l4.64-18.54a5.86 5.86 0 0 1 7.1-4.25l22 5.52a5.84 5.84 0 0 1 4.25 7.09l-4.65 18.53a5.84 5.84 0 0 1-7.09 4.25l-22-5.51A5.85 5.85 0 0 1 884 792.3ZM824.44 861.72l4.65-18.54a5.83 5.83 0 0 1 7.09-4.24l22 5.51a5.84 5.84 0 0 1 4.25 7.09l-4.65 18.54a5.82 5.82 0 0 1-7.08 4.24l-22-5.51A5.85 5.85 0 0 1 824.44 861.72ZM834.39 822 839 803.5a5.86 5.86 0 0 1 7.1-4.25l22 5.51a5.86 5.86 0 0 1 4.25 7.1l-4.65 18.53a5.85 5.85 0 0 1-7.09 4.25l-22-5.51A5.85 5.85 0 0 1 834.39 822ZM784.76 851.77l4.64-18.53a5.86 5.86 0 0 1 7.1-4.25l22 5.51a5.85 5.85 0 0 1 4.25 7.09l-4.65 18.54a5.84 5.84 0 0 1-7.09 4.25l-22-5.51A5.86 5.86 0 0 1 784.76 851.77ZM794.7 812.09l4.65-18.54a5.84 5.84 0 0 1 7.09-4.24l22 5.51a5.85 5.85 0 0 1 4.25 7.09L828 820.45a5.84 5.84 0 0 1-7.09 4.24l-22-5.51A5.85 5.85 0 0 1 794.7 812.09ZM752.13 843.6l4.65-18.54a5.85 5.85 0 0 1 7.09-4.25l11.87 3a5.85 5.85 0 0 1 4.25 7.09l-4.65 18.54a5.84 5.84 0 0 1-7.09 4.24l-11.87-3A5.85 5.85 0 0 1 752.13 843.6ZM1057.55 436.5 1052.9 455a5.85 5.85 0 0 0 4.25 7.09l22 5.51a5.84 5.84 0 0 0 7.08-4.25l4.65-18.54a5.85 5.85 0 0 0-4.25-7.09l-22-5.51A5.85 5.85 0 0 0 1057.55 436.5ZM1067.49 396.82l-4.64 18.53a5.83 5.83 0 0 0 4.25 7.09l22 5.52a5.85 5.85 0 0 0 7.09-4.25l4.65-18.54a5.85 5.85 0 0 0-4.25-7.09l-22-5.51A5.85 5.85 0 0 0 1067.49 396.82ZM1077.44 357.13l-4.65 18.54a5.85 5.85 0 0 0 4.25 7.09l22 5.51a5.84 5.84 0 0 0 7.09-4.25l4.65-18.53a5.85 5.85 0 0 0-4.26-7.09l-22-5.51A5.83 5.83 0 0 0 1077.44 357.13ZM1087.39 317.45 1082.74 336a5.85 5.85 0 0 0 4.25 7.09l22 5.51a5.85 5.85 0 0 0 7.09-4.25l4.65-18.54a5.85 5.85 0 0 0-4.25-7.09l-22-5.51A5.84 5.84 0 0 0 1087.39 317.45ZM1047.39 308.74l-15.06 60.1a5.84 5.84 0 0 0 4.25 7.08l22 5.52a5.85 5.85 0 0 0 7.09-4.25l15.07-60.1a5.85 5.85 0 0 0-4.25-7.09l-22-5.51A5.84 5.84 0 0 0 1047.39 308.74ZM1017.86 426.55l-4.64 18.54a5.84 5.84 0 0 0 4.25 7.09l22 5.51a5.83 5.83 0 0 0 7.09-4.24l4.65-18.54a5.85 5.85 0 0 0-4.25-7.09l-22-5.51A5.84 5.84 0 0 0 1017.86 426.55ZM1027.81 386.87l-4.65 18.54a5.85 5.85 0 0 0 4.25 7.09l22 5.51a5.85 5.85 0 0 0 7.09-4.25l4.65-18.54a5.84 5.84 0 0 0-4.25-7.08l-22-5.52A5.85 5.85 0 0 0 1027.81 386.87ZM998 505.92l-4.64 18.54a5.84 5.84 0 0 0 4.24 7.09l22 5.51a5.85 5.85 0 0 0 7.09-4.25l4.64-18.53a5.83 5.83 0 0 0-4.24-7.09l-22-5.52A5.85 5.85 0 0 0 998 505.92ZM1007.92 466.24l-4.65 18.54a5.84 5.84 0 0 0 4.25 7.08l22 5.52a5.84 5.84 0 0 0 7.08-4.25l4.65-18.54a5.85 5.85 0 0 0-4.25-7.09L1015 462A5.83 5.83 0 0 0 1007.92 466.24ZM988 545.61l-4.65 18.53a5.84 5.84 0 0 0 4.25 7.09l22 5.52a5.85 5.85 0 0 0 7.09-4.25l4.65-18.54a5.84 5.84 0 0 0-4.25-7.09l-22-5.51A5.83 5.83 0 0 0 988 545.61ZM1007.72 298.78 995 349.53a5.85 5.85 0 0 0 4.25 7.09l22 5.51a5.84 5.84 0 0 0 7.09-4.25l12.72-50.75a5.85 5.85 0 0 0-4.25-7.09l-22-5.51A5.84 5.84 0 0 0 1007.72 298.78ZM988.13 376.92l-4.65 18.54a5.85 5.85 0 0 0 4.25 7.09l22 5.51a5.83 5.83 0 0 0 7.09-4.24l4.65-18.54a5.84 5.84 0 0 0-4.25-7.09l-22-5.51A5.82 5.82 0 0 0 988.13 376.92ZM968.33 287.61l-4.64 18.54a5.85 5.85 0 0 0 4.25 7.09l22 5.51A5.84 5.84 0 0 0 997 314.5l4.65-18.53a5.85 5.85 0 0 0-4.25-7.09l-22-5.52A5.85 5.85 0 0 0 968.33 287.61ZM958.39 327.29l-4.65 18.54a5.85 5.85 0 0 0 4.25 7.09l22 5.51a5.84 5.84 0 0 0 7.09-4.24l4.64-18.54a5.84 5.84 0 0 0-4.25-7.09l-22-5.51A5.83 5.83 0 0 0 958.39 327.29ZM928.65 277.67 924 296.2a5.85 5.85 0 0 0 4.25 7.09l22 5.52a5.85 5.85 0 0 0 7.09-4.25L962 286a5.84 5.84 0 0 0-4.25-7.09l-22-5.51A5.83 5.83 0 0 0 928.65 277.67ZM918.7 317.35l-4.64 18.54A5.84 5.84 0 0 0 918.3 343l22 5.51a5.85 5.85 0 0 0 7.09-4.25L952 325.7a5.85 5.85 0 0 0-4.25-7.09l-22-5.51A5.86 5.86 0 0 0 918.7 317.35ZM896 269.49 891.37 288a5.85 5.85 0 0 0 4.25 7.09l11.88 3a5.83 5.83 0 0 0 7.08-4.25l4.65-18.54a5.84 5.84 0 0 0-4.25-7.08l-11.87-3A5.85 5.85 0 0 0 896 269.49ZM1047.6 476.19 1043 494.72a5.83 5.83 0 0 0 4.24 7.09l22 5.52a5.85 5.85 0 0 0 7.09-4.26l4.64-18.53a5.83 5.83 0 0 0-4.24-7.09l-22-5.51A5.85 5.85 0 0 0 1047.6 476.19ZM894 752.62l4.64-18.54a5.85 5.85 0 0 1 7.09-4.25l22 5.52a5.84 5.84 0 0 1 4.25 7.08L927.3 761a5.85 5.85 0 0 1-7.09 4.25l-22-5.51A5.84 5.84 0 0 1 894 752.62ZM913.86 673.25l4.64-18.54a5.85 5.85 0 0 1 7.09-4.25l22 5.52a5.82 5.82 0 0 1 4.24 7.08l-4.64 18.54a5.84 5.84 0 0 1-7.09 4.25l-22-5.51A5.83 5.83 0 0 1 913.86 673.25ZM903.91 712.93l4.65-18.54a5.82 5.82 0 0 1 7.08-4.24l22 5.51a5.84 5.84 0 0 1 4.25 7.09l-4.65 18.54a5.82 5.82 0 0 1-7.08 4.24l-22-5.51A5.85 5.85 0 0 1 903.91 712.93ZM933.75 593.88l4.64-18.54a5.86 5.86 0 0 1 7.1-4.25l22 5.52a5.84 5.84 0 0 1 4.25 7.09l-4.64 18.53a5.86 5.86 0 0 1-7.1 4.25L938 601A5.84 5.84 0 0 1 933.75 593.88ZM923.8 633.57 928.45 615a5.84 5.84 0 0 1 7.09-4.25l22 5.51a5.85 5.85 0 0 1 4.25 7.09l-4.64 18.54a5.85 5.85 0 0 1-7.09 4.25l-22-5.52A5.84 5.84 0 0 1 923.8 633.57ZM978.18 416.61l-4.65 18.54a5.84 5.84 0 0 0 4.25 7.08l22 5.52a5.85 5.85 0 0 0 7.09-4.25l4.64-18.54a5.85 5.85 0 0 0-4.24-7.09l-22-5.51A5.84 5.84 0 0 0 978.18 416.61ZM958.29 496l-4.65 18.53a5.85 5.85 0 0 0 4.25 7.09l22 5.52a5.84 5.84 0 0 0 7.08-4.25l4.65-18.54a5.84 5.84 0 0 0-4.25-7.09l-22-5.51A5.84 5.84 0 0 0 958.29 496ZM968.23 456.29l-4.64 18.54a5.85 5.85 0 0 0 4.24 7.09l22 5.51a5.83 5.83 0 0 0 7.09-4.25l4.65-18.53a5.84 5.84 0 0 0-4.25-7.09l-22-5.52A5.85 5.85 0 0 0 968.23 456.29ZM948.34 535.66l-4.64 18.53a5.84 5.84 0 0 0 4.25 7.1l22 5.51a5.85 5.85 0 0 0 7.09-4.25L981.68 544a5.85 5.85 0 0 0-4.25-7.09l-22-5.51A5.85 5.85 0 0 0 948.34 535.66ZM844.33 782.35 849 763.82a5.85 5.85 0 0 1 7.09-4.25l22 5.51a5.85 5.85 0 0 1 4.25 7.09l-4.65 18.54a5.85 5.85 0 0 1-7.09 4.25l-22-5.51A5.86 5.86 0 0 1 844.33 782.35ZM948.44 367l-4.64 18.54A5.82 5.82 0 0 0 948 392.6l22 5.52a5.85 5.85 0 0 0 7.09-4.25l4.64-18.54a5.84 5.84 0 0 0-4.24-7.09l-22-5.51A5.85 5.85 0 0 0 948.44 367ZM854.28 742.67l4.65-18.53a5.84 5.84 0 0 1 7.09-4.26l22 5.52a5.83 5.83 0 0 1 4.25 7.09L887.61 751a5.84 5.84 0 0 1-7.09 4.25l-22-5.51A5.85 5.85 0 0 1 854.28 742.67ZM874.17 663.3l4.65-18.54a5.84 5.84 0 0 1 7.09-4.24l22 5.51a5.85 5.85 0 0 1 4.25 7.09l-4.64 18.54a5.83 5.83 0 0 1-7.09 4.24l-22-5.51A5.85 5.85 0 0 1 874.17 663.3ZM864.23 703l4.64-18.54A5.85 5.85 0 0 1 876 680.2l22 5.51a5.84 5.84 0 0 1 4.24 7.09l-4.64 18.54a5.85 5.85 0 0 1-7.09 4.25l-22-5.51A5.84 5.84 0 0 1 864.23 703ZM894.07 583.94l4.64-18.55a5.85 5.85 0 0 1 7.09-4.24l22 5.51a5.85 5.85 0 0 1 4.25 7.09l-4.65 18.54a5.85 5.85 0 0 1-7.09 4.25l-22-5.52A5.82 5.82 0 0 1 894.07 583.94ZM884.12 623.62l4.64-18.54a5.86 5.86 0 0 1 7.1-4.25l22 5.52a5.84 5.84 0 0 1 4.25 7.09L917.45 632a5.84 5.84 0 0 1-7.09 4.25l-22-5.51A5.85 5.85 0 0 1 884.12 623.62ZM938.49 406.66l-4.64 18.54a5.85 5.85 0 0 0 4.25 7.09l22 5.51a5.83 5.83 0 0 0 7.09-4.25L971.83 415a5.84 5.84 0 0 0-4.25-7.09l-22-5.52A5.86 5.86 0 0 0 938.49 406.66ZM918.6 486 914 504.57a5.84 5.84 0 0 0 4.24 7.09l22 5.51a5.85 5.85 0 0 0 7.09-4.25l4.64-18.54a5.84 5.84 0 0 0-4.24-7.09l-22-5.51A5.85 5.85 0 0 0 918.6 486ZM928.55 446.35l-4.65 18.53a5.85 5.85 0 0 0 4.25 7.09l22 5.52a5.85 5.85 0 0 0 7.09-4.25l4.64-18.54a5.85 5.85 0 0 0-4.25-7.09l-22-5.51A5.83 5.83 0 0 0 928.55 446.35ZM908.66 525.71 904 544.25a5.85 5.85 0 0 0 4.25 7.09l22 5.51a5.83 5.83 0 0 0 7.08-4.25L942 534.07a5.83 5.83 0 0 0-4.25-7.09l-22-5.52A5.84 5.84 0 0 0 908.66 525.71ZM804.65 772.41l4.65-18.54a5.84 5.84 0 0 1 7.09-4.25l22 5.51a5.85 5.85 0 0 1 4.24 7.1L838 780.76a5.86 5.86 0 0 1-7.1 4.25l-22-5.51A5.85 5.85 0 0 1 804.65 772.41ZM908.76 357l-4.65 18.54a5.85 5.85 0 0 0 4.25 7.09l22 5.51a5.82 5.82 0 0 0 7.08-4.25l4.65-18.53a5.84 5.84 0 0 0-4.25-7.09l-22-5.52A5.85 5.85 0 0 0 908.76 357ZM814.6 732.72l4.65-18.53a5.82 5.82 0 0 1 7.08-4.25l22 5.51a5.85 5.85 0 0 1 4.25 7.09l-4.65 18.54a5.85 5.85 0 0 1-7.09 4.25l-22-5.52A5.83 5.83 0 0 1 814.6 732.72ZM834.49 653.35l4.65-18.53a5.85 5.85 0 0 1 7.09-4.25l22 5.51a5.85 5.85 0 0 1 4.25 7.09l-4.65 18.54a5.85 5.85 0 0 1-7.09 4.25l-22-5.51A5.86 5.86 0 0 1 834.49 653.35ZM824.54 693l4.65-18.54a5.86 5.86 0 0 1 7.09-4.25l22 5.52a5.84 5.84 0 0 1 4.25 7.09l-4.64 18.53a5.85 5.85 0 0 1-7.09 4.26l-22-5.52A5.85 5.85 0 0 1 824.54 693ZM854.38 574 859 555.45a5.84 5.84 0 0 1 7.09-4.25l22 5.52a5.83 5.83 0 0 1 4.25 7.09l-4.65 18.53a5.84 5.84 0 0 1-7.09 4.25l-22-5.51A5.85 5.85 0 0 1 854.38 574ZM844.43 613.67l4.65-18.53a5.83 5.83 0 0 1 7.09-4.25l22 5.51a5.85 5.85 0 0 1 4.25 7.09L877.77 622a5.85 5.85 0 0 1-7.09 4.25l-22-5.52A5.85 5.85 0 0 1 844.43 613.67ZM898.81 396.72l-4.64 18.53a5.83 5.83 0 0 0 4.25 7.09l22 5.52a5.85 5.85 0 0 0 7.09-4.25l4.65-18.54A5.85 5.85 0 0 0 927.9 398l-22-5.51A5.84 5.84 0 0 0 898.81 396.72ZM878.92 476.08l-4.65 18.54a5.85 5.85 0 0 0 4.25 7.09l22 5.52a5.86 5.86 0 0 0 7.09-4.26l4.64-18.53a5.84 5.84 0 0 0-4.25-7.09l-22-5.52A5.85 5.85 0 0 0 878.92 476.08ZM888.87 436.4l-4.65 18.54a5.85 5.85 0 0 0 4.25 7.09l22 5.51a5.85 5.85 0 0 0 7.09-4.25l4.65-18.54a5.85 5.85 0 0 0-4.25-7.09l-22-5.51A5.84 5.84 0 0 0 888.87 436.4ZM869 515.77l-4.64 18.54a5.82 5.82 0 0 0 4.24 7.08l22 5.51a5.83 5.83 0 0 0 7.09-4.24l4.65-18.54a5.85 5.85 0 0 0-4.25-7.09l-22-5.51A5.84 5.84 0 0 0 869 515.77ZM762.07 803.91l4.65-18.53a5.85 5.85 0 0 1 7.09-4.25l11.87 3a5.85 5.85 0 0 1 4.25 7.09l-4.64 18.54A5.85 5.85 0 0 1 778.2 814l-11.87-3A5.86 5.86 0 0 1 762.07 803.91ZM772 764.23l4.65-18.54a5.83 5.83 0 0 1 7.09-4.24l11.87 3a5.85 5.85 0 0 1 4.25 7.09L795.24 770a5.86 5.86 0 0 1-7.1 4.26l-11.87-3A5.85 5.85 0 0 1 772 764.23ZM782 724.55 786.62 706a5.83 5.83 0 0 1 7.08-4.25l11.88 3a5.86 5.86 0 0 1 4.25 7.1l-4.65 18.53a5.85 5.85 0 0 1-7.09 4.25l-11.87-3A5.85 5.85 0 0 1 782 724.55ZM791.92 684.86l4.64-18.53a5.84 5.84 0 0 1 7.09-4.25l11.87 3a5.83 5.83 0 0 1 4.25 7.09l-4.65 18.54a5.84 5.84 0 0 1-7.08 4.25l-11.88-3A5.83 5.83 0 0 1 791.92 684.86ZM801.86 645.18l4.65-18.54a5.85 5.85 0 0 1 7.09-4.25l11.87 3a5.85 5.85 0 0 1 4.25 7.09L825.07 651a5.83 5.83 0 0 1-7.09 4.24l-11.87-3A5.85 5.85 0 0 1 801.86 645.18ZM811.81 605.49 816.45 587a5.85 5.85 0 0 1 7.09-4.25l11.87 3a5.83 5.83 0 0 1 4.25 7.08L835 611.31a5.85 5.85 0 0 1-7.09 4.25l-11.87-3A5.85 5.85 0 0 1 811.81 605.49ZM821.75 565.81l4.65-18.53a5.83 5.83 0 0 1 7.09-4.25l11.87 3a5.85 5.85 0 0 1 4.25 7.09L845 571.63a5.85 5.85 0 0 1-7.09 4.25l-11.87-3A5.85 5.85 0 0 1 821.75 565.81ZM831.7 526.13l4.65-18.54a5.84 5.84 0 0 1 7.09-4.25l11.87 3a5.86 5.86 0 0 1 4.25 7.1l-4.65 18.53a5.85 5.85 0 0 1-7.09 4.25l-11.87-3A5.85 5.85 0 0 1 831.7 526.13ZM841.64 486.44l4.65-18.54a5.84 5.84 0 0 1 7.09-4.24l11.87 3a5.85 5.85 0 0 1 4.25 7.09l-4.65 18.54a5.84 5.84 0 0 1-7.08 4.25l-11.88-3A5.85 5.85 0 0 1 841.64 486.44ZM851.59 446.76l4.64-18.54a5.86 5.86 0 0 1 7.1-4.25l11.87 3a5.85 5.85 0 0 1 4.25 7.09l-4.65 18.54a5.85 5.85 0 0 1-7.09 4.25l-11.87-3A5.85 5.85 0 0 1 851.59 446.76ZM861.54 407.08l4.64-18.54a5.85 5.85 0 0 1 7.09-4.25l11.88 3a5.85 5.85 0 0 1 4.25 7.09l-4.65 18.53a5.85 5.85 0 0 1-7.09 4.25l-11.87-3A5.83 5.83 0 0 1 861.54 407.08ZM871.48 367.39l4.65-18.54a5.83 5.83 0 0 1 7.09-4.24l11.87 3a5.85 5.85 0 0 1 4.25 7.09l-4.65 18.54a5.85 5.85 0 0 1-7.09 4.25l-11.87-3A5.85 5.85 0 0 1 871.48 367.39ZM881.43 327.71l4.65-18.54a5.84 5.84 0 0 1 7.08-4.25l11.88 3a5.83 5.83 0 0 1 4.24 7.09l-4.64 18.54a5.84 5.84 0 0 1-7.09 4.24l-11.87-3A5.85 5.85 0 0 1 881.43 327.71Z"></path>
    <path fill="#d1d1d1" fill-rule="evenodd" d="M1040.58,768.64l66.16-264a11.7,11.7,0,0,1,14.18-8.5l127.27,31.9a11.69,11.69,0,0,1,8.5,14.18l-66.16,264a11.69,11.69,0,0,1-14.18,8.49l-127.27-31.9A11.68,11.68,0,0,1,1040.58,768.64Z"></path>
    <path fill="#999ca9" fill-rule="evenodd" d="M460.33 773.41 773.21 610.79l18.17-70.42-316 168.72ZM502.45 601.42 815.33 438.8l11-37.68-316 168.72Z"></path>
  </g>
  <g>
    <path fill="#571519" d="M1763.09 725.07a4 4 0 0 1-.6 0 4.58 4.58 0 0 1-3.94-5.12c1.87-14.39 3.81-29 5.83-43.64 18-131.35 41.59-268.78 41.83-270.16a4.56 4.56 0 0 1 6-3.55c.94.31 95.25 32 160.6 50.91C2037.9 472.32 2075.9 479 2076.28 479a4.57 4.57 0 0 1-1.56 9c-.38-.06-38.82-6.78-104.5-25.79-56.8-16.44-135.36-42.48-155.9-49.33-4.48 26.41-24.87 147.91-40.89 264.59-2 14.63-4 29.22-5.82 43.58A4.57 4.57 0 0 1 1763.09 725.07ZM2069.06 984.45a4.77 4.77 0 0 1-1.12-.14c-.81-.21-81.77-20.61-163.34-30.9s-166-10.77-166.8-10.77a4.57 4.57 0 0 1-4.53-5c.08-.81 8.31-82.64 20.7-181.78A4.57 4.57 0 1 1 1763 757c-10.64 85.1-18.2 157.41-20.17 176.59 19.47.27 92.2 1.87 162.87 10.79 69.77 8.8 139.07 24.95 158.86 29.74.64-31.36 4.45-183.77 19.24-276.86a4.57 4.57 0 0 1 9 1.44c-16.37 103-19.21 279.52-19.24 281.28a4.59 4.59 0 0 1-4.57 4.51Z"></path>
    <path fill="#571519" d="M1852.27 421.93H1852a4.57 4.57 0 0 1-4.31-4.82l2.62-47.21L1729 363.18a4.57 4.57 0 0 1-4.31-4.81 4.48 4.48 0 0 1 4.82-4.32l125.86 7a4.58 4.58 0 0 1 4.31 4.82l-2.87 51.77A4.58 4.58 0 0 1 1852.27 421.93ZM1740.1 894.15h-.26L1448 878a4.56 4.56 0 0 1-4.3-4.81l29.25-528.75a4.61 4.61 0 0 1 1.51-3.15 4.66 4.66 0 0 1 3.31-1.16l88.76 4.92a4.56 4.56 0 0 1 4.31 4.81 4.51 4.51 0 0 1-4.81 4.31l-84.21-4.66-28.75 519.62L1740.35 885a4.57 4.57 0 0 1-.25 9.13ZM1477.72 1556.41a4.57 4.57 0 0 1-4.55-4.21l-20-253.07a4.57 4.57 0 0 1 9.11-.72l20 253.07a4.57 4.57 0 0 1-4.19 4.92ZM1076.83 1588.11a4.58 4.58 0 0 1-4.56-4.21l-43.86-554.82a4.62 4.62 0 0 1 1.08-3.32 4.57 4.57 0 0 1 3.12-1.59l400.89-31.69a4.52 4.52 0 0 1 4.92 4.19l21 266.19a4.57 4.57 0 1 1-9.12.72L1429.67 1002l-391.79 31 43.14 545.7 217-17.16a4.57 4.57 0 0 1 .71 9.12l-221.52 17.51Z"></path>
    <path fill="#571519" d="M1643.88 1635a4.55 4.55 0 0 1-1.62-.3l-147-55.34a4.57 4.57 0 0 1 3.23-8.55l142.71 53.73 179.92-477.92-343-129.11-29.93 79.5a4.57 4.57 0 0 1-8.55-3.22l31.54-83.78a4.57 4.57 0 0 1 5.89-2.67l351.51 132.34a4.54 4.54 0 0 1 2.67 5.88l-183.14 486.48a4.53 4.53 0 0 1-2.39 2.55A4.58 4.58 0 0 1 1643.88 1635ZM2026.28 1358.25a4.58 4.58 0 0 1-2.67-8.29l70.33-50.28-93.18-130.35-133.37 95.33 39.84 55.71a4.57 4.57 0 0 1-7.44 5.32l-42.49-59.43a4.55 4.55 0 0 1-.79-3.41 4.6 4.6 0 0 1 1.85-3l140.81-100.65a4.57 4.57 0 0 1 6.37 1.06l98.5 137.79a4.58 4.58 0 0 1-1.06 6.38l-74 52.93A4.53 4.53 0 0 1 2026.28 1358.25Z"></path>
    <path fill="#571519" d="M2064.31 1249.49a4.57 4.57 0 0 1-1.93-8.72l13.15-6.11L2008 1089.35l-148.66 69.1 36.29 78.09a4.57 4.57 0 0 1-8.29 3.85l-38.22-82.23a4.58 4.58 0 0 1 2.22-6.07l157-72.95a4.59 4.59 0 0 1 3.49-.15 4.54 4.54 0 0 1 2.58 2.36l71.4 153.6a4.6 4.6 0 0 1-2.22 6.08l-17.3 8A4.4 4.4 0 0 1 2064.31 1249.49ZM1229.22 760.71a4.57 4.57 0 0 1-.64-9.09l82.49-11.91-30-207.69a4.57 4.57 0 1 1 9-1.31l30.64 212.21a4.52 4.52 0 0 1-.86 3.39 4.6 4.6 0 0 1-3 1.79l-87 12.56A4.89 4.89 0 0 1 1229.22 760.71ZM1254.83 322.82a4.58 4.58 0 0 1-4.52-3.92l-20.79-144-362.7 52.37a4.57 4.57 0 0 1-1.31-9.05l367.23-53a4.59 4.59 0 0 1 5.18 3.87l21.44 148.48a4.57 4.57 0 0 1-3.87 5.18A4.89 4.89 0 0 1 1254.83 322.82ZM905.34 947.86a4.57 4.57 0 0 1-1.73-8.8l41.2-16.8a4.57 4.57 0 1 1 3.45 8.46l-41.2 16.81A4.49 4.49 0 0 1 905.34 947.86ZM770.39 961.83a4.56 4.56 0 0 1-4.23-2.84L724.73 857.44a4.57 4.57 0 1 1 8.46-3.45l41.43 101.55a4.57 4.57 0 0 1-2.5 6A4.44 4.44 0 0 1 770.39 961.83ZM985.1 1118.35a4.57 4.57 0 0 1-2-8.66l49.79-24.74a4.57 4.57 0 1 1 4.07 8.18l-49.8 24.74A4.45 4.45 0 0 1 985.1 1118.35ZM1016.09 1750.33a4.57 4.57 0 0 1-4.1-2.54L934.05 1590.9a4.57 4.57 0 0 1 8.18-4.07l75.91 152.8 295.46-146.78a4.57 4.57 0 1 1 4.07 8.18l-299.55 148.82A4.48 4.48 0 0 1 1016.09 1750.33ZM2232.4 1156.71c-57.33 0-104-46.31-104-103.22s46.64-103.23 104-103.23 104 46.31 104 103.23S2289.72 1156.71 2232.4 1156.71Zm0-197.31c-52.29 0-94.83 42.21-94.83 94.09s42.54 94.08 94.83 94.08 94.82-42.21 94.82-94.08S2284.68 959.4 2232.4 959.4Z"></path>
    <path fill="#571519" d="M2232.4 1135.63c-45.62 0-82.73-36.85-82.73-82.14s37.11-82.16 82.73-82.16 82.72 36.86 82.72 82.16S2278 1135.63 2232.4 1135.63Zm0-155.16c-40.58 0-73.59 32.76-73.59 73s33 73 73.59 73 73.58-32.75 73.58-73S2273 980.47 2232.4 980.47ZM2335.35 1048.61a4.57 4.57 0 0 1-1.58-8.86l47.06-17.35a15.91 15.91 0 0 0 8.56-7.17 10.74 10.74 0 0 0-5.81-15.76 15.81 15.81 0 0 0-11.17.1l-45.82 16.89a4.57 4.57 0 1 1-3.16-8.58L2369.25 991a25 25 0 0 1 17.6-.06 19.89 19.89 0 0 1 10.57 28.67A25 25 0 0 1 2384 1031l-47.06 17.34A4.37 4.37 0 0 1 2335.35 1048.61ZM1946 1520.4a104 104 0 0 1-37.44-7c-53.5-20.59-80.39-80.55-60-133.68h0a102.17 102.17 0 0 1 54.65-57.19 103.65 103.65 0 0 1 79.45-1.82c53.5 20.59 80.4 80.56 60 133.68C2026.88 1495.3 1987.61 1520.4 1946 1520.4ZM1857.08 1383h0c-18.62 48.42 5.92 103.08 54.71 121.86s103.66-5.35 122.29-53.76-5.91-103.09-54.71-121.86a94.61 94.61 0 0 0-72.49 1.64A93.13 93.13 0 0 0 1857.08 1383Z"></path>
    <path fill="#571519" d="M1946 1499.34a83.15 83.15 0 0 1-29.92-5.6c-42.57-16.38-64-64.1-47.71-106.37h0a81.35 81.35 0 0 1 43.49-45.52 83.15 83.15 0 0 1 109.17 42 81.75 81.75 0 0 1-41.73 108.45A82.57 82.57 0 0 1 1946 1499.34Zm-69.1-108.69h0c-14.45 37.57 4.6 80 42.46 94.56a73.34 73.34 0 0 0 56.26-1.28 72.59 72.59 0 0 0 37.07-96.33 74 74 0 0 0-97.15-37.38A72.3 72.3 0 0 0 1876.9 1390.65ZM2095.51 1450.51h-.37l-50.14-.71a4.57 4.57 0 0 1 .07-9.14h.06l50.14.71h.25c7.91 0 14.39-5.32 14.49-12s-6.36-12.26-14.39-12.37l-48.83-.7a4.56 4.56 0 0 1-4.5-4.63 4.76 4.76 0 0 1 4.63-4.51l48.83.69c13.06.19 23.56 9.9 23.4 21.65S2108.41 1450.51 2095.51 1450.51ZM732.55 1366.82a25.29 25.29 0 0 1-16.68-6.4 29.36 29.36 0 0 1-9.8-18.88l-40-343.8a29.4 29.4 0 0 1 5.2-20.63 25.1 25.1 0 0 1 17.61-10.55l250.6-29.15a25.18 25.18 0 0 1 19.57 6.23 29.32 29.32 0 0 1 9.79 18.88l40 343.8a29.35 29.35 0 0 1-5.2 20.63A25.13 25.13 0 0 1 986 1337.5l-250.6 29.15A25.42 25.42 0 0 1 732.55 1366.82ZM690 975.63a16.11 16.11 0 0 0-11.25 6.82 20.28 20.28 0 0 0-3.54 14.23l40 343.8a20.24 20.24 0 0 0 6.71 13 16.05 16.05 0 0 0 12.51 4L985 1328.42a16.07 16.07 0 0 0 11.25-6.81 20.24 20.24 0 0 0 3.54-14.24l-40-343.79a20.33 20.33 0 0 0-6.71-13 16.06 16.06 0 0 0-12.52-4L690 975.63Zm-.53-4.54h0Z"></path>
    <path fill="#571519" d="M707.24 1069.83a12.84 12.84 0 0 1-8.47-3.23 14.46 14.46 0 0 1-4.84-9.31l-6.22-53.5a14.5 14.5 0 0 1 2.57-10.17 12.8 12.8 0 0 1 9-5.34L935 960.86c7.27-.89 13.89 4.74 14.78 12.45l6.23 53.5c.89 7.71-4.28 14.67-11.53 15.51l-235.77 27.42A12.08 12.08 0 0 1 707.24 1069.83Zm-7.48-77 .53 4.54a3.7 3.7 0 0 0-2.59 1.6 5.41 5.41 0 0 0-.92 3.78l6.23 53.5a5.35 5.35 0 0 0 1.76 3.46 3.74 3.74 0 0 0 2.89 1l235.76-27.42c2.25-.26 3.82-2.67 3.51-5.38l-6.22-53.49c-.32-2.71-2.42-4.66-4.65-4.44L700.29 997.36ZM718.76 1170a12.2 12.2 0 0 1-8.15-3.22 14.25 14.25 0 0 1-4.52-9l-2.64-22.77c-.87-7.46 4-14.19 10.83-15h0l31.77-3.69a11.82 11.82 0 0 1 8.8 2.58 14.28 14.28 0 0 1 5.18 9.53l2.65 22.75a14.22 14.22 0 0 1-2.34 9.75 12.06 12.06 0 0 1-8.5 5.24L720.09 1170A9.89 9.89 0 0 1 718.76 1170Zm-3.42-40.85h0c-1.81.21-3.1 2.44-2.82 4.86l2.65 22.76a5.23 5.23 0 0 0 1.58 3.24 3 3 0 0 0 2.28.84l31.76-3.7a3 3 0 0 0 2-1.34 5.2 5.2 0 0 0 .79-3.51L751 1129.58a5.06 5.06 0 0 0-1.77-3.41 2.88 2.88 0 0 0-2.08-.67ZM780.42 1162.87c-6.31 0-11.85-5.2-12.67-12.18l-2.65-22.75c-.86-7.47 4-14.2 10.84-15l31.77-3.7c6.8-.84 13.12 4.64 14 12.1l2.64 22.76c.87 7.47-4 14.19-10.84 15l-31.77 3.7A11.67 11.67 0 0 1 780.42 1162.87ZM809 1118.31h-.28L777 1122h0c-1.81.21-3.1 2.44-2.82 4.86l2.65 22.75c.28 2.43 2.12 4.28 3.86 4.09l31.77-3.7c1.81-.21 3.09-2.44 2.81-4.86l-2.64-22.75C812.36 1120.11 810.75 1118.31 809 1118.31Zm-32.57-.82h0ZM842.06 1155.7a12 12 0 0 1-7.46-2.65 14.27 14.27 0 0 1-5.19-9.53l-2.65-22.75c-.86-7.48 4-14.2 10.85-15l31.76-3.69c6.83-.82 13.12 4.63 14 12.1l2.65 22.76c.86 7.47-4 14.19-10.83 15l-31.78 3.69A12.19 12.19 0 0 1 842.06 1155.7Zm28.65-44.56-.28 0-31.77 3.69h0c-1.81.21-3.1 2.44-2.82 4.86l2.65 22.75a5 5 0 0 0 1.78 3.42 3 3 0 0 0 2.07.66l31.78-3.69c1.8-.21 3.09-2.43 2.81-4.86l-2.64-22.75C874 1112.94 872.42 1111.14 870.71 1111.14Zm-32.58-.83h0ZM904.38 1107.17a12.84 12.84 0 0 1-8.47-3.23 14.46 14.46 0 0 1-4.84-9.31l-2.77-23.85a14.47 14.47 0 0 1 2.57-10.17 12.74 12.74 0 0 1 9-5.34l42.72-5a12.73 12.73 0 0 1 9.94 3.15 14.47 14.47 0 0 1 4.85 9.3l2.77 23.85c.9 7.71-4.28 14.67-11.53 15.52l-42.72 5A12.37 12.37 0 0 1 904.38 1107.17ZM944 1059.36a2.75 2.75 0 0 0-.4 0l-42.73 5h0a3.7 3.7 0 0 0-2.59 1.6 5.39 5.39 0 0 0-.91 3.77l2.77 23.86a5.37 5.37 0 0 0 1.76 3.46 3.71 3.71 0 0 0 2.89 1l42.72-5c2.25-.27 3.83-2.68 3.52-5.39l-2.78-23.84a5.35 5.35 0 0 0-1.76-3.46A3.87 3.87 0 0 0 944 1059.36Zm-43.66.45h0ZM911 1163.84c-6.67 0-12.49-5.35-13.33-12.54l-2.77-23.85a14.49 14.49 0 0 1 2.57-10.17 12.78 12.78 0 0 1 9-5.35l42.73-5c7.25-.86 13.88 4.75 14.78 12.46l2.77 23.85a14.45 14.45 0 0 1-2.58 10.17 12.75 12.75 0 0 1-9 5.34l-42.73 5A11.76 11.76 0 0 1 911 1163.84ZM907.47 1121a3.82 3.82 0 0 0-2.59 1.61 5.34 5.34 0 0 0-.91 3.77l2.77 23.85c.32 2.71 2.39 4.66 4.65 4.43l42.73-5a3.82 3.82 0 0 0 2.59-1.6 5.34 5.34 0 0 0 .91-3.77l-2.77-23.85c-.32-2.71-2.43-4.68-4.65-4.44l-42.73 5Zm-.53-4.54h0ZM725.05 1224.1a12.18 12.18 0 0 1-8.15-3.22 14.25 14.25 0 0 1-4.52-9l-2.65-22.76c-.87-7.46 4-14.19 10.84-15h0l31.78-3.69a11.83 11.83 0 0 1 8.79 2.58 14.25 14.25 0 0 1 5.19 9.53l2.65 22.75a14.33 14.33 0 0 1-2.34 9.75 12.06 12.06 0 0 1-8.5 5.24L726.37 1224A9.74 9.74 0 0 1 725.05 1224.1Zm-3.42-40.85c-1.81.21-3.1 2.44-2.82 4.86l2.65 22.76a5.26 5.26 0 0 0 1.58 3.24 3 3 0 0 0 2.27.84l31.77-3.7a3 3 0 0 0 2-1.34 5.2 5.2 0 0 0 .79-3.51l-2.65-22.76a5.07 5.07 0 0 0-1.78-3.42 2.88 2.88 0 0 0-2.07-.66ZM786.71 1216.93c-6.32 0-11.86-5.2-12.67-12.18L771.39 1182c-.86-7.48 4-14.2 10.84-15l31.77-3.7a12.15 12.15 0 0 1 9.48 3.14 14.29 14.29 0 0 1 4.51 9l2.65 22.75a14.33 14.33 0 0 1-2.34 9.75 12.09 12.09 0 0 1-8.51 5.24l-31.76 3.7A11.67 11.67 0 0 1 786.71 1216.93Zm28.63-44.56h-.28l-31.77 3.7h0c-1.81.21-3.1 2.44-2.82 4.86l2.65 22.75c.28 2.42 2.09 4.26 3.86 4.09l31.76-3.7a3 3 0 0 0 2-1.34 5.23 5.23 0 0 0 .79-3.52l-2.65-22.75a5.18 5.18 0 0 0-1.58-3.25A3 3 0 0 0 815.34 1172.37Zm-32.58-.83h0ZM848.37 1209.76a12.21 12.21 0 0 1-8.16-3.22 14.26 14.26 0 0 1-4.51-9l-2.65-22.75c-.87-7.47 4-14.19 10.84-15l31.77-3.7c6.83-.8 13.12 4.64 14 12.11L892.3 1191c.86 7.47-4 14.2-10.84 15l-31.77 3.69A11.69 11.69 0 0 1 848.37 1209.76ZM877 1165.2h-.28l-31.76 3.7h0c-1.8.21-3.09 2.44-2.81 4.86l2.64 22.75a5.31 5.31 0 0 0 1.58 3.25 3 3 0 0 0 2.28.83l31.78-3.69c1.8-.21 3.09-2.44 2.81-4.86l-2.64-22.76C880.31 1167 878.7 1165.2 877 1165.2Zm-32.57-.83h0ZM731.34 1278.16a12.18 12.18 0 0 1-8.15-3.22 14.25 14.25 0 0 1-4.52-9L716 1243.22c-.87-7.46 4-14.19 10.84-15h0l31.77-3.69a12 12 0 0 1 9.47 3.14 14.35 14.35 0 0 1 4.52 9l2.64 22.76a14.27 14.27 0 0 1-2.33 9.75 12.09 12.09 0 0 1-8.51 5.24l-31.76 3.69A9.74 9.74 0 0 1 731.34 1278.16Zm-3.42-40.85h0c-1.81.21-3.1 2.44-2.82 4.86l2.65 22.76a5.21 5.21 0 0 0 1.58 3.24 3 3 0 0 0 2.27.83l31.77-3.69a2.94 2.94 0 0 0 2-1.34 5.18 5.18 0 0 0 .8-3.52l-2.65-22.75a5.26 5.26 0 0 0-1.58-3.25 3 3 0 0 0-2.27-.83ZM793 1271c-6.32 0-11.86-5.2-12.67-12.18l-2.65-22.75c-.87-7.47 4-14.2 10.84-15h0l31.77-3.69a12.09 12.09 0 0 1 9.47 3.14 14.3 14.3 0 0 1 4.52 9l2.64 22.74c.87 7.47-4 14.2-10.83 15l-31.77 3.7A11.67 11.67 0 0 1 793 1271Zm-3.42-40.85c-1.81.21-3.1 2.44-2.82 4.86l2.65 22.75c.28 2.42 2.07 4.27 3.86 4.09l31.76-3.7c1.81-.22 3.1-2.44 2.82-4.86l-2.65-22.75a5.26 5.26 0 0 0-1.58-3.25 3.15 3.15 0 0 0-2.28-.84ZM854.66 1263.81a12.16 12.16 0 0 1-8.16-3.22 14.3 14.3 0 0 1-4.52-8.95l-2.64-22.76a14.27 14.27 0 0 1 2.87-10.47 11.89 11.89 0 0 1 8-4.52l31.77-3.7a12.11 12.11 0 0 1 9.47 3.15 14.27 14.27 0 0 1 4.52 9l2.64 22.75a14.25 14.25 0 0 1-2.34 9.76 12 12 0 0 1-8.5 5.23l-31.76 3.7A11.67 11.67 0 0 1 854.66 1263.81Zm28.62-44.55H883l-31.77 3.7h0a2.83 2.83 0 0 0-1.86 1.12 5.05 5.05 0 0 0-1 3.74l2.64 22.75a5.26 5.26 0 0 0 1.58 3.25 3 3 0 0 0 2.28.83l31.77-3.69a2.94 2.94 0 0 0 2-1.34 5.23 5.23 0 0 0 .79-3.52l-2.64-22.76a5.21 5.21 0 0 0-1.58-3.24A3.08 3.08 0 0 0 883.28 1219.26Zm-32.57-.83h0ZM737.63 1332.22a12.16 12.16 0 0 1-8.15-3.22 14.2 14.2 0 0 1-4.52-9l-2.65-22.76c-.87-7.46 4-14.19 10.84-15h0l31.77-3.69a12 12 0 0 1 9.47 3.14 14.32 14.32 0 0 1 4.52 9l2.64 22.76a14.22 14.22 0 0 1-2.34 9.75 12.05 12.05 0 0 1-8.5 5.24L739 1332.14A9.74 9.74 0 0 1 737.63 1332.22Zm-3.43-40.85c-1.8.21-3.09 2.44-2.81 4.85L734 1319a5.31 5.31 0 0 0 1.58 3.24 2.91 2.91 0 0 0 2.28.83l31.77-3.69a2.92 2.92 0 0 0 2-1.34 5.23 5.23 0 0 0 .8-3.52l-2.65-22.75a5.26 5.26 0 0 0-1.58-3.25 3 3 0 0 0-2.27-.83ZM799.28 1325.05c-6.31 0-11.85-5.2-12.66-12.18L784 1290.11c-.87-7.47 4-14.19 10.84-15h0l31.76-3.7a12.19 12.19 0 0 1 9.48 3.15 14.27 14.27 0 0 1 4.52 9l2.64 22.75c.87 7.47-4 14.2-10.83 15l-31.77 3.7A12 12 0 0 1 799.28 1325.05Zm-3.41-40.85c-1.81.21-3.1 2.43-2.82 4.85l2.64 22.76c.29 2.43 2.06 4.27 3.86 4.08l31.77-3.69c1.81-.22 3.1-2.44 2.81-4.86l-2.64-22.76a5.21 5.21 0 0 0-1.58-3.24 3 3 0 0 0-2.28-.84ZM860.94 1317.87c-6.32 0-11.85-5.2-12.67-12.18l-2.64-22.75a14.27 14.27 0 0 1 2.86-10.47 11.93 11.93 0 0 1 8-4.52l31.78-3.7a12.12 12.12 0 0 1 9.47 3.15 14.21 14.21 0 0 1 4.51 9l2.65 22.75a14.27 14.27 0 0 1-2.86 10.46 11.89 11.89 0 0 1-8 4.53l-31.76 3.7A12 12 0 0 1 860.94 1317.87Zm28.63-44.55h-.28l-31.77 3.7h0a2.84 2.84 0 0 0-1.87 1.12 5.08 5.08 0 0 0-.94 3.73l2.64 22.76c.28 2.42 2.09 4.24 3.86 4.08L893 1305a2.83 2.83 0 0 0 1.86-1.13 5.09 5.09 0 0 0 .95-3.73l-2.64-22.76a5.21 5.21 0 0 0-1.58-3.24A3.11 3.11 0 0 0 889.57 1273.32Zm-32.58-.83h0ZM712.46 1114a10.53 10.53 0 0 1-10.64-9l-1.67-14.37a10 10 0 0 1 2.14-7.39 11.15 11.15 0 0 1 7.45-4.08l16-1.87a10.56 10.56 0 0 1 12 9l1.68 14.36a10.6 10.6 0 0 1-9.58 11.48l-16.06 1.87A11.69 11.69 0 0 1 712.46 1114Zm14.64-27.7h-.26l-16.05 1.87h0a2 2 0 0 0-1.33.69.88.88 0 0 0-.22.66l1.67 14.36c.07.54.87 1.06 1.83 1l16-1.87c1-.11 1.62-.8 1.56-1.34l-1.67-14.36C728.61 1086.72 728 1086.25 727.1 1086.25Zm-16.84-2.66h0ZM761.84 1108.2a10.51 10.51 0 0 1-10.64-9l-1.67-14.37c-.66-5.63 3.64-10.78 9.57-11.48h0l16.06-1.87a10.57 10.57 0 0 1 12 9l1.67 14.36a10 10 0 0 1-2.14 7.39 11.16 11.16 0 0 1-7.44 4.09l-16.05 1.87A11.93 11.93 0 0 1 761.84 1108.2Zm-1.67-25.82h0c-1 .12-1.63.81-1.56 1.35l1.67 14.37c.06.54.83 1 1.82 1l16.06-1.87a2 2 0 0 0 1.33-.68.92.92 0 0 0 .22-.67l-1.66-14.36c-.07-.54-.87-1-1.83-1ZM811.22 1102.45a11.15 11.15 0 0 1-6.86-2.33 10 10 0 0 1-3.78-6.72L798.91 1079c-.66-5.63 3.64-10.78 9.57-11.48h0l16-1.86a11 11 0 0 1 8.17 2.27 10 10 0 0 1 3.79 6.71l1.67 14.35a10 10 0 0 1-2.14 7.4 11.19 11.19 0 0 1-7.44 4.08l-16.06 1.87A11.38 11.38 0 0 1 811.22 1102.45Zm-1.68-25.81h0c-1 .11-1.62.8-1.55 1.35l1.66 14.36a.9.9 0 0 0 .38.59 2 2 0 0 0 1.44.36l16.06-1.86a2 2 0 0 0 1.34-.69.88.88 0 0 0 .22-.66l-1.67-14.35a.89.89 0 0 0-.37-.6 2 2 0 0 0-1.45-.36ZM861.16 1096.65a11.09 11.09 0 0 1-6.46-2.06 10.14 10.14 0 0 1-4.16-7l-1.67-14.36a10 10 0 0 1 2.14-7.39 11.19 11.19 0 0 1 7.44-4.08l16-1.87a11 11 0 0 1 7.8 2 10.12 10.12 0 0 1 4.16 7l1.68 14.36a10.6 10.6 0 0 1-9.59 11.48l-16 1.87A12.19 12.19 0 0 1 861.16 1096.65Zm14.67-27.7h-.27l-16 1.87h0a2 2 0 0 0-1.32.69.89.89 0 0 0-.23.66l1.67 14.36a1 1 0 0 0 .42.63 2.11 2.11 0 0 0 1.4.32l16.06-1.87c1-.11 1.62-.8 1.56-1.34l-1.68-14.36a1 1 0 0 0-.42-.63A2 2 0 0 0 875.83 1069ZM859 1066.3h0ZM920 1308.17a4.58 4.58 0 0 1-2.83-1 4.52 4.52 0 0 1-1.7-3.06l-15.06-129.45a4.57 4.57 0 0 1 4-5.07l60-7a4.58 4.58 0 0 1 5.07 4l15.06 129.45a4.55 4.55 0 0 1-4 5.07l-60 7A4.58 4.58 0 0 1 920 1308.17Zm-10-130 14 120.38 50.88-5.92-14-120.37ZM1148.88 978.4a34.2 34.2 0 0 1-8.28-1L750.5 879.6a33.91 33.91 0 0 1-24.7-41.11L872 255.1a34 34 0 0 1 41.17-24.6l390.1 97.77a34 34 0 0 1 24.7 41.11L1181.78 952.77A34 34 0 0 1 1148.88 978.4Zm-244-739.78a24.79 24.79 0 0 0-24 18.7L734.67 840.71h0a24.78 24.78 0 0 0 18.06 30l390.11 97.78a24.82 24.82 0 0 0 30.08-18l146.21-583.39a24.79 24.79 0 0 0-18.06-30L911 239.37A24.81 24.81 0 0 0 904.92 238.62Zm-174.69 601h0Z"></path>
    <path fill="#571519" d="M715.55,868.51a12.39,12.39,0,0,1-2.72-.3l-273.18-36a4.59,4.59,0,0,1-.51-.1c-7.52-1.88-11.87-10.44-9.71-19.08L599.7,133.64c2.16-8.63,10-14.13,17.56-12.25a4.23,4.23,0,0,1,.57.19L874.41,223a13.34,13.34,0,0,1,8.37,7.31,17.44,17.44,0,0,1,1,11.68L730.1,855.9a17.39,17.39,0,0,1-6.39,9.82A13.73,13.73,0,0,1,715.55,868.51ZM441.16,823.15l273.09,36a4.35,4.35,0,0,1,.52.1,4.28,4.28,0,0,0,3.49-.9,8.44,8.44,0,0,0,3-4.7L874.92,239.76a8.49,8.49,0,0,0-.4-5.56,4.33,4.33,0,0,0-2.66-2.44,2.9,2.9,0,0,1-.57-.18L614.81,130.21c-2.55-.48-5.35,2.08-6.25,5.66L438.3,815.21l-4.44-1.11,4.44,1.11C437.4,818.8,438.71,822.37,441.16,823.15Z"></path>
    <path fill="#571519" d="M714.74 851.52a4 4 0 0 1-.6 0l-264.83-35a4.56 4.56 0 0 1-3.83-5.64L612.82 143.15a4.56 4.56 0 0 1 6.11-3.14l248.81 98.24a4.56 4.56 0 0 1 2.76 5.36L719.17 848.06A4.57 4.57 0 0 1 714.74 851.52ZM455.59 808.08l255.7 33.81L860.66 245.28 620.42 150.42ZM1011.37 747.66a9.32 9.32 0 0 1-2.34-.29l-22-5.51a10.08 10.08 0 0 1-6.5-5.3 11.85 11.85 0 0 1-.84-8.22l53.76-214.55a11.89 11.89 0 0 1 4.63-6.85 10 10 0 0 1 8.23-1.6l22 5.51c5.56 1.39 8.86 7.46 7.34 13.52L1021.9 738.91a11.87 11.87 0 0 1-4.64 6.85A10.22 10.22 0 0 1 1011.37 747.66ZM1044 514.19a1.24 1.24 0 0 0-.62.23 2.82 2.82 0 0 0-1 1.59L988.56 730.56h0a2.77 2.77 0 0 0 .14 1.88 1.07 1.07 0 0 0 .56.55l22 5.51a1 1 0 0 0 .75-.23 2.72 2.72 0 0 0 1-1.59l53.77-214.55c.32-1.27-.22-2.3-.71-2.43l-22-5.51ZM984.13 729.45h0ZM1001 789.86a10.41 10.41 0 0 1-2.52-.31l-22-5.52a10.42 10.42 0 0 1-7.57-12.63h0l4.65-18.54a10.4 10.4 0 0 1 12.63-7.57l22 5.51a10.44 10.44 0 0 1 7.58 12.63L1011.1 782A10.45 10.45 0 0 1 1001 789.86Zm-17.35-35.75a1.25 1.25 0 0 0-.65.19 1.28 1.28 0 0 0-.58.78l-4.64 18.54h0a1.23 1.23 0 0 0 .15 1 1.21 1.21 0 0 0 .78.58l22 5.52a1.29 1.29 0 0 0 1.54-.93l4.65-18.53a1.3 1.3 0 0 0-.93-1.56l-22-5.5A1.32 1.32 0 0 0 983.64 754.11Zm-10.31 18.4h0ZM991.05 829.54a10.43 10.43 0 0 1-2.53-.31l-22-5.51A10.43 10.43 0 0 1 959 811.08l4.65-18.54A10.42 10.42 0 0 1 976.23 785l22 5.5a10.44 10.44 0 0 1 7.57 12.64l-4.64 18.54A10.45 10.45 0 0 1 991.05 829.54ZM973.7 793.8a1.29 1.29 0 0 0-1.24 1l-4.64 18.53h0a1.27 1.27 0 0 0 .92 1.55l22 5.51a1.27 1.27 0 0 0 1.55-.92l4.64-18.54a1.28 1.28 0 0 0-.93-1.55l-22-5.51A1.06 1.06 0 0 0 973.7 793.8Zm-10.31 18.39h0ZM981.1 869.23a10.43 10.43 0 0 1-2.52-.32l-22-5.51A10.43 10.43 0 0 1 949 850.77h0l4.65-18.54a10.42 10.42 0 0 1 12.63-7.57l22 5.51a10.4 10.4 0 0 1 7.57 12.64l-4.65 18.53A10.42 10.42 0 0 1 981.1 869.23ZM957.87 853a1.28 1.28 0 0 0 .93 1.54l22 5.52a1.29 1.29 0 0 0 1.54-.93L987 840.58a1.29 1.29 0 0 0-.93-1.55l-22-5.51a1.19 1.19 0 0 0-1 .15 1.28 1.28 0 0 0-.58.78ZM971.16 908.91a10 10 0 0 1-2.53-.32l-22-5.51a10.43 10.43 0 0 1-7.57-12.63l4.65-18.54a10.4 10.4 0 0 1 12.63-7.57l22 5.51a10.44 10.44 0 0 1 7.57 12.63L981.26 901A10.43 10.43 0 0 1 971.16 908.91ZM953.8 873.17a1.29 1.29 0 0 0-.65.18 1.23 1.23 0 0 0-.57.78l-4.65 18.54h0a1.28 1.28 0 0 0 .93 1.55l22 5.51a1.28 1.28 0 0 0 1.55-.93L977 880.26a1.27 1.27 0 0 0-.93-1.54l-22-5.51A1.22 1.22 0 0 0 953.8 873.17Zm-10.3 18.39h0Z"></path>
    <path fill="#571519" d="M931.81 897.73a10.15 10.15 0 0 1-2.56-.32l-22-5.51a10.42 10.42 0 0 1-7.57-12.63l15.06-60.1a10.44 10.44 0 0 1 12.64-7.57l22 5.51A10.42 10.42 0 0 1 957 829.75l-15.06 60.09a10.41 10.41 0 0 1-10.08 7.89Zm-6.95-77.3a1.29 1.29 0 0 0-1.25 1l-15.06 60.09h0a1.28 1.28 0 0 0 .93 1.55l22 5.51a1.25 1.25 0 0 0 1-.14 1.3 1.3 0 0 0 .58-.79l15.06-60.1a1.27 1.27 0 0 0-.92-1.54l-22-5.51A1 1 0 0 0 924.86 820.43Zm-20.74 60h0ZM961.31 779.91a10.55 10.55 0 0 1-2.53-.31l-22-5.51a10.4 10.4 0 0 1-7.57-12.64l4.64-18.54a10.45 10.45 0 0 1 12.64-7.57l22 5.52a10.42 10.42 0 0 1 7.57 12.63L971.42 772A10.44 10.44 0 0 1 961.31 779.91ZM944 744.17a1.27 1.27 0 0 0-1.24 1l-4.65 18.53h0a1.28 1.28 0 0 0 .93 1.55l22 5.51a1.28 1.28 0 0 0 1.55-.92l4.64-18.54a1.22 1.22 0 0 0-.14-1 1.28 1.28 0 0 0-.78-.58l-22-5.51A1.15 1.15 0 0 0 944 744.17Zm-10.32 18.39h0Z"></path>
    <path fill="#571519" d="M951.39 819.6a10.54 10.54 0 0 1-2.55-.32l-22-5.51a10.44 10.44 0 0 1-7.57-12.63h0l4.65-18.53A10.42 10.42 0 0 1 936.54 775l22 5.51a10.41 10.41 0 0 1 7.58 12.63l-4.65 18.54a10.44 10.44 0 0 1-10.08 7.89Zm-23.25-16.25a1.29 1.29 0 0 0 .93 1.56l22 5.51a1.34 1.34 0 0 0 1-.14 1.26 1.26 0 0 0 .58-.79L957.25 791a1.27 1.27 0 0 0-.92-1.54l-22-5.52a1.28 1.28 0 0 0-1.55.93ZM981.23 700.55a10.69 10.69 0 0 1-2.56-.32l-22-5.51a10.45 10.45 0 0 1-7.58-12.63h0l4.65-18.54A10.42 10.42 0 0 1 966.39 656l22 5.51A10.42 10.42 0 0 1 996 674.12l-4.64 18.54a10.44 10.44 0 0 1-10.08 7.89ZM958 684.3a1.29 1.29 0 0 0 .93 1.55l22 5.51a1.19 1.19 0 0 0 1-.14 1.24 1.24 0 0 0 .58-.78l4.65-18.54a1.28 1.28 0 0 0-.93-1.55l-22-5.51a1.28 1.28 0 0 0-1.54.93ZM971.25 740.23a10.47 10.47 0 0 1-2.52-.31l-22-5.52a10.4 10.4 0 0 1-7.58-12.63h0l4.65-18.54a10.42 10.42 0 0 1 12.63-7.57l22 5.51A10.44 10.44 0 0 1 986 713.8l-4.65 18.54A10.43 10.43 0 0 1 971.25 740.23ZM953.9 704.48a1.24 1.24 0 0 0-.64.19 1.21 1.21 0 0 0-.58.78L948 724h0a1.24 1.24 0 0 0 .14 1 1.21 1.21 0 0 0 .78.58l22 5.52a1.29 1.29 0 0 0 1.55-.93l4.65-18.53a1.3 1.3 0 0 0-.94-1.56l-22-5.5A1.25 1.25 0 0 0 953.9 704.48Zm-10.3 18.4h0ZM1001.12 621.18a10.07 10.07 0 0 1-2.55-.32l-22-5.51A10.43 10.43 0 0 1 969 602.71l4.65-18.53a10.4 10.4 0 0 1 12.63-7.57l22 5.51a10.44 10.44 0 0 1 7.57 12.63l-4.65 18.54a10.44 10.44 0 0 1-10.08 7.89Zm-17.38-35.74a1.26 1.26 0 0 0-.65.18 1.24 1.24 0 0 0-.58.78l-4.64 18.54h0a1.29 1.29 0 0 0 .94 1.55l22 5.51a1.29 1.29 0 0 0 1-.14 1.26 1.26 0 0 0 .58-.79l4.65-18.54a1.27 1.27 0 0 0-.93-1.54l-22-5.51A1.22 1.22 0 0 0 983.74 585.44Zm-10.31 18.38h0ZM991.15 660.86a10.49 10.49 0 0 1-2.53-.31l-22-5.52a10.41 10.41 0 0 1-7.56-12.63l4.64-18.54a10.42 10.42 0 0 1 12.64-7.57l22 5.51a10.43 10.43 0 0 1 7.57 12.64L1001.26 653A10.45 10.45 0 0 1 991.15 660.86Zm-17.36-35.74a1.29 1.29 0 0 0-1.23 1l-4.64 18.53h0a1.31 1.31 0 0 0 .14 1 1.26 1.26 0 0 0 .78.57l22 5.52a1.29 1.29 0 0 0 1.55-.93L997 632.22a1.27 1.27 0 0 0-.92-1.55l-22-5.51A1.22 1.22 0 0 0 973.79 625.12Zm-10.3 18.39h0ZM892.09 887.8a10.47 10.47 0 0 1-2.52-.31l-22-5.52A10.39 10.39 0 0 1 860 869.34l12.71-50.75A10.45 10.45 0 0 1 885.35 811l22 5.52a10.4 10.4 0 0 1 7.57 12.63l-12.71 50.75A10.45 10.45 0 0 1 892.09 887.8Zm-9.26-68a1.29 1.29 0 0 0-1.24 1l-12.72 50.75h0a1.27 1.27 0 0 0 .92 1.54l22 5.52a1.3 1.3 0 0 0 1.55-.93l12.72-50.75a1.28 1.28 0 0 0-.14-1 1.23 1.23 0 0 0-.79-.58l-22-5.52A1.54 1.54 0 0 0 882.83 819.84Zm-18.39 50.61h0Z"></path>
    <path fill="#571519" d="M911.68 809.65a10.09 10.09 0 0 1-2.53-.32l-22-5.51a10.42 10.42 0 0 1-7.57-12.63l4.64-18.54a10.42 10.42 0 0 1 12.64-7.57l22 5.51a10.43 10.43 0 0 1 7.57 12.64l-4.64 18.54A10.44 10.44 0 0 1 911.68 809.65Zm-17.35-35.74a1.26 1.26 0 0 0-.65.18 1.21 1.21 0 0 0-.58.79l-4.65 18.53h0a1.28 1.28 0 0 0 .93 1.55l22 5.51a1.28 1.28 0 0 0 1.55-.93L917.56 781a1.27 1.27 0 0 0-.92-1.55l-22-5.51A1.15 1.15 0 0 0 894.33 773.91ZM884 792.3h0ZM852.13 879.07a10.2 10.2 0 0 1-2.56-.32l-22-5.51A10.43 10.43 0 0 1 820 860.61h0l4.65-18.54a10.4 10.4 0 0 1 12.63-7.56l22 5.51a10.4 10.4 0 0 1 7.56 12.63l-4.64 18.54a10.41 10.41 0 0 1-10.08 7.88Zm-23.25-16.25h0a1.28 1.28 0 0 0 .92 1.56l22 5.51a1.24 1.24 0 0 0 1-.14 1.21 1.21 0 0 0 .58-.78L858 850.43a1.27 1.27 0 0 0-.93-1.55l-22-5.51a1.26 1.26 0 0 0-1 .14 1.31 1.31 0 0 0-.58.78ZM862.05 839.39a10.09 10.09 0 0 1-2.53-.32l-22-5.51A10.4 10.4 0 0 1 830 820.93l4.64-18.54a10.42 10.42 0 0 1 12.64-7.57l22 5.51A10.43 10.43 0 0 1 876.8 813l-4.64 18.53A10.45 10.45 0 0 1 862.05 839.39ZM844.7 803.65a1.26 1.26 0 0 0-.65.18 1.21 1.21 0 0 0-.58.78l-4.65 18.54h0a1.27 1.27 0 0 0 .15 1 1.21 1.21 0 0 0 .77.57l22 5.52a1.29 1.29 0 0 0 1.55-.93l4.64-18.54a1.26 1.26 0 0 0-.92-1.54l-22-5.51A1.15 1.15 0 0 0 844.7 803.65ZM834.39 822h0Z"></path>
    <path fill="#571519" d="M812.42 869.13a10 10 0 0 1-2.53-.32l-22-5.51a10.4 10.4 0 0 1-7.56-12.64L785 832.13a10.44 10.44 0 0 1 12.63-7.58l22 5.52a10.42 10.42 0 0 1 7.57 12.64l-4.64 18.53A10.45 10.45 0 0 1 812.42 869.13Zm-17.34-35.75a1.3 1.3 0 0 0-1.25 1l-4.63 18.52h0a1.23 1.23 0 0 0 .15 1 1.25 1.25 0 0 0 .78.59l22 5.51a1.28 1.28 0 0 0 1.55-.94l4.64-18.53a1.26 1.26 0 0 0-.91-1.54l-22-5.52A1.76 1.76 0 0 0 795.08 833.38Zm-10.32 18.39h0ZM822.37 829.44a10.09 10.09 0 0 1-2.53-.32l-22-5.5A10.44 10.44 0 0 1 790.27 811l4.65-18.54a10.4 10.4 0 0 1 12.63-7.56l22 5.5A10.42 10.42 0 0 1 837.12 803l-4.65 18.54A10.43 10.43 0 0 1 822.37 829.44ZM805 793.7a1.29 1.29 0 0 0-1.23 1l-4.64 18.55h0a1.27 1.27 0 0 0 .93 1.54l22 5.51a1.28 1.28 0 0 0 1-.14 1.25 1.25 0 0 0 .59-.78l4.64-18.54a1.28 1.28 0 0 0-.93-1.55l-22-5.51A1.22 1.22 0 0 0 805 793.7ZM794.7 812.09h0ZM769.67 858.41a10.49 10.49 0 0 1-2.53-.31l-11.87-3a10.42 10.42 0 0 1-7.57-12.63L752.35 824A10.4 10.4 0 0 1 765 816.38l11.87 3A10.44 10.44 0 0 1 784.42 832l-4.64 18.54A10.45 10.45 0 0 1 769.67 858.41Zm-7.23-33.2a1.26 1.26 0 0 0-.65.18 1.24 1.24 0 0 0-.58.78l-4.65 18.54h0a1.23 1.23 0 0 0 .15 1 1.25 1.25 0 0 0 .78.59l11.87 3a1.28 1.28 0 0 0 1.55-.93l4.64-18.53a1.26 1.26 0 0 0-.93-1.55l-11.87-3A1.15 1.15 0 0 0 762.44 825.21ZM752.13 843.6h0ZM1080.59 472.39a10.2 10.2 0 0 1-2.56-.32l-22-5.51a10.43 10.43 0 0 1-7.57-12.64l4.65-18.53a10.4 10.4 0 0 1 12.63-7.57l22 5.51a10.44 10.44 0 0 1 7.58 12.63l-4.65 18.54a10.44 10.44 0 0 1-10.08 7.89Zm-17.38-35.75a1.28 1.28 0 0 0-.65.19 1.25 1.25 0 0 0-.58.78h0l-4.65 18.54a1.29 1.29 0 0 0 .93 1.55l22 5.51a1.29 1.29 0 0 0 1-.15 1.21 1.21 0 0 0 .58-.78l4.65-18.54a1.27 1.27 0 0 0-.93-1.54l-22-5.51A1.18 1.18 0 0 0 1063.21 436.64Zm-5.66-.14h0ZM1090.51 432.7a10.43 10.43 0 0 1-2.53-.31l-22-5.51a10.4 10.4 0 0 1-7.56-12.64l4.64-18.54h0a10.43 10.43 0 0 1 12.64-7.56l22 5.51a10.42 10.42 0 0 1 7.57 12.64l-4.64 18.53A10.45 10.45 0 0 1 1090.51 432.7Zm-18.59-34.77-4.64 18.54a1.27 1.27 0 0 0 .93 1.54l22 5.51a1.27 1.27 0 0 0 1.55-.93l4.64-18.53a1.22 1.22 0 0 0-.14-1 1.28 1.28 0 0 0-.78-.58l-22-5.51a1.29 1.29 0 0 0-1.55.93ZM1100.45 393a10.41 10.41 0 0 1-2.52-.31l-22-5.52a10.42 10.42 0 0 1-7.57-12.63L1073 356h0a10.43 10.43 0 0 1 12.63-7.57l22 5.51a10.44 10.44 0 0 1 7.57 12.63l-4.65 18.55A10.43 10.43 0 0 1 1100.45 393Zm-18.58-34.78-4.64 18.54a1.28 1.28 0 0 0 .92 1.55l22 5.51a1.28 1.28 0 0 0 1.55-.93l4.64-18.53a1.28 1.28 0 0 0-.93-1.55l-22-5.51a1.28 1.28 0 0 0-1.55.92ZM1110.42 353.34a10.6 10.6 0 0 1-2.55-.32l-22-5.51a10.44 10.44 0 0 1-7.58-12.63l4.65-18.54h0a10.44 10.44 0 0 1 12.64-7.57l22 5.51a10.42 10.42 0 0 1 7.57 12.64l-4.65 18.53a10.42 10.42 0 0 1-10.08 7.89Zm-18.6-34.78-4.65 18.54a1.27 1.27 0 0 0 .93 1.54l22 5.52a1.28 1.28 0 0 0 1.54-.93l4.65-18.54a1.23 1.23 0 0 0-.15-1 1.25 1.25 0 0 0-.78-.59l-22-5.5a1.26 1.26 0 0 0-1.54.92Z"></path>
    <path fill="#571519" d="M1060 386.19a10.57 10.57 0 0 1-2.53-.32l-22-5.51a10.43 10.43 0 0 1-7.56-12.64L1043 307.63a10.4 10.4 0 0 1 12.63-7.57l22 5.51a10.44 10.44 0 0 1 7.57 12.63l-15.06 60.1A10.45 10.45 0 0 1 1060 386.19Zm-6.94-77.31a1.16 1.16 0 0 0-.64.19 1.19 1.19 0 0 0-.58.77h0L1036.77 370a1.26 1.26 0 0 0 .92 1.54l22 5.51a1.27 1.27 0 0 0 1.55-.92l15.06-60.1a1.28 1.28 0 0 0-.93-1.55l-22-5.51A1.22 1.22 0 0 0 1053.05 308.88Zm-5.66-.14h0ZM1040.9 462.44a10.53 10.53 0 0 1-2.55-.31l-22-5.51a10.43 10.43 0 0 1-7.56-12.64l4.64-18.54h0a10.45 10.45 0 0 1 12.63-7.57l22 5.52a10.42 10.42 0 0 1 7.57 12.63L1051 454.56a10.41 10.41 0 0 1-10.09 7.88Zm-18.6-34.77-4.65 18.53a1.28 1.28 0 0 0 .93 1.55l22 5.51a1.32 1.32 0 0 0 1-.14 1.3 1.3 0 0 0 .58-.79l4.64-18.53a1.26 1.26 0 0 0-.14-1 1.28 1.28 0 0 0-.78-.58l-22-5.51A1.27 1.27 0 0 0 1022.3 427.67Z"></path>
    <path fill="#571519" d="M1050.83 422.76a10 10 0 0 1-2.53-.32l-22-5.51a10.42 10.42 0 0 1-7.57-12.64l4.65-18.53a10.42 10.42 0 0 1 12.63-7.57l22 5.51a10.44 10.44 0 0 1 7.57 12.63l-4.65 18.54A10.44 10.44 0 0 1 1050.83 422.76ZM1033.48 387a1.28 1.28 0 0 0-1.24 1h0l-4.64 18.54a1.19 1.19 0 0 0 .14 1 1.21 1.21 0 0 0 .78.58l22 5.52a1.29 1.29 0 0 0 1.55-.93l4.64-18.54a1.27 1.27 0 0 0-.93-1.54l-22-5.51A1.1 1.1 0 0 0 1033.48 387Zm-5.67-.15h0ZM1021 541.81a10.43 10.43 0 0 1-2.53-.31l-22-5.52a10.42 10.42 0 0 1-7.57-12.63l4.65-18.54h0a10.43 10.43 0 0 1 12.63-7.57l22 5.52a10.41 10.41 0 0 1 7.56 12.63l-4.64 18.53A10.43 10.43 0 0 1 1021 541.81ZM1002.4 507l-4.64 18.54a1.27 1.27 0 0 0 .92 1.55l22 5.51a1.28 1.28 0 0 0 1.55-.93l4.64-18.53a1.25 1.25 0 0 0-.14-1 1.27 1.27 0 0 0-.78-.58l-22-5.52a1.29 1.29 0 0 0-1.55.93ZM1030.94 502.12a10.57 10.57 0 0 1-2.54-.31l-22-5.51a10.42 10.42 0 0 1-7.57-12.63l4.64-18.55h0a10.43 10.43 0 0 1 12.63-7.56l22 5.51a10.44 10.44 0 0 1 7.58 12.64L1041 494.24A10.44 10.44 0 0 1 1030.94 502.12Zm-18.59-34.77-4.64 18.54a1.26 1.26 0 0 0 .92 1.54l22 5.51a1.26 1.26 0 0 0 1.54-.92l4.65-18.54a1.28 1.28 0 0 0-.93-1.55l-22-5.51a1.28 1.28 0 0 0-1.55.93ZM1011 581.49a10.41 10.41 0 0 1-2.52-.31l-22-5.52A10.4 10.4 0 0 1 978.94 563l4.65-18.53a10.42 10.42 0 0 1 12.64-7.58l22 5.52a10.42 10.42 0 0 1 7.57 12.63l-4.65 18.54A10.41 10.41 0 0 1 1011 581.49Zm-17.35-35.74a1.27 1.27 0 0 0-1.23 1h0l-4.65 18.53a1.27 1.27 0 0 0 .92 1.55l22 5.52a1.3 1.3 0 0 0 1.55-.93l4.65-18.54a1.23 1.23 0 0 0-.15-1 1.25 1.25 0 0 0-.78-.59l-22-5.51A1.27 1.27 0 0 0 993.69 545.75Zm-5.66-.14h0ZM1022.68 366.88a10.07 10.07 0 0 1-2.55-.32l-22-5.51a10.43 10.43 0 0 1-7.57-12.63l12.72-50.75a10.4 10.4 0 0 1 12.64-7.57l22 5.51a10.42 10.42 0 0 1 7.57 12.63L1032.77 359a10.43 10.43 0 0 1-10.09 7.89Zm-9.3-68a1.36 1.36 0 0 0-.65.18 1.23 1.23 0 0 0-.58.79h0l-12.72 50.75a1.28 1.28 0 0 0 .92 1.55l22 5.51a1.22 1.22 0 0 0 1-.15 1.28 1.28 0 0 0 .58-.78L1036.62 306a1.29 1.29 0 0 0-.93-1.55l-22-5.51A1.76 1.76 0 0 0 1013.38 298.92Zm-5.66-.14h0Z"></path>
    <path fill="#571519" d="M1011.16 412.81a10.59 10.59 0 0 1-2.55-.31l-22-5.51A10.45 10.45 0 0 1 979 394.35l4.65-18.54h0a10.43 10.43 0 0 1 12.63-7.57l22 5.52a10.4 10.4 0 0 1 7.57 12.63l-4.64 18.54a10.41 10.41 0 0 1-10.09 7.88ZM992.56 378l-4.65 18.53a1.28 1.28 0 0 0 .93 1.55l22 5.51a1.26 1.26 0 0 0 1-.14 1.31 1.31 0 0 0 .58-.78l4.65-18.54a1.31 1.31 0 0 0-.14-1 1.33 1.33 0 0 0-.79-.58l-22-5.51a1.25 1.25 0 0 0-1 .14 1.27 1.27 0 0 0-.58.79ZM991.37 323.5a10.07 10.07 0 0 1-2.55-.32l-22-5.51A10.4 10.4 0 0 1 959.26 305l4.64-18.54h0a10.44 10.44 0 0 1 12.64-7.57l22 5.51a10.42 10.42 0 0 1 7.57 12.64l-4.64 18.53a10.43 10.43 0 0 1-10.09 7.89Zm-18.6-34.78-4.65 18.54a1.32 1.32 0 0 0 .14 1 1.26 1.26 0 0 0 .78.57l22 5.52a1.22 1.22 0 0 0 1-.15 1.28 1.28 0 0 0 .58-.78l4.64-18.54a1.27 1.27 0 0 0-.92-1.54l-22-5.51A1.27 1.27 0 0 0 972.77 288.72ZM981.41 363.18a10.43 10.43 0 0 1-2.53-.31l-22-5.52a10.42 10.42 0 0 1-7.57-12.63L954 326.18h0a10.4 10.4 0 0 1 12.63-7.57l22 5.52a10.4 10.4 0 0 1 7.57 12.64l-4.64 18.53A10.43 10.43 0 0 1 981.41 363.18Zm-18.59-34.77-4.65 18.53a1.28 1.28 0 0 0 .93 1.55l22 5.51a1.26 1.26 0 0 0 1.54-.92l4.65-18.54a1.27 1.27 0 0 0-.93-1.55l-22-5.51a1.27 1.27 0 0 0-1.55.93Z"></path>
    <path fill="#571519" d="M951.67 313.55a10.43 10.43 0 0 1-2.53-.31l-22-5.51a10.42 10.42 0 0 1-7.57-12.64l4.65-18.54A10.4 10.4 0 0 1 936.85 269l22 5.51a10.45 10.45 0 0 1 7.57 12.64l-4.65 18.54A10.43 10.43 0 0 1 951.67 313.55Zm-17.36-35.74a1.32 1.32 0 0 0-.65.18 1.26 1.26 0 0 0-.57.78h0l-4.65 18.53a1.27 1.27 0 0 0 .92 1.55l22 5.51a1.28 1.28 0 0 0 1.55-.92l4.64-18.54a1.28 1.28 0 0 0-.93-1.55l-22-5.51A1.22 1.22 0 0 0 934.31 277.81Zm-5.66-.14h0ZM941.72 353.24a10 10 0 0 1-2.53-.32l-22-5.51a10.4 10.4 0 0 1-7.56-12.64l4.64-18.53h0a10.43 10.43 0 0 1 12.64-7.56l22 5.51a10.43 10.43 0 0 1 7.57 12.64l-4.64 18.53A10.45 10.45 0 0 1 941.72 353.24Zm-18.59-34.77L918.49 337a1.27 1.27 0 0 0 .92 1.54l22 5.52a1.28 1.28 0 0 0 1.55-.94l4.64-18.53a1.28 1.28 0 0 0-.92-1.55l-22-5.51a1.28 1.28 0 0 0-1.55.94ZM908.92 302.84a10 10 0 0 1-2.53-.32l-11.88-3a10.44 10.44 0 0 1-7.57-12.63l4.65-18.54h0a10.41 10.41 0 0 1 12.63-7.57l11.87 3a10.43 10.43 0 0 1 7.58 12.63L919 295A10.44 10.44 0 0 1 908.92 302.84Zm-8.47-32.24-4.64 18.53a1.28 1.28 0 0 0 .92 1.55l11.88 3a1.26 1.26 0 0 0 1.54-.93l4.65-18.54a1.27 1.27 0 0 0-.93-1.54l-11.87-3a1.3 1.3 0 0 0-1.55.93ZM1070.62 512.07a10.43 10.43 0 0 1-2.53-.31l-22-5.51a10.44 10.44 0 0 1-7.57-12.64l4.64-18.54h0a10.44 10.44 0 0 1 12.63-7.57l22 5.52a10.39 10.39 0 0 1 7.56 12.63l-4.64 18.53A10.43 10.43 0 0 1 1070.62 512.07ZM1052 477.3l-4.64 18.53a1.28 1.28 0 0 0 .93 1.55l22 5.51a1.27 1.27 0 0 0 1.55-.93l4.64-18.53a1.25 1.25 0 0 0-.92-1.54l-22-5.52a1.28 1.28 0 0 0-1.55.93ZM921.65 770a10.69 10.69 0 0 1-2.56-.32l-22-5.51a10.42 10.42 0 0 1-7.57-12.64L894.18 733a10.42 10.42 0 0 1 12.63-7.57l22 5.51a10.42 10.42 0 0 1 7.57 12.63l-4.65 18.54A10.44 10.44 0 0 1 921.65 770Zm-17.37-35.75a1.27 1.27 0 0 0-1.23 1l-4.65 18.54h0a1.26 1.26 0 0 0 .93 1.54l22 5.51a1.19 1.19 0 0 0 1-.14 1.25 1.25 0 0 0 .59-.79l4.64-18.53a1.24 1.24 0 0 0-.14-1 1.21 1.21 0 0 0-.78-.58l-22-5.52A1.65 1.65 0 0 0 904.28 734.22ZM894 752.62h0ZM941.52 690.6a10 10 0 0 1-2.53-.32l-22-5.51a10.41 10.41 0 0 1-7.56-12.63l4.64-18.54A10.44 10.44 0 0 1 926.7 646l22 5.52a10.4 10.4 0 0 1 7.57 12.63l-4.64 18.53A10.45 10.45 0 0 1 941.52 690.6Zm-17.34-35.74a1.29 1.29 0 0 0-1.25 1l-4.64 18.53h0a1.28 1.28 0 0 0 .92 1.55l22 5.51a1.28 1.28 0 0 0 1.55-.93L947.4 662a1.27 1.27 0 0 0-.92-1.55l-22-5.52Zm-10.32 18.39h0ZM931.6 730.28A10.2 10.2 0 0 1 929 730l-22-5.5a10.43 10.43 0 0 1-7.57-12.63h0l4.64-18.54a10.43 10.43 0 0 1 12.64-7.56l22 5.51a10.38 10.38 0 0 1 7.57 12.63l-4.64 18.54a10.41 10.41 0 0 1-10.08 7.88ZM908.34 714a1.28 1.28 0 0 0 .94 1.55l22 5.51a1.24 1.24 0 0 0 1-.14 1.27 1.27 0 0 0 .58-.78l4.65-18.54a1.32 1.32 0 0 0-.14-1 1.3 1.3 0 0 0-.79-.58l-22-5.51a1.27 1.27 0 0 0-1.54.93ZM961.4 611.23a10.33 10.33 0 0 1-2.51-.31l-22-5.52a10.4 10.4 0 0 1-7.57-12.63L934 574.23a10.43 10.43 0 0 1 12.64-7.57l22 5.51a10.41 10.41 0 0 1 7.57 12.64l-4.64 18.53A10.45 10.45 0 0 1 961.4 611.23Zm-17.33-35.74a1.28 1.28 0 0 0-1.24 1L938.18 595h0a1.26 1.26 0 0 0 .15 1 1.21 1.21 0 0 0 .77.57l22 5.52a1.28 1.28 0 0 0 1.55-.93l4.64-18.53a1.27 1.27 0 0 0-.92-1.55l-22-5.51A1.15 1.15 0 0 0 944.07 575.49Zm-10.32 18.39h0ZM951.47 650.91a10.43 10.43 0 0 1-2.53-.31l-22-5.51a10.42 10.42 0 0 1-7.57-12.63L924 613.91a10.41 10.41 0 0 1 12.63-7.56l22 5.51a10.41 10.41 0 0 1 7.58 12.63L961.57 643A10.43 10.43 0 0 1 951.47 650.91Zm-17.36-35.74a1.36 1.36 0 0 0-.65.18 1.31 1.31 0 0 0-.58.78l-4.64 18.55h0a1.24 1.24 0 0 0 .15 1 1.21 1.21 0 0 0 .78.58l22 5.51a1.24 1.24 0 0 0 1-.14 1.21 1.21 0 0 0 .58-.78l4.65-18.54a1.29 1.29 0 0 0-.93-1.55l-22-5.51A2 2 0 0 0 934.11 615.17Zm-10.31 18.4h0ZM1001.2 452.49a10.43 10.43 0 0 1-2.53-.31l-22-5.51A10.42 10.42 0 0 1 969.1 434l4.65-18.53a10.4 10.4 0 0 1 12.63-7.57l22 5.51a10.44 10.44 0 0 1 7.57 12.63l-4.65 18.54A10.42 10.42 0 0 1 1001.2 452.49Zm-17.36-35.74a1.3 1.3 0 0 0-1.23 1h0L978 436.26a1.19 1.19 0 0 0 .14 1 1.21 1.21 0 0 0 .78.58l22 5.51a1.27 1.27 0 0 0 1.54-.92l4.65-18.54a1.28 1.28 0 0 0-.93-1.55l-22-5.51A1.22 1.22 0 0 0 983.84 416.75Zm-5.66-.14h0ZM981.32 531.86a10.45 10.45 0 0 1-2.54-.31l-22-5.51a10.43 10.43 0 0 1-7.57-12.63l4.65-18.54h0a10.41 10.41 0 0 1 12.63-7.56l22 5.51a10.4 10.4 0 0 1 7.57 12.64L991.41 524a10.41 10.41 0 0 1-10.09 7.88Zm-18.6-34.77-4.65 18.53a1.28 1.28 0 0 0 .93 1.55l22 5.51a1.27 1.27 0 0 0 1.54-.92l4.65-18.54a1.28 1.28 0 0 0-.93-1.55l-22-5.51a1.26 1.26 0 0 0-1 .14 1.3 1.3 0 0 0-.58.79ZM991.27 492.18a10.07 10.07 0 0 1-2.55-.32l-22-5.51a10.42 10.42 0 0 1-7.56-12.63l4.64-18.54h0a10.43 10.43 0 0 1 12.64-7.57l22 5.51a10.43 10.43 0 0 1 7.57 12.64l-4.64 18.53a10.43 10.43 0 0 1-10.09 7.89Zm-18.6-34.78L968 475.94a1.28 1.28 0 0 0 .93 1.55l22 5.51a1.26 1.26 0 0 0 1-.14 1.3 1.3 0 0 0 .58-.79l4.64-18.54a1.27 1.27 0 0 0-.92-1.54l-22-5.51A1.27 1.27 0 0 0 972.67 457.4ZM971.38 571.55a10.69 10.69 0 0 1-2.56-.32l-22-5.51a10.42 10.42 0 0 1-7.58-12.64l4.65-18.53A10.41 10.41 0 0 1 956.55 527l22 5.51a10.44 10.44 0 0 1 7.57 12.63l-4.65 18.54a10.41 10.41 0 0 1-10.08 7.89ZM954 535.81a1.29 1.29 0 0 0-.65.18 1.23 1.23 0 0 0-.57.78h0l-4.65 18.54a1.26 1.26 0 0 0 .93 1.54l22 5.51a1.23 1.23 0 0 0 1-.14 1.28 1.28 0 0 0 .58-.78l4.64-18.54a1.27 1.27 0 0 0-.93-1.54l-22-5.51A1.22 1.22 0 0 0 954 535.81Zm-5.66-.15h0ZM872 799.71a10.54 10.54 0 0 1-2.55-.32l-22-5.51a10.43 10.43 0 0 1-7.57-12.64l4.65-18.53a10.4 10.4 0 0 1 12.63-7.57l22 5.51a10.44 10.44 0 0 1 7.57 12.63l-4.65 18.54A10.44 10.44 0 0 1 872 799.71ZM854.64 764a1.32 1.32 0 0 0-.65.19 1.21 1.21 0 0 0-.57.77l-4.65 18.54h0a1.27 1.27 0 0 0 .93 1.55l22 5.51a1.24 1.24 0 0 0 1-.14 1.21 1.21 0 0 0 .58-.79l4.65-18.53a1.28 1.28 0 0 0-.93-1.55L855 764A1.87 1.87 0 0 0 854.64 764Zm-10.31 18.39h0ZM971.46 402.87a10.44 10.44 0 0 1-2.53-.32l-22-5.51a10.42 10.42 0 0 1-7.57-12.64L944 365.87h0a10.43 10.43 0 0 1 12.63-7.57l22 5.51a10.43 10.43 0 0 1 7.57 12.63L981.56 395A10.44 10.44 0 0 1 971.46 402.87Zm-18.59-34.78-4.64 18.54a1.27 1.27 0 0 0 .92 1.54l22 5.52a1.27 1.27 0 0 0 1.55-.93l4.64-18.54a1.28 1.28 0 0 0-.92-1.55l-22-5.51a1.29 1.29 0 0 0-1.55.93Z"></path>
    <path fill="#571519" d="M881.94 760a10.41 10.41 0 0 1-2.52-.31l-22-5.52a10.42 10.42 0 0 1-7.57-12.63h0L854.5 723a10.4 10.4 0 0 1 12.63-7.57l22 5.51a10.43 10.43 0 0 1 7.56 12.64L892 752.14A10.41 10.41 0 0 1 881.94 760Zm-23.23-16.24a1.28 1.28 0 0 0 .93 1.55l22 5.51a1.28 1.28 0 0 0 1.54-.92l4.65-18.54a1.28 1.28 0 0 0-.93-1.55l-22-5.51a1.27 1.27 0 0 0-1.55.93ZM901.86 680.65a10.07 10.07 0 0 1-2.55-.32l-22-5.51a10.42 10.42 0 0 1-7.57-12.63h0l4.65-18.54A10.4 10.4 0 0 1 887 636.09l22 5.5a10.45 10.45 0 0 1 7.57 12.64l-4.65 18.54a10.43 10.43 0 0 1-10.08 7.88Zm-23.25-16.24a1.28 1.28 0 0 0 .92 1.55l22 5.51a1.25 1.25 0 0 0 1.54-.92L907.72 652a1.28 1.28 0 0 0-.93-1.55l-22-5.51a1.27 1.27 0 0 0-1.55.93ZM891.89 720.33a10.43 10.43 0 0 1-2.53-.31l-22-5.51a10.44 10.44 0 0 1-7.57-12.64l4.65-18.53a10.44 10.44 0 0 1 12.63-7.58l22 5.52a10.4 10.4 0 0 1 7.57 12.63L902 712.45A10.43 10.43 0 0 1 891.89 720.33Zm-17.35-35.74a1.29 1.29 0 0 0-1.24 1l-4.64 18.54h0a1.28 1.28 0 0 0 .93 1.55l22 5.5a1.26 1.26 0 0 0 1.55-.92l4.64-18.54a1.27 1.27 0 0 0-.14-1 1.23 1.23 0 0 0-.78-.57l-22-5.52A1.06 1.06 0 0 0 874.54 684.59ZM864.23 703h0ZM921.73 601.28a10.43 10.43 0 0 1-2.53-.31l-22-5.51a10.42 10.42 0 0 1-7.57-12.64l4.65-18.53a10.4 10.4 0 0 1 12.63-7.57l22 5.51a10.43 10.43 0 0 1 7.57 12.63l-4.65 18.54A10.43 10.43 0 0 1 921.73 601.28Zm-17.36-35.74a1.32 1.32 0 0 0-.65.19 1.21 1.21 0 0 0-.57.78l-4.65 18.54h0a1.24 1.24 0 0 0 .14 1 1.21 1.21 0 0 0 .79.58l22 5.51a1.26 1.26 0 0 0 1.55-.93l4.64-18.53a1.28 1.28 0 0 0-.92-1.55l-22-5.51A1.87 1.87 0 0 0 904.37 565.54Zm-10.3 18.4h0ZM911.8 641a10.13 10.13 0 0 1-2.55-.32l-22-5.5a10.44 10.44 0 0 1-7.57-12.64L884.33 604A10.43 10.43 0 0 1 897 596.4l22 5.52a10.4 10.4 0 0 1 7.57 12.63l-4.64 18.53A10.41 10.41 0 0 1 911.8 641Zm-17.37-35.74a1.27 1.27 0 0 0-1.23 1l-4.65 18.54h0a1.28 1.28 0 0 0 .93 1.55l22 5.51a1.32 1.32 0 0 0 1-.14 1.26 1.26 0 0 0 .58-.79l4.64-18.54a1.2 1.2 0 0 0-.14-1 1.24 1.24 0 0 0-.78-.58l-22-5.52A1.73 1.73 0 0 0 894.43 605.23Zm-10.31 18.39h0ZM961.51 442.55a10.55 10.55 0 0 1-2.53-.31l-22-5.52a10.43 10.43 0 0 1-7.58-12.63l4.65-18.54h0A10.45 10.45 0 0 1 946.7 398l22 5.51a10.41 10.41 0 0 1 7.57 12.64l-4.64 18.54A10.44 10.44 0 0 1 961.51 442.55Zm-18.58-34.77-4.65 18.53a1.28 1.28 0 0 0 .93 1.55l22 5.51a1.27 1.27 0 0 0 1.55-.92l4.64-18.54a1.27 1.27 0 0 0-.92-1.55l-22-5.51a1.27 1.27 0 0 0-1.55.93ZM941.62 521.91a10.43 10.43 0 0 1-2.53-.31l-22-5.51a10.4 10.4 0 0 1-7.56-12.64l4.64-18.53h0a10.44 10.44 0 0 1 12.64-7.56l22 5.51a10.42 10.42 0 0 1 7.57 12.64L951.73 514A10.44 10.44 0 0 1 941.62 521.91ZM923 487.14l-4.64 18.54a1.32 1.32 0 0 0 .14 1 1.3 1.3 0 0 0 .79.58l22 5.5a1.28 1.28 0 0 0 1.55-.92l4.64-18.54a1.19 1.19 0 0 0-.14-1 1.21 1.21 0 0 0-.78-.58l-22-5.51a1.27 1.27 0 0 0-1.55.92ZM951.56 482.23a10.47 10.47 0 0 1-2.52-.31l-22-5.52a10.4 10.4 0 0 1-7.57-12.63l4.65-18.53a10.4 10.4 0 0 1 12.63-7.57l22 5.51a10.43 10.43 0 0 1 7.57 12.63l-4.65 18.54A10.44 10.44 0 0 1 951.56 482.23Zm-17.35-35.74a1.25 1.25 0 0 0-1.22 1h0L928.34 466a1.2 1.2 0 0 0 .14 1 1.28 1.28 0 0 0 .78.58l22 5.52a1.28 1.28 0 0 0 1.54-.94l4.65-18.53a1.28 1.28 0 0 0-.93-1.55l-22-5.51A1.22 1.22 0 0 0 934.21 446.49Zm-5.66-.14h0ZM931.7 561.61a10.54 10.54 0 0 1-2.55-.32l-22-5.51a10.44 10.44 0 0 1-7.57-12.64l4.65-18.54h0A10.43 10.43 0 0 1 916.85 517l22 5.52a10.4 10.4 0 0 1 7.57 12.63l-4.65 18.54a10.42 10.42 0 0 1-10.07 7.89Zm-18.61-34.78-4.65 18.53a1.28 1.28 0 0 0 .93 1.55l22 5.51a1.27 1.27 0 0 0 1.54-.92L937.56 533a1.27 1.27 0 0 0-.92-1.55l-22-5.51a1.26 1.26 0 0 0-1.54.93ZM832.31 789.76a10.86 10.86 0 0 1-2.52-.31l-22-5.52a10.42 10.42 0 0 1-7.57-12.63l4.64-18.54a10.45 10.45 0 0 1 12.64-7.57l22 5.51a10.4 10.4 0 0 1 7.56 12.64l-4.64 18.53A10.45 10.45 0 0 1 832.31 789.76ZM815 754a1.28 1.28 0 0 0-1.24 1l-4.64 18.53h0a1.22 1.22 0 0 0 .14 1 1.23 1.23 0 0 0 .78.57l22 5.52a1.31 1.31 0 0 0 1.55-.93l4.64-18.53a1.3 1.3 0 0 0-.93-1.56l-22-5.5A1.1 1.1 0 0 0 815 754Zm-10.32 18.39h0ZM931.8 392.92a10.07 10.07 0 0 1-2.55-.32l-22-5.51a10.42 10.42 0 0 1-7.57-12.63l4.65-18.54h0A10.42 10.42 0 0 1 917 348.35l22 5.51a10.45 10.45 0 0 1 7.58 12.64L941.88 385a10.45 10.45 0 0 1-10.08 7.88Zm-18.61-34.78-4.65 18.54a1.28 1.28 0 0 0 .93 1.55l22 5.51a1.23 1.23 0 0 0 1-.14 1.27 1.27 0 0 0 .58-.78l4.65-18.54a1.28 1.28 0 0 0-.93-1.55l-22-5.51a1.25 1.25 0 0 0-1 .14 1.28 1.28 0 0 0-.58.78Z"></path>
    <path fill="#571519" d="M842.29 750.08a10.69 10.69 0 0 1-2.56-.32l-22-5.51a10.42 10.42 0 0 1-7.58-12.64h0l4.64-18.54a10.4 10.4 0 0 1 12.64-7.56l22 5.51A10.44 10.44 0 0 1 857 723.65l-4.64 18.54a10.46 10.46 0 0 1-10.08 7.89ZM819 733.83a1.26 1.26 0 0 0 .14 1 1.3 1.3 0 0 0 .79.58l22 5.51a1.24 1.24 0 0 0 1-.14 1.28 1.28 0 0 0 .58-.78l4.65-18.54a1.29 1.29 0 0 0-.93-1.55l-22-5.5a1.2 1.2 0 0 0-1 .14 1.22 1.22 0 0 0-.58.77ZM862.17 670.71a10.6 10.6 0 0 1-2.55-.32l-22-5.51a10.42 10.42 0 0 1-7.57-12.64l4.64-18.53a10.43 10.43 0 0 1 12.64-7.57l22 5.51a10.42 10.42 0 0 1 7.57 12.64l-4.64 18.53a10.44 10.44 0 0 1-10.09 7.89ZM844.81 635a1.26 1.26 0 0 0-1.24 1l-4.64 18.53h0a1.3 1.3 0 0 0 .93 1.56l22 5.51a1.29 1.29 0 0 0 1.55-.93L868 642.06a1.19 1.19 0 0 0-.14-1 1.21 1.21 0 0 0-.78-.58l-22-5.51A1.15 1.15 0 0 0 844.81 635Zm-10.32 18.38h0ZM852.2 710.39a10.47 10.47 0 0 1-2.52-.31l-22-5.52a10.43 10.43 0 0 1-7.57-12.63h0l4.65-18.54a10.42 10.42 0 0 1 12.63-7.57l22 5.51A10.4 10.4 0 0 1 867 684l-4.64 18.54A10.43 10.43 0 0 1 852.2 710.39ZM829 694.15a1.28 1.28 0 0 0 .92 1.55l22 5.51a1.28 1.28 0 0 0 1.54-.92l4.65-18.54a1.26 1.26 0 0 0-.14-1 1.3 1.3 0 0 0-.79-.58l-22-5.51a1.27 1.27 0 0 0-1.55.93ZM882.06 591.34a10.13 10.13 0 0 1-2.55-.32l-22-5.51A10.43 10.43 0 0 1 850 572.88h0l4.65-18.54a10.43 10.43 0 0 1 12.62-7.57l22 5.52a10.38 10.38 0 0 1 7.57 12.63l-4.64 18.53a10.44 10.44 0 0 1-10.09 7.89ZM858.81 575.1a1.28 1.28 0 0 0 .93 1.55l22 5.51a1.28 1.28 0 0 0 1.54-.93l4.65-18.54a1.24 1.24 0 0 0-.14-1 1.27 1.27 0 0 0-.79-.58l-22-5.52a1.27 1.27 0 0 0-1.54.93ZM872.09 631a10.47 10.47 0 0 1-2.52-.31l-22-5.52A10.4 10.4 0 0 1 840 612.56h0L844.65 594a10.38 10.38 0 0 1 12.63-7.57l22 5.5a10.45 10.45 0 0 1 7.57 12.64l-4.65 18.54A10.43 10.43 0 0 1 872.09 631Zm-17.35-35.74a1.32 1.32 0 0 0-.65.18 1.26 1.26 0 0 0-.57.78l-4.65 18.55h0a1.24 1.24 0 0 0 .14 1 1.28 1.28 0 0 0 .78.58l22 5.52a1.31 1.31 0 0 0 1.55-.94L878 602.38a1.28 1.28 0 0 0-.93-1.55l-22-5.51A1.22 1.22 0 0 0 854.74 595.28Zm-10.31 18.39h0ZM921.83 432.6a10.49 10.49 0 0 1-2.53-.31l-22-5.51a10.42 10.42 0 0 1-7.56-12.64l4.64-18.53A10.4 10.4 0 0 1 907 388l22 5.51a10.43 10.43 0 0 1 7.57 12.63l-4.65 18.54A10.43 10.43 0 0 1 921.83 432.6Zm-17.36-35.74a1.32 1.32 0 0 0-.65.18 1.26 1.26 0 0 0-.57.78h0l-4.65 18.54a1.24 1.24 0 0 0 .14 1 1.27 1.27 0 0 0 .79.58l22 5.51a1.28 1.28 0 0 0 1.55-.92L927.71 404a1.28 1.28 0 0 0-.92-1.55l-22-5.51A1.22 1.22 0 0 0 904.47 396.86Zm-5.66-.14h0ZM901.94 512a10.43 10.43 0 0 1-2.53-.31l-22-5.51a10.44 10.44 0 0 1-7.57-12.65L874.49 475h0a10.45 10.45 0 0 1 12.63-7.57l22 5.52a10.4 10.4 0 0 1 7.57 12.63L912 504.09A10.44 10.44 0 0 1 901.94 512Zm-18.59-34.78h0l-4.65 18.54a1.27 1.27 0 0 0 .93 1.55l22 5.51a1.26 1.26 0 0 0 1.55-.93l4.64-18.53a1.26 1.26 0 0 0-.14-1 1.28 1.28 0 0 0-.78-.58l-22-5.51A1.28 1.28 0 0 0 883.35 477.19ZM911.88 472.29a10.09 10.09 0 0 1-2.53-.32l-22-5.51a10.4 10.4 0 0 1-7.57-12.63l4.64-18.54h0a10.43 10.43 0 0 1 12.64-7.57l22 5.51a10.43 10.43 0 0 1 7.56 12.64L922 464.4A10.44 10.44 0 0 1 911.88 472.29ZM893.3 437.51l-4.64 18.54a1.28 1.28 0 0 0 .92 1.55l22 5.5a1.27 1.27 0 0 0 1.55-.92l4.64-18.54a1.26 1.26 0 0 0-.92-1.54l-22-5.51a1.27 1.27 0 0 0-1.55.92ZM892 551.66a10.56 10.56 0 0 1-2.56-.32l-22-5.51a10.43 10.43 0 0 1-7.56-12.64l4.64-18.54h0a10.4 10.4 0 0 1 12.64-7.56l22 5.51a10.44 10.44 0 0 1 7.57 12.64l-4.64 18.53A10.46 10.46 0 0 1 892 551.66ZM873.4 516.88l-4.64 18.54a1.27 1.27 0 0 0 .93 1.54l22 5.51a1.26 1.26 0 0 0 1-.14 1.28 1.28 0 0 0 .58-.78L897.87 523a1.28 1.28 0 0 0-.92-1.55L875 516a1.3 1.3 0 0 0-1.55.93ZM779.64 818.73a10.54 10.54 0 0 1-2.55-.32l-11.88-3a10.44 10.44 0 0 1-7.57-12.63h0l4.65-18.53a10.44 10.44 0 0 1 12.63-7.58l11.87 3a10.44 10.44 0 0 1 7.58 12.64l-4.65 18.53a10.44 10.44 0 0 1-10.08 7.89ZM766.51 805h0a1.27 1.27 0 0 0 .93 1.55l11.87 3a1.23 1.23 0 0 0 1-.15 1.21 1.21 0 0 0 .58-.78l4.65-18.54a1.29 1.29 0 0 0-.93-1.55l-11.87-3a1.3 1.3 0 0 0-1.55.93ZM789.56 779a10.55 10.55 0 0 1-2.53-.31l-11.87-3a10.43 10.43 0 0 1-7.57-12.63l4.64-18.54A10.42 10.42 0 0 1 784.88 737l11.86 3a10.42 10.42 0 0 1 7.57 12.63l-4.64 18.53A10.44 10.44 0 0 1 789.56 779Zm-7.23-33.2a1.26 1.26 0 0 0-.65.18 1.24 1.24 0 0 0-.58.78l-4.64 18.54h0a1.28 1.28 0 0 0 .92 1.55l11.87 3a1.29 1.29 0 0 0 1.55-.93l4.64-18.53a1.27 1.27 0 0 0-.13-1 1.3 1.3 0 0 0-.79-.58l-11.87-3A1.27 1.27 0 0 0 782.33 745.84ZM772 764.23h0ZM799.5 739.36a10.33 10.33 0 0 1-2.51-.31l-11.88-3a10.43 10.43 0 0 1-7.58-12.63h0l4.64-18.53a10.44 10.44 0 0 1 12.64-7.57l11.87 3a10.45 10.45 0 0 1 7.57 12.64l-4.65 18.53A10.43 10.43 0 0 1 799.5 739.36Zm-13.1-13.7a1.27 1.27 0 0 0 .93 1.54l11.87 3a1.31 1.31 0 0 0 1.55-.93l4.65-18.53a1.28 1.28 0 0 0-.94-1.55l-11.87-3a1.19 1.19 0 0 0-1 .15 1.21 1.21 0 0 0-.58.78ZM809.47 699.68a10.6 10.6 0 0 1-2.55-.32l-11.87-3a10.43 10.43 0 0 1-7.57-12.64l4.64-18.53a10.41 10.41 0 0 1 12.64-7.57l11.87 3a10.4 10.4 0 0 1 7.57 12.64l-4.65 18.53a10.42 10.42 0 0 1-10.08 7.89Zm-7.24-33.21a1.29 1.29 0 0 0-1.24 1L796.35 686h0a1.26 1.26 0 0 0 .14 1 1.24 1.24 0 0 0 .78.58l11.88 3a1.27 1.27 0 0 0 1.54-.92L815.34 671a1.25 1.25 0 0 0-.92-1.54l-11.88-3A1.65 1.65 0 0 0 802.23 666.47Zm-10.31 18.39h0ZM819.4 660a10 10 0 0 1-2.53-.32l-11.87-3a10.4 10.4 0 0 1-7.57-12.63l4.65-18.54A10.4 10.4 0 0 1 814.71 618l11.87 3a10.44 10.44 0 0 1 7.57 12.64l-4.64 18.54A10.45 10.45 0 0 1 819.4 660Zm-7.23-33.2a1.27 1.27 0 0 0-1.23 1l-4.65 18.54h0a1.27 1.27 0 0 0 .15 1 1.21 1.21 0 0 0 .78.57l11.87 3a1.27 1.27 0 0 0 1.55-.93l4.64-18.53a1.28 1.28 0 0 0-.93-1.55l-11.87-3A1.15 1.15 0 0 0 812.17 626.79Zm-10.31 18.39h0ZM829.37 620.31a10.2 10.2 0 0 1-2.56-.32l-11.87-3a10.45 10.45 0 0 1-7.57-12.64h0L812 585.85a10.42 10.42 0 0 1 12.63-7.57l11.88 3a10.43 10.43 0 0 1 7.57 12.63l-4.65 18.54a10.44 10.44 0 0 1-10.08 7.89ZM816.24 606.6h0a1.28 1.28 0 0 0 .93 1.55l11.87 3a1.3 1.3 0 0 0 1-.14 1.26 1.26 0 0 0 .58-.79l4.65-18.54a1.27 1.27 0 0 0-.92-1.54l-11.88-3a1.29 1.29 0 0 0-1.55.93ZM839.31 580.63a10.6 10.6 0 0 1-2.55-.32l-11.87-3a10.4 10.4 0 0 1-7.57-12.63L822 546.16a10.42 10.42 0 0 1 12.64-7.56l11.87 3A10.42 10.42 0 0 1 854 554.2l-4.64 18.54a10.44 10.44 0 0 1-10.09 7.89Zm-7.25-33.21a1.26 1.26 0 0 0-.65.18 1.27 1.27 0 0 0-.58.79l-4.64 18.53h0a1.26 1.26 0 0 0 .14 1 1.28 1.28 0 0 0 .78.58l11.87 3a1.27 1.27 0 0 0 1-.14 1.24 1.24 0 0 0 .58-.78L845.18 552a1.28 1.28 0 0 0-.93-1.55l-11.87-3A1.27 1.27 0 0 0 832.06 547.42Zm-10.31 18.39h0ZM849.23 540.94a10.41 10.41 0 0 1-2.52-.31l-11.87-3A10.42 10.42 0 0 1 827.27 525l4.64-18.53a10.44 10.44 0 0 1 12.63-7.57l11.88 3A10.44 10.44 0 0 1 864 514.51l-4.65 18.54A10.43 10.43 0 0 1 849.23 540.94ZM842 507.74a1.27 1.27 0 0 0-1.24 1l-4.65 18.54h0a1.28 1.28 0 0 0 .14 1 1.3 1.3 0 0 0 .79.59l11.87 3a1.27 1.27 0 0 0 1.55-.93l4.65-18.54a1.28 1.28 0 0 0-.93-1.54l-11.88-3ZM831.7 526.13h0ZM859.21 501.26a10.69 10.69 0 0 1-2.56-.32l-11.87-3a10.44 10.44 0 0 1-7.57-12.63h0l4.65-18.54a10.41 10.41 0 0 1 12.63-7.56l11.87 3a10.42 10.42 0 0 1 7.57 12.63l-4.64 18.54a10.44 10.44 0 0 1-10.08 7.89Zm-13.13-13.71h0a1.28 1.28 0 0 0 .93 1.55l11.87 3a1.28 1.28 0 0 0 1-.14 1.23 1.23 0 0 0 .57-.78l4.65-18.54a1.24 1.24 0 0 0-.14-1 1.3 1.3 0 0 0-.79-.59l-11.87-3a1.23 1.23 0 0 0-1 .14 1.28 1.28 0 0 0-.59.79ZM869.13 461.57a10.49 10.49 0 0 1-2.53-.31l-11.87-3a10.42 10.42 0 0 1-7.57-12.63l4.64-18.54a10.43 10.43 0 0 1 12.64-7.57l11.87 3a10.42 10.42 0 0 1 7.57 12.63l-4.64 18.54A10.45 10.45 0 0 1 869.13 461.57Zm-7.22-33.2a1.28 1.28 0 0 0-1.24 1L856 447.87h0a1.28 1.28 0 0 0 .93 1.55l11.87 3a1.27 1.27 0 0 0 1.55-.92L875 432.93a1.28 1.28 0 0 0-.92-1.55l-11.87-3A1.15 1.15 0 0 0 861.91 428.37Zm-10.32 18.39h0ZM879.07 421.89a10.41 10.41 0 0 1-2.52-.31l-11.87-3A10.42 10.42 0 0 1 857.1 406l4.65-18.53a10.42 10.42 0 0 1 12.63-7.57l11.88 3a10.44 10.44 0 0 1 7.57 12.63L889.18 414A10.45 10.45 0 0 1 879.07 421.89Zm-7.22-33.21a1.27 1.27 0 0 0-1.23 1L866 408.19h0a1.27 1.27 0 0 0 .93 1.54l11.87 3a1.31 1.31 0 0 0 1.55-.93L885 393.25a1.27 1.27 0 0 0-.93-1.55l-11.87-3A1.55 1.55 0 0 0 871.85 388.68Zm-10.31 18.4h0ZM889 382.21a10.46 10.46 0 0 1-2.54-.32l-11.88-3a10.42 10.42 0 0 1-7.57-12.63l4.64-18.54a10.46 10.46 0 0 1 12.64-7.57l11.87 3a10.42 10.42 0 0 1 7.57 12.63l-4.65 18.54a10.29 10.29 0 0 1-4.74 6.4A10.4 10.4 0 0 1 889 382.21ZM881.8 349a1.29 1.29 0 0 0-1.24 1l-4.64 18.53h0a1.26 1.26 0 0 0 .14 1 1.28 1.28 0 0 0 .78.58l11.88 3a1.24 1.24 0 0 0 1-.14 1.28 1.28 0 0 0 .58-.78l4.65-18.54a1.28 1.28 0 0 0-.14-1A1.26 1.26 0 0 0 894 352l-11.87-3A1.1 1.1 0 0 0 881.8 349Zm-10.32 18.39h0ZM899 342.52a10.41 10.41 0 0 1-2.52-.31l-11.87-3A10.4 10.4 0 0 1 877 326.6l4.65-18.54a10.4 10.4 0 0 1 12.63-7.57l11.87 3a10.42 10.42 0 0 1 7.56 12.64l-4.63 18.53A10.45 10.45 0 0 1 899 342.52Zm-7.22-33.2a1.26 1.26 0 0 0-.65.18 1.24 1.24 0 0 0-.58.78l-4.65 18.54h0a1.28 1.28 0 0 0 .14 1 1.26 1.26 0 0 0 .79.58l11.87 3a1.29 1.29 0 0 0 1.55-.93l4.64-18.53a1.26 1.26 0 0 0-.14-1 1.24 1.24 0 0 0-.78-.58l-11.88-3A1.15 1.15 0 0 0 891.74 309.32Zm-10.31 18.39h0ZM1179.23 819.65a16.46 16.46 0 0 1-4-.5L1048 787.26a16.26 16.26 0 0 1-11.81-19.73l66.16-264A16.29 16.29 0 0 1 1122 491.73l127.28 31.9a16.26 16.26 0 0 1 11.81 19.73l-66.16 264a16.28 16.28 0 0 1-15.73 12.31Zm-61.15-319.27a7.14 7.14 0 0 0-6.91 5.39l-66.16 264h0a7.11 7.11 0 0 0 5.18 8.64l127.27 31.9a7.13 7.13 0 0 0 8.64-5.18l66.16-264a7.11 7.11 0 0 0-5.18-8.63l-127.27-31.9A6.9 6.9 0 0 0 1118.08 500.38Zm-77.5 268.26h0ZM619.27 1156.62a4.53 4.53 0 0 1-4.25-2.89l-63.5-161a4.57 4.57 0 0 1 2.57-5.93l157.57-62.15a4.61 4.61 0 0 1 3.5.07 4.53 4.53 0 0 1 2.43 2.51l13.82 35a4.57 4.57 0 1 1-8.5 3.36l-12.15-30.8L561.7 993.63l60.14 152.5 59-23.27a4.57 4.57 0 1 1 3.35 8.51l-63.24 24.94A4.58 4.58 0 0 1 619.27 1156.62Z"></path>
  </g>
  <g>
    <path fill="#ffe4ce" fill-rule="evenodd" d="M809.48 1350.64c-2.61-6.64-6.41-18.9-11.81-28.88-7.66-14.15-17.31-26.89-20.79-39.87-2.4-8.94.91-19.72 3.24-22.63 7.15-8.93 24-6.16 47.81 9 3.55 2.25.13-7.49.26-12.74a177 177 0 0 1 4.74-38.46c2-8 8.36-14 14.72-16.63 6.07-2.47 12.13-1.71 14.35-1.71 1.18 0 .28-2.47 1.79-6.2 1.25-3.1 4.87-7.18 6.27-10.44 2.9-6.76 6-11 10.8-17.16 8-10.11 25.12-9.74 25.12-9.74l1.56 25.66s-10.86 15.44-10.19 23.08c.26 3 9.28 23.5 10.75 31.32 1.16 6.13.61-14.41 0-31.79-.15-4.18-2.45-43.06-3.21-69.73-.4-14.1-1.36-22.12.82-25.64 2-3.3 11-8.4 15.41.74 7.51 15.74 11 52.28 12.09 58.37 4.3 24.62 17.53 95.1 28.79 131.87.66 2.13 2.38-2.3 5.57-8 3.74-6.7 9.11-15.68 11-25.83 1.14-6.06-.83-13-1.38-18.26a37.7 37.7 0 0 1 2.27-18.69c3.1-8.23 12.15-12 14.52-12 2.09-.07 4.76 1.41 6.16 7.42 1.13 4.86 1.11 13.36 1.8 20.55 1 10.85 4.73 13.78 5.22 24.73.76 17.13-2 40.44-2.19 41.21a209.53 209.53 0 0 1-8.29 30.71c-5.19 14-14 25.78-22.07 40.67-9.78 18-19.08 39-26.56 56.33-8.57 19.76-9.69 46.06-9.69 46.06s-31.72-15-58-18.64a119.21 119.21 0 0 0-48.77 3.83s8.53-15.32 5.94-33.77c-2.33-16.64-10.17-33.1-16.88-50.6C816.05 1372.76 812.59 1358.48 809.48 1350.64ZM1245.41 1359c0-12.53 4.58-48.31 7.28-74.82 1.53-15 1.89-29.18 1.89-29.18a55.66 55.66 0 0 1-15-4.59c-7.54-3.67-14.77-9.92-16.81-13.14-4-6.35 2.21-9.82-.43-13.4-1.73-2.34-10.36-8.09-11.46-15.19-1-6.2 5.66-13.88 4.12-15.49-4.24-4.46-4.24-8.16-3.06-12.82 1.5-5.95 32.81-8.21 37.41-12 3-2.51 2.5-5.92 8-6.56 7.21-.85 16 2.82 25.79 4.28 29.21 4.35 64 12.88 66.35 12.88 6.43 0 14.47 15.88 24.52 37.86 8.06 17.64 12.22 35.83 18.3 51.26 4 10.11 11.63 20.52 12.23 23.55 1 4.72-3.67 12.53-8.34 23.16-6.17 14-13.39 31.74-17.36 41.77-4.35 11-17.35 45.53-20.69 69.3-2 14.39 4.39 24.21 4.39 24.21s-23.24 4.12-43.94 14.72-38.88 27.71-38.88 27.71-18.84-45.13-29-84.62C1245.59 1387.93 1245.41 1368.13 1245.41 1359ZM1567.52 576.54c0-21.25 20.7-60.38 28.9-95 5.34-22.53-.54-48.34-.54-48.34s24.82 9 51.43 8.73 55-9.95 55-9.95a72.22 72.22 0 0 0 4.69 23.52c3.27 8.85 10.89 17.7 14.39 29.89 5.67 19.72 10.91 47.55 10.91 56 0 6.26 1 25.42-1.6 41.94-1.83 11.85-5.09 19.63-8.19 30.62-2 7.14-4 17.64-5.4 24.65-2.52 12.24 1.95 22-2.59 26.29-2.41 2.3-7.29 1.72-10.73-2.38-3.23-3.84-5.11-11.15-5.11-11.15l-5.7 24.24-12.71 81-7.54 15.23-13 15.92-8.15 1-5.23-12.42 2.66-22.4 4.85-24.58 4.59-54.76s-8.9 6.69-16.85 2.79c-6.54-3.21-13-16.71-13-16.71s-10.27 1.75-17-2.6-10-14.81-10-14.81-17-1.63-22.37-9.66C1569 618.39 1567.52 589.37 1567.52 576.54ZM2038.09 625.78c0-5.71 3.41-20.81 10.12-33.87 9.34-18.19 23.67-36.26 31.79-53.4 7.58-16 5.29-27.71 5.29-27.71a199.73 199.73 0 0 0 36.15 15.28c19 5.6 39.73 7.14 39.73 7.14s-8.85 10.75-11.23 28.62c-2.49 18.58 1.49 44.42 1.49 50.21 0 1.48 1.4 32 2.29 64.36.62 22.27 7 39.93.57 57.09-7.17 19.14-23.34 30.35-34.95 42.47-10.52 11-18.43 24.25-26.09 30.91-9.23 8-17.2 8.34-17.2 8.34l5.22-60.83 12.06-22.25s-2.08-9.61-3.36-18.06c-1.64-10.8-1.9-19.8-2.56-18.79-8.22 12.62-7.35 42.43-14.42 60.08-9 22.43-25.36 31.69-29.87 31.69-3.53 0-10.84 0-12.55-6.51-3.91-15 11.52-30.58 14-60.27 1.63-19.53-2.42-43.13-4.66-62.16A271 271 0 0 1 2038.09 625.78Z"></path>
    <path fill="#fffcfa" fill-rule="evenodd" d="M698.94 1762.93s52.47-152.31 82.82-225.48c6.18-14.91 13-6.2 16-12.39 2.64-5.41 2.42-10.61 4.13-15.48 4.26-12.09 8.71-22.21 12.69-28.85 5.61-9.37 14.73-11.88 16-12.55 3.25-1.77 25.45-7.49 49.69-4 29.1 4.18 61.14 18.62 66.82 28.74 2.62 4.66-1.85 13.81-7.78 32.84-1.88 6-6.82 15.09-8 22.67-.74 5 3 3.24 5 7.81s2.26 15.68.61 21.35c-18.22 62.44-49.78 205.89-49.78 205.89s-52.58 8.85-99.65 3.71S698.94 1762.93 698.94 1762.93ZM1436 1743.79s-60.49-74.73-71.39-87.3-32.42-41.23-39.29-49.39-14.46-22.93-19.73-31.62-4.14-15.86-4.14-15.86-16-19.9-19.54-24.94-12.07-18.27-15-22.84-.05-3.91 5.57-10.94 22.1-21.61 29.7-26.71 22.47-13.84 30.4-16.75 21.33-5 26.48-6.07 17-2.08 17-2.08l31.32 36a23.23 23.23 0 0 0 8.16 2.1c5.4.55 7 3.66 13.55 11.6s28.13 33.39 36.33 43 33.58 41.49 41.07 50.12S1600.65 1705 1600.65 1705s-41.2 20.81-82.37 30.5S1436 1743.79 1436 1743.79Z"></path>
    <path fill="#c6d2e0" fill-rule="evenodd" d="M2298.5 248.37s-9.86 22.45-19 46.1c-7.65 19.87-14.53 40.94-17.05 46.93-5.54 13.12-9.27 25.56-14.87 42.78s-11.22 32.54-16.36 48.33-9.17 25.28-15.74 39.64-5.92 13.32-12.95 18.33-10 6.28-13 13.56S2185 521 2182.38 527.1s-7.2 6.55-14.27 6.79-28.85-3-37.56-5.55-26.49-6.39-34.64-11.58-19.84-11.22-19.84-11.22-1.23-10.87 1.57-19.49 8.61-25.5 8.61-25.5-4.79-5.08-5.43-9.64 3.49-20.08 6.12-27.87 14.46-38.52 17.28-48.2c1.39-4.78 10.53-28.06 19.17-55.53 8.85-28.14 29.63-96.94 29.63-96.94a691.66 691.66 0 0 1 69.35 2.61C2263.91 228.67 2298.5 248.37 2298.5 248.37ZM1749.4 144.69s-7.15 66.77-8.18 78-4 47.26-5.25 63.34-4.31 46.44-6.2 56.77-4.07 19.84-8 27.76-7.16 7.12-10.14 13.6-1.75 12.3-1 22.18-.43 15.8-2.65 21-6.39 5.65-15.33 8.24-34.28 6.44-41.49 6.11-20.71-.26-27.28-.9-17.1-4.12-24.11-6a135.85 135.85 0 0 1-15-5.22 50.3 50.3 0 0 1-4.54-10.56c-1.63-5.68-1.72-25.07-1.45-30.32s.45-17.56.45-17.56a19.13 19.13 0 0 1-6.73-7.12c-2.35-4.6-3-11.92-2.17-18.47s1.52-15.08 2.85-24.11 1.93-23.05 3.3-33.84 3.54-42 4.4-56.6 5.14-85.24 5.14-85.24 41.86-14.23 82.24-14.32S1749.4 144.69 1749.4 144.69Z"></path>
    <path fill="#d76058" fill-rule="evenodd" d="M1160.31,1136.28l-3.58,9.82s10.32,8.7,15,12,23.83,14.8,23.83,14.8l62,29.29c-.11-1.37-.11-2.15-.62-5.93-.25-1.78-.34-3-.47-4.2-.92-8.35-.06-13.56,3.58-16.82l-52.5-24.77s-24.28-9.37-27.58-10S1160.31,1136.28,1160.31,1136.28Zm123.56,50.7c2.07,7.29,5.29,16.4,5.87,30l192.13,91,9.35-.62s6.26-11.51,7.32-14.65-3.12-6.07-3.12-6.07Z"></path>
    <path fill="#e3a46d" fill-rule="evenodd" d="m1575.74 537.4-43.39-49.55 9.72-6.16 6.51-8.14 36.79 42.76ZM1693.54 677.9l5.57-27.21 4.85 10.77 6.5 5.08 64.12 68.62-16.24-5.1 1.32 14.43-11.46-4.13Z"></path>
    <path fill="#f4d6bb" fill-rule="evenodd" d="M1749.33,741.77l10.25,2.6-2.72-15,15.6,4,26,38.71-5.79,3.09-3,5Z"></path>
    <path fill="#726e6a" fill-rule="evenodd" d="M1789.86,780l3-6,5.71-.2,15.1,24.67-13.14-10.27Z"></path>
    <path fill="#f8ada9" fill-rule="evenodd" d="M1532.3,488.66l-11.36-12.26-.06-7.38,10.21-9.35,7.11,1,10.91,13.42-6.78,8.08Z"></path>
    <path fill="#d1d1d1" fill-rule="evenodd" d="m1156.79 1142.71-15.56-9.9 18.61 5.79ZM1492.51 1305.67l4.94-9.79 17.49 7.38.46 6.8-6 3.52Z"></path>
  </g>
  <g>
    <path fill="#571519" d="M938.62,1486a4.57,4.57,0,0,1-4.57-4.57c0-18,6.25-38.93,11.6-51.41,5.8-13.54,11.45-24.57,17.44-36.25,2.34-4.55,4.76-9.26,7.29-14.33,2.73-5.45,5.92-10.93,9-16.23,5.81-10,11.82-20.31,15-30.84,10.26-34.21,11.46-62.21,3.66-85.6-.75-2.26-1-5.55-1.23-9.7-.23-3.74-1-15.12-3.19-16.26h0s-1.1-.14-3.8,1.79c-8.89,6.35-8.13,17.32-7.32,28.94.43,6.16.87,12.53-.27,18.21-1.4,7-5,13.2-8.48,19.19-1.37,2.36-2.72,4.67-3.86,6.95a4.57,4.57,0,1,1-8.18-4.09c1.23-2.44,2.67-4.93,4.14-7.45,3.11-5.35,6.32-10.88,7.42-16.39.9-4.48.51-10,.11-15.79-.9-13-1.93-27.68,11.13-37,4.91-3.5,9.3-4.38,13-2.61,7.08,3.37,7.77,14.29,8.39,23.94a46.14,46.14,0,0,0,.77,7.38c8.42,25.24,7.25,55.05-3.57,91.12-3.48,11.57-9.76,22.37-15.84,32.82-3.15,5.41-6.13,10.53-8.72,15.72s-5,9.83-7.33,14.42c-5.92,11.53-11.5,22.42-17.18,35.67-5.41,12.61-10.86,32.28-10.86,47.81A4.57,4.57,0,0,1,938.62,1486Z"></path>
    <path fill="#571519" d="M970.85,1347.64a4.58,4.58,0,0,1-4.57-4.57c0-17.64-5-32.73-10.31-48.7-3.25-9.8-6.62-19.93-8.79-30.8-6.77-33.82-13.87-70.13-19.95-106.62-.56-3.36-1.06-6.72-1.55-10.06-1.64-11.1-3.19-21.59-6.93-31.86-1.19-3.29-4.11-7.86-6.54-7.27-2.89.72-5.07,13.38-3.45,28,3.43,30.88,5.1,66.82,5.1,109.87a4.57,4.57,0,0,1-9.14,0c0-42.71-1.65-78.32-5.05-108.86-.89-8.07-2.79-34.62,10.32-37.89,8-2.05,14.47,5.09,17.35,13,4,11.14,5.75,22.58,7.38,33.64.49,3.29,1,6.59,1.53,9.9,6.06,36.36,13.14,72.59,19.89,106.33,2.06,10.32,5.34,20.18,8.5,29.71,5.3,16,10.78,32.47,10.78,51.58A4.58,4.58,0,0,1,970.85,1347.64Z"></path>
    <path fill="#571519" d="M908.56,1252a4.58,4.58,0,0,1-4.57-4.57c0-11.15-4.81-24.2-9.46-36.81-2.24-6.1-4.37-11.86-5.93-17.34a4.57,4.57,0,1,1,8.78-2.51c1.48,5.15,3.54,10.75,5.73,16.68,4.93,13.37,10,27.2,10,40A4.57,4.57,0,0,1,908.56,1252Z"></path>
    <path fill="#571519" d="M897.7,1205.68a4.58,4.58,0,0,1-4.57-4.57c0-6,2.89-12.2,5.43-17.66a72.6,72.6,0,0,0,3.13-7.33,4.57,4.57,0,0,1,8.67,2.89,81,81,0,0,1-3.51,8.3c-2.25,4.82-4.58,9.81-4.58,13.8A4.58,4.58,0,0,1,897.7,1205.68Z"></path>
    <path fill="#571519" d="M868,1272.31a4.57,4.57,0,0,1-4.57-4.57c0-13.37-.3-27.86-2.49-43.17-.29-2-.83-4.44-1.41-7-1.41-6.18-3-13.2-1.8-19.2,1.1-5.49,3.85-9.93,6.51-14.23a59.43,59.43,0,0,0,3.94-7c8.06-18.16,19.5-27,35-27a4.57,4.57,0,1,1,0,9.14c-11.62,0-20.07,6.85-26.6,21.55A69.45,69.45,0,0,1,872,1189c-2.34,3.77-4.55,7.33-5.32,11.2-.82,4.09.55,10.09,1.75,15.38.62,2.72,1.21,5.29,1.55,7.71,2.27,15.88,2.58,30.75,2.58,44.46A4.56,4.56,0,0,1,868,1272.31Z"></path>
    <path fill="#571519" d="M826.72,1293a4.22,4.22,0,0,1-1.11-.14,4.56,4.56,0,0,1-3.33-5.53c1.72-6.86,1.82-17,1.94-27.7.29-27.67.68-65.58,34.73-65.58a4.57,4.57,0,1,1,0,9.14c-23.21,0-25.25,23.43-25.59,56.53-.12,11.27-.23,21.92-2.21,29.82A4.56,4.56,0,0,1,826.72,1293Z"></path>
    <path fill="#571519" d="M833.24,1468.23a4.57,4.57,0,0,1-4.38-5.88l1.7-5.56c2.92-9.51,3.61-11.77,2.84-18.7-1.44-13-6.66-25.71-11.7-38-1.74-4.24-3.47-8.46-5.06-12.67-3.36-9-6.27-18.17-9.09-27.06-3-9.47-6.1-19.27-9.72-28.68-2.3-6-6.17-12.16-10.28-18.71-8.31-13.29-16.92-27-15-42.53,1.16-9.27,4.73-15.53,10.62-18.63,11.83-6.19,28.94,2.69,41.43,9.18,1.59.83,3.1,1.61,4.5,2.31a4.57,4.57,0,1,1-4.09,8.18c-1.43-.72-3-1.53-4.63-2.38-10.1-5.25-25.36-13.19-32.95-9.2-3.09,1.63-5.05,5.55-5.81,11.68-1.53,12.26,6.19,24.6,13.66,36.53,4.16,6.64,8.45,13.5,11.06,20.29,3.72,9.66,6.86,19.59,9.91,29.2,2.78,8.78,5.65,17.86,8.93,26.61,1.55,4.13,3.25,8.26,4.95,12.41,5.29,12.88,10.75,26.2,12.34,40.47,1,8.81-.16,12.51-3.2,22.4l-1.67,5.49A4.57,4.57,0,0,1,833.24,1468.23Z"></path>
    <path fill="#571519" d="M826.72 1292.23a4.56 4.56 0 0 1-3.23-1.34 118.46 118.46 0 0 1-8.24-9.5c-4.2-5.22-8.18-10.14-13.16-13.47a4.57 4.57 0 1 1 5.07-7.6c6.15 4.1 10.75 9.81 15.21 15.33a106.36 106.36 0 0 0 7.58 8.77 4.58 4.58 0 0 1-3.23 7.81ZM931.48 1552.92a4.41 4.41 0 0 1-1.47-.25 4.57 4.57 0 0 1-2.86-5.8c1.79-5.25 3.93-10.85 6-16.25 5.16-13.48 11.58-30.24 9.25-35.53-4.28-9.71-22.85-15.52-30.77-18-20.68-6.45-59.13-15.28-84.38-1.88-10.7 5.68-16.58 23.86-21.3 38.46-1.42 4.39-2.75 8.53-4.14 12.09a4.57 4.57 0 1 1-8.52-3.31c1.29-3.31 2.59-7.33 4-11.59 5.22-16.18 11.73-36.3 25.7-43.72 26.77-14.21 64.47-7.18 91.39 1.23 10.65 3.33 30.46 9.52 36.42 23 3.84 8.73-2.15 24.37-9.08 42.48-2 5.33-4.15 10.84-5.89 15.94A4.56 4.56 0 0 1 931.48 1552.92Z"></path>
    <path fill="#571519" d="M910.51,1549.54a4.74,4.74,0,0,1-1.86-.39c-28.43-12.63-58.73-19.7-85.32-19.91-1.14,0-2.73-.09-4.58-.19-4.09-.22-15-.8-17.22.72a4.62,4.62,0,0,1-6.35-1.19,4.51,4.51,0,0,1,1.1-6.29c4.39-3.09,13-2.89,23-2.37,1.67.09,3.12.17,4.16.18,35.65.28,68.06,11.4,89,20.69a4.57,4.57,0,0,1-1.85,8.75Z"></path>
    <path fill="#571519" d="M698.55 1766.85a4.57 4.57 0 0 1-4.29-6.15c9.58-26 21.16-58.22 32.35-89.34 14.66-40.77 28.52-79.27 38-104.44.33-.87.75-2.11 1.27-3.63 5.17-15 15.89-46.27 33.43-41.58a4.57 4.57 0 0 1-2.36 8.83c-4.24-1.14-11.56 4.14-22.42 35.72-.56 1.63-1 3-1.37 3.89-9.48 25.1-23.32 63.57-38 104.3-11.2 31.14-22.77 63.33-32.37 89.41A4.57 4.57 0 0 1 698.55 1766.85ZM886.61 1786.17a4.36 4.36 0 0 1-1.18-.16 4.58 4.58 0 0 1-3.24-5.6c3.63-13.56 9.38-38.54 15.47-65 10-43.5 21.38-92.8 28.47-114.55 8.5-26.05 9.23-42.42 2.19-48.65a4.57 4.57 0 1 1 6.06-6.84c13.53 12 6.74 39 .44 58.32-7 21.37-18.27 70.46-28.25 113.77-6.11 26.52-11.88 51.58-15.55 65.3A4.57 4.57 0 0 1 886.61 1786.17ZM1279.45 1495.71a4.56 4.56 0 0 1-4.23-2.84c-16-38.92-32.57-84.4-34.14-126.61-.82-21.94 2.05-43.82 4.82-65 2.26-17.27 4.6-35.13 4.86-52.67.08-5.31.3-10.89.53-16.56.54-13.55 1.1-27.56-.26-39.69-.67-6-.88-16.79 5.18-22.35 2.18-2 6.07-4.11 12.23-2.87 15.28 3.07 24 26.68 24.33 38.48 1.14 36.49 6.47 63.38 16.29 82.2 3.2 6.15 7 12.14 10.57 17.92 5.51 8.81 11.21 17.91 15.42 28.15a4.57 4.57 0 0 1-8.45 3.47c-3.92-9.51-9.16-17.9-14.72-26.77-3.72-5.94-7.56-12.08-10.93-18.54-10.47-20.07-16.13-48.25-17.32-86.14-.33-10.49-8.07-28-17-29.81-2.91-.59-3.88.3-4.25.64-2.12 2-3 7.82-2.28 14.61 1.44 12.81.87 27.18.31 41.07-.22 5.59-.44 11.08-.52 16.32-.27 18.08-2.64 36.2-4.94 53.72-2.72 20.79-5.53 42.29-4.75 63.46 1.51 40.77 17.76 85.3 33.46 123.48a4.56 4.56 0 0 1-2.49 6A4.65 4.65 0 0 1 1279.45 1495.71Z"></path>
    <path fill="#571519" d="M1315.55,1311.54a4.56,4.56,0,0,1-3.58-7.41c5.57-7,10.12-14.57,15-22.59,6.79-11.29,13.81-23,23.84-32.77a4.57,4.57,0,1,1,6.39,6.53c-9.19,9-15.61,19.66-22.4,31-4.77,7.92-9.69,16.11-15.62,23.56A4.57,4.57,0,0,1,1315.55,1311.54Z"></path>
    <path fill="#571519" d="M1338.67 1272.33a4.58 4.58 0 0 1-4.54-4c-.64-5.64-1.8-11.32-2.92-16.81-.72-3.5-1.43-7-2-10.54a4.57 4.57 0 1 1 9-1.52c.58 3.42 1.28 6.83 2 10.24 1.16 5.68 2.36 11.55 3 17.6a4.57 4.57 0 0 1-4 5A3 3 0 0 1 1338.67 1272.33ZM1361.82 1453.22a4.59 4.59 0 0 1-3.83-2.08c-9.36-14.37-2.8-36.74 2-53.07.64-2.2 1.25-4.28 1.77-6.18 5.07-18.51 12.77-36.56 20.22-54 2.48-5.82 5-11.61 7.32-17.39 1-2.58 2.23-5.12 3.41-7.65 3.13-6.75 6.09-13.13 6.55-20.07.15-2.34-4.18-10-6.51-14-2.58-4.53-4.8-8.45-5.57-11.38a4.57 4.57 0 0 1 8.85-2.3c.46 1.76 2.7 5.69 4.67 9.16 4.84 8.51 8 14.45 7.68 19.17-.58 8.65-4 16.1-7.39 23.32-1.11 2.4-2.23 4.81-3.23 7.26-2.39 5.83-4.88 11.66-7.38 17.51-7.32 17.17-14.9 34.93-19.8 52.83-.54 2-1.16 4.08-1.82 6.34-4 13.8-10.15 34.66-3.09 45.51a4.58 4.58 0 0 1-3.83 7.07ZM1380.27 1235.77a4.59 4.59 0 0 1-4-2.27 195.14 195.14 0 0 1-9.4-19.25 188 188 0 0 0-9-18.34l-1.23-2.15c-2.29-4.09-4.9-8.72-8.53-10-13.93-4.83-29.69-7.17-44.93-9.43-7.66-1.14-15.58-2.31-23.11-3.79-.63-.12-1.71-.38-3.09-.73-15.18-3.8-19.84-3.39-21.26-2.7a4.57 4.57 0 0 1-8.56-3.15c3.18-10.25 21.25-5.72 32-3 1.17.29 2.08.53 2.62.63 7.33 1.44 14.8 2.55 22.7 3.72 15.66 2.32 31.85 4.73 46.58 9.84 6.91 2.4 10.57 8.91 13.51 14.14l1.15 2a194 194 0 0 1 9.41 19.24 187.27 187.27 0 0 0 9 18.34 4.58 4.58 0 0 1-1.65 6.26A4.64 4.64 0 0 1 1380.27 1235.77Z"></path>
    <path fill="#571519" d="M1330.94 1208.53a4.71 4.71 0 0 1-.74-.06c-4.86-.8-9.17-1.69-13.19-2.74a4.57 4.57 0 1 1 2.31-8.84c3.74 1 7.78 1.81 12.35 2.56a4.57 4.57 0 0 1-.73 9.08ZM1253.27 1219.58a4.54 4.54 0 0 1-1-.1c-13.28-2.83-25.74-9.54-37-19.93-4-3.72-8.55-10.48-8-17.26a4.57 4.57 0 0 1 9.11.81c-.28 3.06 2.38 7.3 5 9.73 10.06 9.26 21.08 15.22 32.74 17.72a4.56 4.56 0 0 1-1 9Z"></path>
    <path fill="#571519" d="M1253.8,1242.22a4.46,4.46,0,0,1-1.81-.38c-1.81-.77-3.94-1.62-6.27-2.54-14.27-5.66-33.81-13.4-38.49-27.41-2-6-1-12.24,2.91-18.65a4.57,4.57,0,0,1,7.8,4.77c-2.48,4.06-3.15,7.65-2,11,3.33,10,21.3,17.1,33.18,21.81,2.44,1,4.66,1.84,6.53,2.65a4.57,4.57,0,0,1-1.81,8.77Z"></path>
    <path fill="#571519" d="m1253.36 1259.53-.39 0c-9-.77-26.32-9.18-33.15-20.62-3.1-5.19-3.65-10.47-1.57-15.29a4.57 4.57 0 0 1 8.39 3.63c-.33.75-1.32 3.06 1 7 4.86 8.13 19.26 15.61 26.09 16.2a4.57 4.57 0 0 1-.39 9.13ZM1328.75 1269.48a4.57 4.57 0 0 1-4.48-3.68c-2.55-12.92-13.84-27.52-23.68-35.27l-1.08-.87c-4.29-3.47-7.08-5.29-8.3-5.41a4.42 4.42 0 0 1-5.21-3.62 4.71 4.71 0 0 1 3.77-5.38c4.8-.94 10.06 2.91 15.49 7.3l1 .8c10.81 8.52 23.87 24.88 27 40.68a4.54 4.54 0 0 1-4.49 5.45Z"></path>
    <path fill="#571519" d="M1312.36,1289.14a4.57,4.57,0,0,1-3.79-7.12,69.88,69.88,0,0,1,23.59-22.19,4.57,4.57,0,1,1,4.51,7.94,60.28,60.28,0,0,0-20.51,19.34A4.55,4.55,0,0,1,1312.36,1289.14Z"></path>
    <path fill="#571519" d="M1315.35 1281.66a4.57 4.57 0 0 1-4.48-3.69c-1.81-9.17-9.52-21.3-20.63-32.47a4.57 4.57 0 1 1 6.48-6.44c5.92 6 20 21.48 23.12 37.14a4.59 4.59 0 0 1-4.49 5.46ZM1300.78 1564.54a4.55 4.55 0 0 1-3.85-2.1c-2-3.07-6.24-8.92-11.18-15.69-20-27.37-24.22-34.15-23.86-38.18.68-7.65 26.95-31.3 51.1-46 25.75-15.67 57.38-17.65 63.8-17.24 5.91.34 35.36 38.79 35.5 39.17a5.05 5.05 0 0 1-1 5.15c-1.87 1.84-5.33 3.29-11.62 5.92-16.46 6.91-50.72 21.27-80.26 56.41a4.57 4.57 0 0 1-7-5.88c31-36.84 66.61-51.78 83.73-59 1.87-.78 3.86-1.61 5.49-2.35-6.11-7.85-22.13-26.24-26.6-30.36-7.51 0-35 2.39-57.24 16-23.66 14.4-43.38 33.58-46.53 38.9 2.16 5 14.9 22.47 21.92 32.08 5 6.89 9.38 12.84 11.49 16.14a4.57 4.57 0 0 1-3.84 7Z"></path>
    <path fill="#571519" d="M1434.53 1747.53a4.53 4.53 0 0 1-3.63-1.79c-7.58-9.87-19.43-24.45-33.15-41.34-71.33-87.78-104.64-131.83-101-144.76a4.57 4.57 0 0 1 8.82 2.4c-1.56 12.48 64 93.21 99.29 136.59 13.77 16.95 25.65 31.58 33.31 41.55a4.56 4.56 0 0 1-3.62 7.35ZM1599.87 1708.78a4.57 4.57 0 0 1-3.25-1.36c-7-7.11-39.3-46.59-76.69-92.31-43.32-53-97.23-118.9-103-123.19-.61-.41-1.72-.34-3.49-.19a16.82 16.82 0 0 1-6.27-.29 4.57 4.57 0 0 1 2.46-8.81 10 10 0 0 0 3 0c2.56-.22 6.06-.53 9.43 1.74 5.78 3.92 45.31 52 105 125 35.7 43.65 69.41 84.87 76.12 91.68a4.57 4.57 0 0 1-3.25 7.78ZM1486 1313a13.47 13.47 0 0 1-5.77-1.3l-192-90.8a4.57 4.57 0 1 1 3.91-8.27l192 90.81a4.41 4.41 0 0 0 5.86-2.09l3-6.46a4.4 4.4 0 0 0-2.1-5.86l-207.7-98.25a4.57 4.57 0 1 1 3.9-8.26l207.71 98.25a13.57 13.57 0 0 1 6.46 18l-3.06 6.46A13.54 13.54 0 0 1 1486 1313ZM1253.58 1204a4.54 4.54 0 0 1-1.95-.44L1196 1177.26c-.49-.23-48-24.52-42.94-35.29l3-6.45c2.07-4.38 6.91-5.27 28.83 1.61 11.53 3.62 23.18 8 25.69 9.2l47.45 22.45a4.57 4.57 0 1 1-3.91 8.26l-47.45-22.45c-5.4-2.56-35.27-13-43.19-13.38l-1.36 2.88c5.34 5.85 32.33 22.35 37.73 24.91l55.63 26.31a4.57 4.57 0 0 1-2 8.7Z"></path>
    <path fill="#571519" d="M1509.66 1317.74a10.14 10.14 0 0 1-4.4-1l-13.33-6.3a4.57 4.57 0 1 1 3.91-8.27l13.33 6.31a1.15 1.15 0 0 0 1.53-.55 1.15 1.15 0 0 0-.55-1.53l-13.22-6.26a4.57 4.57 0 1 1 3.91-8.26l13.22 6.25a10.32 10.32 0 0 1 4.91 13.71 10.2 10.2 0 0 1-5.84 5.29A10.4 10.4 0 0 1 1509.66 1317.74ZM1157.19 1147.82a4.5 4.5 0 0 1-2.28-.62c-16-9.19-18.24-11.37-16.36-15.59 2.07-4.65 6.36-3.54 22.37 2.8a4.56 4.56 0 0 1 2.56 5.93 4.48 4.48 0 0 1-1.78 2.16 4.53 4.53 0 0 1-.55 3A4.59 4.59 0 0 1 1157.19 1147.82ZM1475.44 1315.91a12.24 12.24 0 0 1-1.55-.1c-5.66-.79-39.66-16.16-121.25-54.82l-7.77-3.68a4.57 4.57 0 1 1 3.9-8.26l7.78 3.68c27.49 13 111.16 52.67 118.65 54a2.44 2.44 0 0 0 .65 0 4.57 4.57 0 0 1 9 1.15 7.25 7.25 0 0 1-2.46 5.66A10.55 10.55 0 0 1 1475.44 1315.91Zm.24-7.83h0ZM2043.08 792c-7.19 0-12.31-2.19-15.24-6.51-5.92-8.75-.25-22.93 4.31-34.32 1.08-2.72 2.09-5.23 2.81-7.38a78.38 78.38 0 0 0 2-7.89c.26-1.23.52-2.45.81-3.65a85 85 0 0 0 2.2-14.61c.75-14.13-1.14-29.07-3-43.52-2.77-21.9-5.63-44.55.21-66 3.9-14.29 12.81-28.14 21.42-41.54 11.14-17.31 22.65-35.2 22.65-53.29a4.57 4.57 0 0 1 9.14 0c0 20.77-12.25 39.82-24.1 58.24-8.62 13.4-16.76 26.06-20.29 39-5.37 19.69-2.74 40.46 0 62.45 1.88 14.84 3.82 30.2 3 45.14a96 96 0 0 1-2.44 16.23c-.28 1.14-.53 2.3-.78 3.47a84 84 0 0 1-2.25 8.86c-.76 2.29-1.84 5-3 7.89-3.35 8.38-8.42 21.06-5.22 25.79 1.12 1.66 3.7 2.5 7.67 2.5 1.41 0 3.56-.86 6.37-2.55 16.8-10.08 20.1-29.88 23.6-50.85 3-18 6.12-36.68 18.6-49.15a4.57 4.57 0 0 1 6.46 6.46c-10.4 10.4-13.15 26.82-16 44.2-3.69 22.09-7.5 44.93-27.91 57.18C2051.17 789.91 2047.21 792 2043.08 792ZM2081.14 818.31a4.57 4.57 0 0 1-.6-9.1c7.5-1 16.84-13.46 23.66-22.55a124.28 124.28 0 0 1 9.24-11.43c3.62-3.68 7.22-7 10.7-10.21 10.19-9.39 19-17.51 24.86-31.1 4.27-9.88 2.93-25.19 1.85-37.5-.16-1.81-.31-3.55-.44-5.2-1-12.68-1.25-25.56-1.51-38-.19-8.8-.38-17.9-.82-26.78-.27-5.39-.87-11.39-1.51-17.73-2.5-24.66-5.6-55.35 9.81-75.5a4.57 4.57 0 1 1 7.26 5.55c-13.21 17.28-10.43 44.77-8 69 .65 6.46 1.27 12.57 1.55 18.2.45 9 .64 18.18.83 27 .26 12.34.53 25.1 1.49 37.52.12 1.61.27 3.33.43 5.11 1.16 13.33 2.61 29.92-2.57 41.92-6.64 15.37-16.56 24.51-27 34.19-3.4 3.13-6.92 6.38-10.39 9.9a119.55 119.55 0 0 0-8.44 10.51c-8.64 11.53-18.45 24.61-29.75 26.12A4.4 4.4 0 0 1 2081.14 818.31Z"></path>
    <path fill="#571519" d="M2100,748.85a4.56,4.56,0,0,1-3.78-2c-8.07-11.88-9.66-29-11.07-44.05q-.28-3.19-.6-6.23a4.57,4.57,0,0,1,9.1-.94c.21,2,.4,4.16.6,6.32,1.31,14,2.78,29.83,9.53,39.77a4.56,4.56,0,0,1-1.22,6.34A4.46,4.46,0,0,1,2100,748.85Z"></path>
    <path fill="#571519" d="M2084.93 755.72a5 5 0 0 1-.86-.08 4.58 4.58 0 0 1-3.64-5.35 36.1 36.1 0 0 1 4.77-11.52 38.82 38.82 0 0 0 3.24-6.64 4.57 4.57 0 0 1 8.65 3 46.37 46.37 0 0 1-4 8.2c-1.66 2.92-3.1 5.45-3.73 8.72A4.57 4.57 0 0 1 2084.93 755.72ZM2171.42 538.81c-11.76 0-31.93-2.86-47-7.17C2102 525.22 2075 511.78 2072.76 506c-3.86-10.21 1.45-25.3 5.72-37.42 1.14-3.23 2.19-6.19 2.9-8.68a4.57 4.57 0 0 1 8.79 2.54c-.76 2.63-1.87 5.76-3.07 9.17-3.47 9.88-8.21 23.32-6 30.57 3.36 3 23.37 14.28 45.83 20.71 21.3 6.09 43.93 7.34 48.8 6.71 2.6-2.77 6.63-15.17 8.84-22 2-6.18 3.75-11.51 5.34-14.43a4.57 4.57 0 1 1 8 4.38c-1.19 2.17-3 7.61-4.66 12.87-4.66 14.34-8.07 24-12.89 27.13C2179.06 538.41 2175.82 538.81 2171.42 538.81Z"></path>
    <path fill="#571519" d="M2173.91 494.33a3.64 3.64 0 0 1-.57 0c-37.68-4.66-83.22-25.33-89.22-30.86a4.58 4.58 0 0 1 6.21-6.72c3.89 3.6 47.35 24 84.13 28.51a4.57 4.57 0 0 1-.55 9.11ZM2194.55 499.26l-.57 0a4.57 4.57 0 0 1-4.22-4.89 4.53 4.53 0 0 1 4.83-4.23c1.85-.17 7.63-4.43 10.88-8 4.91-5.44 17.58-42.47 31-81.67 16.85-49.28 37.81-110.6 57.91-154a4.57 4.57 0 0 1 8.3 3.84c-19.9 42.94-40.78 104-57.56 153.08-17.52 51.26-26.94 78.31-32.84 84.85C2212.15 488.33 2202.19 499.26 2194.55 499.26Z"></path>
    <path fill="#571519" d="M2087 464.18a4.59 4.59 0 0 1-1.45-.24 11.61 11.61 0 0 1-6.93-6.16c-4.68-9.7 1.1-27.38 8-46.19l.28-.75c1.75-4.79 43-118 60.49-188.22a4.57 4.57 0 1 1 8.87 2.21c-17.63 70.68-59 184.34-60.77 189.14l-.28.76c-4.09 11.2-11.71 32.06-8.32 39.08a2.52 2.52 0 0 0 1.59 1.46 4.57 4.57 0 0 1-1.44 8.91ZM1711.79 670.63a12.12 12.12 0 0 1-3.32-.48c-4.75-1.4-10.57-6.29-12.66-15.84a4.57 4.57 0 0 1 8.93-1.95c1.16 5.29 4 8.34 6.31 9a1.7 1.7 0 0 0 1.14.06c.63-1.25.18-7 0-9.85A36.43 36.43 0 0 1 1712 645a224.42 224.42 0 0 1 9.75-44.21c10.94-32.81 5.81-76.09-2.63-105.64-2-7.16-5.32-13.87-8.79-21-5.7-11.68-11.59-23.76-11.59-37.95a4.57 4.57 0 0 1 9.14 0c0 12.08 5.18 22.7 10.66 33.94 3.49 7.15 7.1 14.54 9.37 22.47 8.82 30.87 14.1 76.25 2.51 111a215.43 215.43 0 0 0-9.35 42.46 39.83 39.83 0 0 0 .21 4.76c.5 6.57 1 13.36-2.62 17A9.54 9.54 0 0 1 1711.79 670.63Z"></path>
    <path fill="#571519" d="M1654.34,793.75a9.82,9.82,0,0,1-7.15-2.83c-7.64-7.64-5.06-23.71-1.48-40.91.57-2.71,1-5,1.28-6.67a769.17,769.17,0,0,0,8-109.9,4.57,4.57,0,0,1,9.14,0A778.37,778.37,0,0,1,1656,744.63c-.25,1.8-.77,4.3-1.38,7.24-1.88,9-5.79,27.81-1,32.59a1.52,1.52,0,0,0,.89.15,10,10,0,0,0,5.9-3.08c8.28-10.34,12.71-18.77,15.3-29.1,4-15.86,6.37-32.42,8.71-48.44,2.14-14.71,4.36-29.93,7.78-44.77,1.49-6.41,3.34-13.09,5.31-20.17,4.74-17,9.64-34.68,9.64-50a4.57,4.57,0,1,1,9.14,0c0,16.62-5.07,34.86-10,52.5-1.94,7-3.77,13.56-5.21,19.78-3.34,14.47-5.53,29.5-7.65,44-2.37,16.24-4.82,33-8.89,49.34-3.63,14.52-10.65,24.62-17,32.59a18.8,18.8,0,0,1-12.52,6.49C1654.81,793.75,1654.58,793.75,1654.34,793.75Z"></path>
    <path fill="#571519" d="M1645.48,682.69a16.89,16.89,0,0,1-7.9-1.92c-13-6.76-16.41-29.13-18.88-45.47-.63-4.11-1.16-7.66-1.73-9.93a4.57,4.57,0,0,1,8.87-2.22c.67,2.69,1.24,6.44,1.89,10.78,1.94,12.76,5.17,34.11,14.06,38.72,2.82,1.47,6.28,1.12,10.63-1.06a4.57,4.57,0,1,1,4.08,8.18A24.82,24.82,0,0,1,1645.48,682.69Z"></path>
    <path fill="#571519" d="M1626.18,666.29c-23.71,0-27.5-17.82-30.54-32.14-1.42-6.71-2.9-13.64-6.07-18.92a4.57,4.57,0,1,1,7.84-4.7c3.95,6.59,5.59,14.28,7.17,21.72,3.38,15.9,6.05,24.9,21.6,24.9a4.57,4.57,0,0,1,0,9.14Z"></path>
    <path fill="#571519" d="M1599.55,647.46h-.31c-30.63-2.08-32.9-30.76-34.91-56.07l-.37-4.57c-2.07-24.87,6.52-46.27,14.83-67,9.85-24.52,20-49.88,13.06-82.15a4.57,4.57,0,1,1,8.93-1.94c7.57,35-3.14,61.69-13.5,87.5-8.28,20.61-16.1,40.08-14.21,62.79l.37,4.61c2.28,28.7,5.19,46.23,26.41,47.67a4.57,4.57,0,0,1-.3,9.13Z"></path>
    <path fill="#571519" d="M1644.39,446.47l-2.12,0c-30.37-.55-56.15-11.3-60-14-3.08-2.16-7.29-7.57-8.39-29.49,0-.31-1.46-31.63,2.86-35.37,2.17-1.87,4-1.14,7.45.17a237.16,237.16,0,0,0,95.27,16,4.57,4.57,0,1,1,.34,9.13,246.48,246.48,0,0,1-96.54-15.73c-1.12,12.71-.56,44.35,4.27,47.78,2.09,1.37,25.67,11.81,54.9,12.34,26.3.44,55.84-7.81,60.48-10.35,2.81-4.67,2.53-13.86,2.28-22-.22-7.26-.44-14.12,1.09-19.65a4.57,4.57,0,0,1,8.81,2.44c-1.16,4.19-1,10.67-.77,16.93.33,10.34.66,21-4.25,28C1706.18,438.26,1670.34,446.47,1644.39,446.47Z"></path>
    <path fill="#571519" d="M1710.37 390.18a4.57 4.57 0 0 1-3.06-8c14.17-12.82 16.41-29.66 19-49.17.39-3 .8-6 1.25-9.06 1.89-12.63 5-49.68 7.91-85.51 3.25-39.47 6.63-80.27 8.83-94.09a4.57 4.57 0 1 1 9 1.44c-2.15 13.47-5.5 54.11-8.75 93.4-3.11 37.63-6 73.18-8 86.1-.44 3-.84 6-1.23 8.93-2.72 20.4-5.29 39.67-21.94 54.74A4.59 4.59 0 0 1 1710.37 390.18ZM1580.72 374.65a4.3 4.3 0 0 1-1.12-.14c-18-4.54-13.53-32.95-11.4-46.61l.25-1.6c3.86-25.13 11.06-144.33 12.74-179.25a4.65 4.65 0 0 1 4.79-4.35 4.57 4.57 0 0 1 4.34 4.79c-1.68 35-8.93 154.76-12.84 180.2l-.25 1.62c-1.58 10.13-5.28 33.84 4.61 36.34a4.57 4.57 0 0 1-1.12 9ZM1573.62 541.48a4.57 4.57 0 0 1-3.47-1.6l-51.43-60a11.19 11.19 0 0 1 1.21-15.79l6.93-5.94a11.19 11.19 0 0 1 15.78 1.22l43.61 50.86a4.57 4.57 0 1 1-6.94 6l-43.61-50.86a2 2 0 0 0-1.4-.71 2.07 2.07 0 0 0-1.5.49l-6.92 5.93a2 2 0 0 0-.71 1.4 2 2 0 0 0 .48 1.5l51.43 60a4.57 4.57 0 0 1-3.46 7.55ZM1790.81 785.17c-3.5 0-9-4.07-21.76-16.27-8.71-8.32-17.48-17.38-18.85-19l-58-67.67a4.57 4.57 0 1 1 6.93-6l58 67.67c3 3.55 23.66 24.29 31.86 30.46l.46-.86a4.59 4.59 0 0 1 2.77-2.26l.08 0c-5-9.19-22.1-32.41-25.12-35.93l-54.08-63.09a4.57 4.57 0 1 1 6.94-5.94l54.08 63.08c1.37 1.6 9 11.65 15.87 21.53 13.66 19.61 14.69 23.74 10.94 27a4.63 4.63 0 0 1-1.71.91l-2.6.75-1.55 2.93a5.2 5.2 0 0 1-4.27 2.68Zm2.82-10.91h0Z"></path>
    <path fill="#571519" d="M1813.75 802.73c-2.85 0-8.3-3.77-25.24-18.05a4.57 4.57 0 0 1 5.89-7l1.08.91-.85-1.14a4.57 4.57 0 1 1 7.31-5.49c19 25.36 17.83 26.43 14.64 29.29A4.17 4.17 0 0 1 1813.75 802.73Zm-4.58-4.09h0ZM1760.33 748.49a4.91 4.91 0 0 1-.94-.09l-9.76-2a4.57 4.57 0 0 1 1.88-9l3 .63L1753 730.3a4.57 4.57 0 0 1 6.18-5.13l15.67 6.27a4.57 4.57 0 1 1-3.39 8.48l-7.86-3.13 1.25 6.24a4.6 4.6 0 0 1-1.27 4.14A4.53 4.53 0 0 1 1760.33 748.49Z"></path>
    <path fill="#571519" d="M1793.08 779.53a4.57 4.57 0 0 1-3.62-1.77l-34.88-45.08-58.34-67.09a4.57 4.57 0 1 1 6.9-6l58.51 67.29 35 45.29a4.56 4.56 0 0 1-3.61 7.36ZM1578.65 528a4.56 4.56 0 0 1-3.45-1.57l-36-41.36a4.57 4.57 0 0 1 6.9-6l36 41.36a4.57 4.57 0 0 1-3.45 7.57Z"></path>
    <path fill="#571519" d="M1532.4 492.58a4.57 4.57 0 0 1-2-8.68 46.35 46.35 0 0 0 8.71-5.59 24.18 24.18 0 0 0 5-6.23 4.57 4.57 0 0 1 8.14 4.16 32.94 32.94 0 0 1-7.09 8.94 55.27 55.27 0 0 1-10.75 6.94A4.42 4.42 0 0 1 1532.4 492.58ZM1763.09 725.07a4 4 0 0 1-.6 0 4.58 4.58 0 0 1-3.94-5.12c1.87-14.39 3.81-29 5.83-43.64 18-131.35 41.59-268.78 41.83-270.16a4.56 4.56 0 0 1 6-3.55c.94.31 95.25 32 160.6 50.91C2037.9 472.32 2075.9 479 2076.28 479a4.57 4.57 0 0 1-1.56 9c-.38-.06-38.82-6.78-104.5-25.79-56.8-16.44-135.36-42.48-155.9-49.33-4.48 26.41-24.87 147.91-40.89 264.59-2 14.63-4 29.22-5.82 43.58A4.57 4.57 0 0 1 1763.09 725.07ZM2069.06 984.45a4.77 4.77 0 0 1-1.12-.14c-.81-.21-81.77-20.61-163.34-30.9s-166-10.77-166.8-10.77a4.57 4.57 0 0 1-4.53-5c.08-.81 8.31-82.64 20.7-181.78A4.57 4.57 0 1 1 1763 757c-10.64 85.1-18.2 157.41-20.17 176.59 19.47.27 92.2 1.87 162.87 10.79 69.77 8.8 139.07 24.95 158.86 29.74.64-31.36 4.45-183.77 19.24-276.86a4.57 4.57 0 0 1 9 1.44c-16.37 103-19.21 279.52-19.24 281.28a4.59 4.59 0 0 1-4.57 4.51Z"></path>
  </g>
</svg>
